<?xml version="1.0" encoding="UTF-8" standalone="no"?>
<!-- Created with Inkscape (http://www.inkscape.org/) -->

<svg
   width="227.45667mm"
   height="129.27133mm"
   viewBox="0 0 227.45667 129.27133"
   version="1.1"
   id="svg1"
   xml:space="preserve"
   inkscape:version="1.4.2 (f4327f4, 2025-05-13)"
   sodipodi:docname="icon-technique-switch.svg"
   xmlns:inkscape="http://www.inkscape.org/namespaces/inkscape"
   xmlns:sodipodi="http://sodipodi.sourceforge.net/DTD/sodipodi-0.dtd"
   xmlns="http://www.w3.org/2000/svg"
   xmlns:svg="http://www.w3.org/2000/svg"><sodipodi:namedview
     id="namedview1"
     pagecolor="#ffffff"
     bordercolor="#000000"
     borderopacity="0.25"
     inkscape:showpageshadow="2"
     inkscape:pageopacity="0.0"
     inkscape:pagecheckerboard="0"
     inkscape:deskcolor="#d1d1d1"
     inkscape:document-units="mm"
     inkscape:zoom="0.72604517"
     inkscape:cx="429.03666"
     inkscape:cy="254.11642"
     inkscape:window-width="1920"
     inkscape:window-height="1017"
     inkscape:window-x="-8"
     inkscape:window-y="-8"
     inkscape:window-maximized="1"
     inkscape:current-layer="layer1" /><defs
     id="defs1" /><g
     inkscape:label="Слой 1"
     inkscape:groupmode="layer"
     id="layer1"
     transform="translate(8.5127072,-81.232266)"><g
       id="g1"><path
         style="fill:#03a0e2"
         d="m 94.344604,209.9756 c -9.960891,-1.35716 -19.607649,-5.05999 -28.490441,-10.93582 -5.140281,-3.40022 -5.148546,-3.3352 0.424865,-3.34244 5.495296,-0.007 8.62458,-0.57223 11.632171,-2.10058 l 2.123966,-1.07932 3.947348,1.56951 c 6.858327,2.72693 11.963486,3.73266 18.940397,3.73129 8.51995,-0.002 15.37889,-1.64861 23.45973,-5.633 2.71638,-1.33937 6.19232,-3.38443 7.72429,-4.54458 3.14922,-2.38489 9.56665,-8.24357 10.07957,-9.20197 0.28495,-0.53245 -0.24497,-1.11381 -3.35285,-3.67833 -3.30207,-2.72477 -4.23974,-3.75133 -3.42647,-3.75133 0.14565,0 2.88408,-0.56672 6.08541,-1.25937 12.80793,-2.77118 18.85478,-3.97641 19.12195,-3.8113 0.15432,0.0954 0.28059,5.97541 0.28059,13.06673 0,10.60784 -0.0835,12.86127 -0.47098,12.71258 -0.25904,-0.0994 -2.18516,-1.49167 -4.28028,-3.09392 l -3.80929,-2.9132 -3.74542,3.91229 c -6.01874,6.2869 -11.39586,10.33408 -18.39943,13.84863 -11.54641,5.79427 -25.47984,8.18889 -37.845126,6.50413 z m -47.248768,-3.59433 c 0.824618,-0.0743 2.173993,-0.0743 2.998611,0 0.824618,0.0743 0.14993,0.13504 -1.499306,0.13504 -1.649236,0 -2.323923,-0.0608 -1.499305,-0.13504 z m 115.005544,-0.005 c 2.18281,-0.0619 5.75469,-0.0619 7.9375,0 2.18281,0.0619 0.39688,0.11253 -3.96875,0.11253 -4.36562,0 -6.15156,-0.0506 -3.96875,-0.11253 z m 16.2341,0.008 c 0.63406,-0.0785 1.58656,-0.0769 2.11666,0.004 0.5301,0.0805 0.0113,0.14474 -1.15284,0.14276 -1.16417,-0.002 -1.59789,-0.0678 -0.96382,-0.14636 z M 54.267436,202.55324 c 0.01693,-0.41097 0.100521,-0.49456 0.213137,-0.21314 0.101907,0.25466 0.08937,0.55893 -0.02785,0.67616 -0.117225,0.11722 -0.200604,-0.0911 -0.185286,-0.46302 z m 101.980624,-4.7331 c 0,-0.48507 0.0801,-0.68351 0.17793,-0.44098 0.0979,0.24254 0.0979,0.63941 0,0.88195 -0.0979,0.24253 -0.17793,0.0441 -0.17793,-0.44097 z m -93.277225,-6.23086 c 0.242534,-0.0979 0.639409,-0.0979 0.881944,0 0.242535,0.0979 0.0441,0.17793 -0.440972,0.17793 -0.48507,0 -0.683507,-0.0801 -0.440972,-0.17793 z m 69.993895,-19.8747 c 0,-0.48507 0.0801,-0.6835 0.17793,-0.44097 0.0979,0.24254 0.0979,0.63941 0,0.88195 -0.0979,0.24253 -0.17793,0.0441 -0.17793,-0.44098 z m 85.69714,-37.953 c 0.0169,-0.41097 0.10052,-0.49456 0.21313,-0.21314 0.10191,0.25466 0.0894,0.55893 -0.0279,0.67616 -0.11722,0.11722 -0.2006,-0.0911 -0.18528,-0.46302 z m 0,-5.99722 c 0.0169,-0.41097 0.10052,-0.49456 0.21313,-0.21314 0.10191,0.25466 0.0894,0.55893 -0.0279,0.67616 -0.11722,0.11722 -0.2006,-0.0911 -0.18528,-0.46302 z m -61.94035,-2.95572 c -2.32833,-0.53386 -7.32896,-1.64129 -11.1125,-2.46095 -8.94807,-1.9385 -8.46666,-1.81473 -8.46666,-2.17682 0,-0.17295 1.67278,-1.69478 3.71729,-3.38185 l 3.7173,-3.06739 -3.45271,-3.48596 c -9.59833,-9.69076 -21.34077,-15.343505 -34.1914,-16.45956 -9.613939,-0.834953 -20.188998,1.309294 -28.646685,5.80853 l -2.949586,1.56909 -2.582505,-2.378597 c -1.420378,-1.30823 -3.697261,-3.092974 -5.059741,-3.966099 -1.36248,-0.873125 -2.486549,-1.694133 -2.497932,-1.824461 -0.03996,-0.457512 4.43144,-3.179055 8.622359,-5.24805 4.825311,-2.382186 10.929,-4.471849 16.580555,-5.67653 3.456663,-0.73682 4.805411,-0.827236 12.347225,-0.827725 7.47274,-4.84e-4 8.92221,0.09461 12.34722,0.810071 14.19943,2.966158 27.1043,10.332582 36.00475,20.552401 1.84028,2.11308 3.20931,3.40386 3.45391,3.2565 0.22287,-0.13426 1.7546,-1.29959 3.40383,-2.58961 1.64924,-1.29002 3.43518,-2.6266 3.96875,-2.97018 l 0.97014,-0.624674 v 13.093354 13.09335 l -0.97014,-0.0371 c -0.53357,-0.0204 -2.87514,-0.47389 -5.20347,-1.00774 z M 44.41751,117.38681 c 0,-0.48507 0.08007,-0.68351 0.177936,-0.44097 0.09786,0.24253 0.09786,0.63941 0,0.88194 -0.09787,0.24254 -0.177936,0.0441 -0.177936,-0.44097 z M 31.948441,90.687491 c 0.254662,-0.101907 0.558933,-0.08937 0.676158,0.02785 0.117225,0.117225 -0.09114,0.200603 -0.463021,0.185286 -0.410966,-0.01693 -0.494559,-0.100521 -0.213137,-0.213136 z m 10.583333,0 c 0.254661,-0.101907 0.558932,-0.08937 0.676157,0.02785 0.117225,0.117225 -0.09113,0.200603 -0.463021,0.185286 -0.410966,-0.01693 -0.494559,-0.100521 -0.213136,-0.213136 z"
         id="path2" /><path
         style="fill:#1b3953"
         d="m 3.5618561,206.27319 c -2.071156,-0.63614 -2.0601346,-1.60488 0.091991,-8.08566 2.4847475,-7.48243 3.3135199,-11.61367 3.3135199,-16.51716 0,-6.76345 -1.1644847,-10.09521 -8.2883244,-23.71412 -5.5616003,-10.63232 -7.5649098,-18.85142 -7.1357008,-29.27607 0.1079476,-2.62184 0.4584865,-6.01932 0.7789754,-7.54996 3.42963,-16.37971 15.6634511,-26.850723 34.9297708,-29.896628 4.394084,-0.694682 16.522427,-0.591217 20.813887,0.177559 9.639371,1.726807 17.419075,5.699037 23.202652,11.847019 6.542064,6.95425 9.564758,14.83833 10.083008,26.29947 0.320358,7.08474 0.178542,6.68553 5.7675,16.23542 4.73234,8.08618 4.86767,8.35935 4.86767,9.82555 0,2.09527 -1.287343,3.20376 -4.79759,4.13107 -4.779831,1.2627 -5.508207,2.27253 -4.014106,5.56523 0.91182,2.00948 0.880848,2.60023 -0.203915,3.8894 -0.72797,0.86514 -0.829935,1.20577 -0.529167,1.76776 0.656876,1.22739 0.409464,2.43966 -0.773972,3.79234 -1.14512,1.30887 -1.146435,1.31484 -1.071304,4.86296 0.04137,1.95387 -0.08955,4.16913 -0.290943,4.9228 -0.508037,1.90124 -1.884763,3.86834 -3.482077,4.97528 -2.537111,1.75821 -4.151539,2.04269 -11.824424,2.08352 -6.415302,0.0342 -7.1676,0.10267 -8.290277,0.75511 -2.119985,1.23203 -2.503008,2.4771 -2.414917,7.85002 0.07248,4.42055 0.03245,4.73141 -0.704078,5.46793 l -0.780923,0.78093 -24.0674,0.0759 c -14.75329,0.0466 -24.4979219,-0.0563 -25.1798559,-0.26572 z M 56.087038,128.04755 c 2.183817,-0.96601 4.712011,-3.3578 5.846752,-5.5313 0.772897,-1.48042 0.930005,-2.25047 0.938567,-4.60027 0.01317,-3.61314 -0.793578,-5.76028 -3.0678,-8.16493 -2.341325,-2.47561 -4.599283,-3.43903 -8.034416,-3.4281 -4.57885,0.0146 -8.274666,2.27492 -10.236967,6.26092 -2.457098,4.99107 -0.932179,11.05635 3.562963,14.17149 3.359721,2.32829 7.538084,2.81953 10.990901,1.29219 z m -5.954422,-3.58893 c -3.260187,-0.77745 -5.41803,-3.5065 -5.41803,-6.85228 0,-3.97525 2.414907,-6.56936 6.382721,-6.85637 3.32483,-0.2405 5.729972,1.11921 7.059571,3.99101 1.745317,3.7697 -0.366646,8.33312 -4.412673,9.53466 -1.907166,0.56637 -1.986892,0.57041 -3.611589,0.18298 z m 115.500494,81.91 c -10.26684,-0.11594 -9.47935,0.4265 -9.3857,-6.46512 0.0665,-4.89228 -0.0978,-5.66731 -1.53678,-7.24962 -0.48146,-0.52942 -0.56637,-0.8317 -0.28284,-1.00694 0.22682,-0.14018 1.80567,0.6975 3.58686,1.90307 2.53361,1.71481 3.45912,2.15346 4.54366,2.15346 1.99464,0 3.05935,-0.62963 3.85939,-2.2823 0.67399,-1.39226 0.71077,-2.15677 0.71077,-14.77374 0,-14.7307 -0.0559,-15.15154 -2.18364,-16.4488 -0.64226,-0.39158 -1.58963,-0.71256 -2.10526,-0.71328 -0.80947,-0.001 -22.2638,4.65345 -26.22638,5.6899 -1.83024,0.47872 -2.91676,1.51414 -3.37513,3.2164 -0.43258,1.60645 0.0566,3.52826 1.08053,4.24548 0.35751,0.25041 1.48369,1.23509 2.50263,2.18819 l 1.8526,1.73289 -2.08865,1.89409 c -1.14875,1.04174 -2.98666,2.59545 -4.08424,3.45267 l -1.99559,1.55858 -0.38566,-1.10629 c -0.21211,-0.60846 -0.38566,-2.72714 -0.38566,-4.70817 0,-3.58348 -0.006,-3.60979 -1.23129,-5.15083 -1.35039,-1.69877 -1.4509,-2.17784 -0.73006,-3.4799 0.44044,-0.79557 0.40496,-0.94501 -0.40188,-1.69277 -0.96475,-0.8941 -0.98085,-1.62294 -0.10356,-4.68739 0.55751,-1.94746 0.25037,-3.41733 -0.80613,-3.85785 -0.43121,-0.1798 -1.96714,-0.66696 -3.41317,-1.08257 -3.47028,-0.99742 -5.14762,-2.53807 -4.83832,-4.44404 0.11359,-0.69998 1.91802,-4.22795 4.00986,-7.83995 6.49356,-11.21251 6.80127,-12.05144 6.80837,-18.5617 0.004,-4.08312 0.77075,-8.73965 2.06093,-12.52361 1.05078,-3.0818 2.86865,-7.05556 3.2277,-7.05556 0.11118,0 1.11173,0.91918 2.22345,2.04263 l 2.02131,2.04262 -2.47279,2.05982 c -2.87138,2.39182 -3.55314,3.82445 -2.84339,5.97501 0.79981,2.42343 0.43072,2.28821 15.71536,5.75773 12.20129,2.76962 12.99434,2.93608 13.98845,2.93608 1.56653,0 2.77729,-0.7509 3.50235,-2.17213 0.63272,-1.24024 0.67726,-2.21078 0.67726,-14.75848 0,-14.577881 -0.054,-15.036492 -1.94511,-16.524046 -1.16356,-0.915259 -3.25844,-1.010903 -4.79038,-0.218708 -0.5808,0.300344 -2.06465,1.401746 -3.29745,2.44756 l -2.24145,1.901484 -1.32735,-1.477424 c -0.73004,-0.812582 -1.87512,-2.057594 -2.54461,-2.766693 l -1.21725,-1.289271 1.71444,-0.762534 c 8.87492,-3.947324 23.94285,-4.983394 35.63476,-2.450246 21.60864,4.681689 33.5371,21.023368 31.53251,43.198718 -0.71162,7.87216 -2.71341,14.3631 -6.90455,22.38843 -7.62668,14.60381 -8.44994,16.96955 -8.40931,24.16528 0.0308,5.45379 0.45169,7.57826 3.20325,16.16857 1.87502,5.85378 1.97924,6.35443 1.50027,7.20683 -0.2831,0.50381 -0.99097,1.04953 -1.57306,1.21271 -0.9505,0.26646 -17.84459,0.27133 -40.83007,0.0118 z"
         id="path1" /></g></g></svg>
