<?xml version="1.0" encoding="UTF-8" standalone="no"?>
<!-- Created with Inkscape (http://www.inkscape.org/) -->

<svg
   width="234.93451mm"
   height="181.83185mm"
   viewBox="0 0 234.93451 181.83185"
   version="1.1"
   id="svg1"
   xml:space="preserve"
   inkscape:version="1.4.2 (f4327f4, 2025-05-13)"
   sodipodi:docname="icon-vulkan.svg"
   xmlns:inkscape="http://www.inkscape.org/namespaces/inkscape"
   xmlns:sodipodi="http://sodipodi.sourceforge.net/DTD/sodipodi-0.dtd"
   xmlns="http://www.w3.org/2000/svg"
   xmlns:svg="http://www.w3.org/2000/svg"><sodipodi:namedview
     id="namedview1"
     pagecolor="#ffffff"
     bordercolor="#000000"
     borderopacity="0.25"
     inkscape:showpageshadow="2"
     inkscape:pageopacity="0.0"
     inkscape:pagecheckerboard="0"
     inkscape:deskcolor="#d1d1d1"
     inkscape:document-units="mm"
     inkscape:zoom="0.72604517"
     inkscape:cx="424.90469"
     inkscape:cy="474.48838"
     inkscape:window-width="1920"
     inkscape:window-height="1017"
     inkscape:window-x="-8"
     inkscape:window-y="-8"
     inkscape:window-maximized="1"
     inkscape:current-layer="layer1" /><defs
     id="defs1" /><g
     inkscape:label="Слой 1"
     inkscape:groupmode="layer"
     id="layer1"
     transform="translate(7.3181062,-23.022357)"><g
       id="g1"
       transform="translate(5.1018404,-10.932515)"><path
         style="fill:#1ea4db"
         d="M 82.630839,181.56178 C 74.893206,173.73148 62.020962,164.9379 49.907064,159.20676 38.128992,153.6345 23.155036,149.07399 11.635946,147.5508 c -1.8536565,-0.24512 -2.5519125,-0.81494 -2.5519125,-2.08256 0,-1.45159 1.6235315,-1.40014 10.0541655,0.31865 23.188972,4.72764 43.893195,15.53537 60.096248,31.37063 4.505049,4.40278 7.399814,7.60984 6.868825,7.60984 -0.167634,0 -1.730228,-1.44251 -3.472433,-3.20558 z m 9.936719,-1.01277 c -8.21519,-14.82422 -21.139384,-31.52504 -35.329362,-45.6531 -7.377987,-7.3458 -12.354104,-11.71053 -19.843748,-17.40569 -5.4451,-4.14048 -6.077164,-4.90944 -4.956528,-6.03008 0.779117,-0.77911 1.572994,-0.4386 4.906365,2.10447 7.245206,5.52744 13.037099,10.50769 19.011967,16.34774 10.681585,10.44055 17.211892,18.17014 24.846164,29.40912 5.946079,8.75366 15.129122,25.44589 13.998773,25.44589 -0.162762,0 -1.347896,-1.89826 -2.633631,-4.21835 z m 9.861912,2.47277 c -0.56973,-4.29488 -3.176015,-16.49067 -5.545063,-25.94747 -5.13121,-20.48285 -10.858108,-37.20824 -19.849543,-57.970527 -0.994803,-2.297117 -1.192834,-3.085114 -0.908727,-3.615972 0.409187,-0.764572 1.834406,-0.907856 2.365401,-0.237805 0.572078,0.721893 6.192965,14.116294 8.475358,20.196524 6.819333,18.1665 11.575184,36.90084 14.687064,57.85555 1.41191,9.50752 1.62896,11.46528 1.27107,11.46528 -0.1452,0 -0.3682,-0.78551 -0.49556,-1.74558 z m 4.39788,1.27759 c -0.0301,-0.81202 2.23871,-15.70116 3.18093,-20.87506 4.00254,-21.97876 9.31351,-39.59623 18.39826,-61.03055 3.20593,-7.563995 3.66856,-8.269983 5.0167,-7.65573 0.49329,0.224761 0.89689,0.704258 0.89689,1.06555 0,0.361292 -1.01255,2.959401 -2.25012,5.77357 -10.2951,23.41055 -17.71314,47.55533 -23.49934,76.48743 -1.08812,5.44083 -1.69264,7.60279 -1.74332,6.23479 z m 7.97926,0.23965 c -0.13276,-0.13276 1.04368,-2.69799 2.61431,-5.70051 11.23442,-21.47649 22.38293,-36.05009 40.38704,-52.7949 7.51332,-6.98779 17.69258,-15.0068 19.04951,-15.0068 0.9025,0 1.67413,1.05568 1.36343,1.86535 -0.10666,0.27794 -1.97034,1.83726 -4.14152,3.46514 -22.83061,17.11766 -43.61177,40.96915 -57.98712,66.55449 -0.57435,1.02224 -1.15289,1.74999 -1.28565,1.61723 z m 13.16353,-0.6536 c 0.45569,-0.48507 0.90791,-0.88195 1.00493,-0.88195 0.097,0 -0.19646,0.39688 -0.65216,0.88195 -0.4557,0.48506 -0.90792,0.88194 -1.00493,0.88194 -0.097,0 0.19646,-0.39688 0.65216,-0.88194 z m -2.88652,-0.79375 c 1.90502,-2.3926 10.40229,-10.49032 14.00059,-13.34228 16.49644,-13.07481 34.93172,-21.08716 57.65461,-25.05785 2.84122,-0.49649 3.00622,-0.48938 3.6529,0.15729 0.83877,0.83877 0.53636,2.0923 -0.56663,2.34876 -0.42363,0.0985 -2.99274,0.58032 -5.70913,1.0707 -25.08799,4.52905 -51.34936,17.71297 -67.01831,33.645 -2.65179,2.69633 -3.72051,3.32161 -2.01403,1.17838 z m -44.78348,-0.70556 c -0.43881,-0.55953 -0.426332,-0.572 0.133193,-0.13319 0.339549,0.26629 0.617361,0.5441 0.617361,0.61736 0,0.29035 -0.289696,0.10347 -0.750554,-0.48417 z m 4.938889,-3.52778 c -0.43881,-0.55952 -0.426332,-0.572 0.133193,-0.13319 0.587639,0.46086 0.774516,0.75055 0.484168,0.75055 -0.07326,0 -0.351069,-0.27781 -0.617361,-0.61736 z m -7.761111,-11.28889 c -0.43881,-0.55952 -0.426332,-0.572 0.133193,-0.13319 0.339549,0.26629 0.617361,0.54411 0.617361,0.61736 0,0.29035 -0.289696,0.10347 -0.750554,-0.48417 z m 28.003402,-3.0868 c 0.004,-0.77611 0.0762,-1.05207 0.16054,-0.61325 0.0844,0.43883 0.0812,1.07383 -0.007,1.41111 -0.0883,0.33729 -0.15734,-0.0217 -0.15343,-0.79786 z m -74.61326,0.64831 c 0.242534,-0.0979 0.639409,-0.0979 0.881944,0 0.242535,0.0979 0.0441,0.17793 -0.440972,0.17793 -0.48507,0 -0.683507,-0.0801 -0.440972,-0.17793 z m 148.34304,-0.01 c 0.33955,-0.0887 0.89518,-0.0887 1.23473,0 0.33954,0.0887 0.0617,0.16134 -0.61737,0.16134 -0.67909,0 -0.95691,-0.0726 -0.61736,-0.16134 z m -43.83263,-0.99154 c 0.4557,-0.48507 0.90792,-0.88194 1.00493,-0.88194 0.097,0 -0.19646,0.39687 -0.65215,0.88194 -0.4557,0.48507 -0.90792,0.88195 -1.00494,0.88195 -0.097,0 0.19646,-0.39688 0.65216,-0.88195 z m -30.94354,-1.05833 c 0.003,-0.97014 0.0712,-1.32515 0.15224,-0.7889 0.0811,0.53624 0.0789,1.32999 -0.005,1.76389 -0.0837,0.43389 -0.15008,-0.005 -0.14743,-0.97499 z m -32.909235,-1.76389 c -1.445496,-1.45521 -2.5488,-2.64583 -2.451786,-2.64583 0.09701,0 1.359068,1.19062 2.804564,2.64583 1.445496,1.45521 2.5488,2.64583 2.451786,2.64583 -0.09701,0 -1.359068,-1.19062 -2.804564,-2.64583 z m -39.930031,0.99373 c 0.254661,-0.1019 0.558932,-0.0894 0.676157,0.0279 0.117225,0.11723 -0.09113,0.20061 -0.463021,0.18529 -0.410966,-0.0169 -0.494559,-0.10052 -0.213136,-0.21314 z m 146.563816,-0.003 c 0.34325,-0.0894 0.8195,-0.0836 1.05834,0.0131 0.23884,0.0966 -0.042,0.16982 -0.62408,0.16263 -0.58208,-0.007 -0.7775,-0.0863 -0.43426,-0.1757 z m -36.96018,-0.81386 c 0.35119,-0.38806 0.71789,-0.70556 0.81491,-0.70556 0.097,0 -0.11095,0.3175 -0.46213,0.70556 -0.35119,0.38805 -0.7179,0.70555 -0.81491,0.70555 -0.097,0 0.11095,-0.3175 0.46213,-0.70555 z m 3.35139,-2.95542 c 0,-0.0732 0.27781,-0.35107 0.61736,-0.61736 0.55953,-0.43881 0.572,-0.42633 0.13319,0.1332 -0.46085,0.58763 -0.75055,0.77451 -0.75055,0.48416 z m -2.64583,-0.92514 c 0.35118,-0.38805 0.71789,-0.70555 0.8149,-0.70555 0.097,0 -0.11094,0.3175 -0.46213,0.70555 -0.35118,0.38806 -0.71789,0.70556 -0.8149,0.70556 -0.097,0 0.11094,-0.3175 0.46213,-0.70556 z m -77.291849,-2.91041 -0.672037,-0.79375 0.793749,0.67203 c 0.74593,0.63155 0.954349,0.91547 0.672038,0.91547 -0.06694,0 -0.42413,-0.35719 -0.79375,-0.79375 z m 41.247889,-2.55764 c 0.002,-1.3582 0.0653,-1.87059 0.14169,-1.13866 0.0764,0.73193 0.0751,1.84318 -0.003,2.46944 -0.0779,0.62627 -0.14042,0.0274 -0.13885,-1.33078 z m -1.77394,-1.23472 c 0,-1.06716 0.0661,-1.50372 0.14697,-0.97014 0.0808,0.53357 0.0808,1.4067 0,1.94027 -0.0808,0.53358 -0.14697,0.097 -0.14697,-0.97013 z m 105.94034,-3.58658 c 0.0999,-0.16169 0.33107,-0.29398 0.51365,-0.29398 0.18258,0 0.33196,0.13229 0.33196,0.29398 0,0.16169 -0.23115,0.29398 -0.51365,0.29398 -0.28251,0 -0.43189,-0.13229 -0.33196,-0.29398 z m -1.14698,-0.9149 c 0.1282,-0.20743 0.0337,-0.45755 -0.21008,-0.55582 -0.26735,-0.10779 -0.19825,-0.18972 0.17419,-0.20652 0.69813,-0.0315 0.82564,0.50735 0.21008,0.88778 -0.24073,0.14878 -0.31196,0.0975 -0.17419,-0.12544 z M -4.1451321,145.96181 c -0.6732257,-0.2893 -0.6691845,-0.30433 0.088194,-0.32799 0.4365625,-0.0136 0.79375,0.13396 0.79375,0.32799 0,0.19403 -0.039687,0.34162 -0.088195,0.32798 -0.048507,-0.0136 -0.4056944,-0.16123 -0.793749,-0.32798 z m 5.3798607,-0.23364 c 0.2425347,-0.0979 0.6394096,-0.0979 0.8819443,0 0.2425347,0.0979 0.044097,0.17794 -0.4409721,0.17794 -0.4850695,0 -0.68350694,-0.0801 -0.4409722,-0.17794 z M 207.63176,144.30971 c 0.25466,-0.10191 0.55893,-0.0894 0.67616,0.0279 0.11722,0.11722 -0.0911,0.2006 -0.46302,0.18529 -0.41097,-0.0169 -0.49456,-0.10053 -0.21314,-0.21314 z m 7.05556,0 c 0.25466,-0.10191 0.55893,-0.0894 0.67615,0.0279 0.11723,0.11722 -0.0911,0.2006 -0.46302,0.18529 -0.41096,-0.0169 -0.49456,-0.10053 -0.21313,-0.21314 z m -2.72823,-3.1398 c 0.0169,-0.41097 0.10052,-0.49456 0.21314,-0.21314 0.1019,0.25466 0.0894,0.55894 -0.0279,0.67616 -0.11723,0.11723 -0.20061,-0.0911 -0.18529,-0.46302 z M 97.659099,138.34769 c 0.01693,-0.41097 0.100521,-0.49456 0.213137,-0.21314 0.101907,0.25466 0.08937,0.55893 -0.02785,0.67616 -0.117225,0.11722 -0.200604,-0.0911 -0.185287,-0.46302 z m 14.491741,-0.14699 c 0,-0.48507 0.0801,-0.68351 0.17793,-0.44098 0.0979,0.24254 0.0979,0.63941 0,0.88195 -0.0979,0.24253 -0.17793,0.0441 -0.17793,-0.44097 z m -5.92408,-5.46806 c 9.2e-4,-1.94028 0.0602,-2.68902 0.13165,-1.66387 0.0715,1.02515 0.0707,2.61265 -0.002,3.52778 -0.0724,0.91513 -0.1309,0.0764 -0.12998,-1.86391 z m -8.920438,1.02894 c 0.01693,-0.41097 0.10052,-0.49456 0.213136,-0.21314 0.101907,0.25466 0.08937,0.55893 -0.02785,0.67616 -0.117225,0.11722 -0.200603,-0.0911 -0.185285,-0.46302 z m 6.431468,-4.90949 c 0.002,-1.16417 0.0678,-1.59789 0.14635,-0.96382 0.0785,0.63406 0.0769,1.58656 -0.004,2.11666 -0.0805,0.5301 -0.14473,0.0113 -0.14275,-1.15284 z m 9.09075,1.38171 c 0.0169,-0.41097 0.10052,-0.49456 0.21314,-0.21314 0.10191,0.25466 0.0894,0.55893 -0.0279,0.67616 -0.11723,0.11723 -0.20061,-0.0911 -0.18529,-0.46302 z m 85.95891,-21.73907 c -0.14707,-0.52502 -0.4289,-1.37935 -0.62628,-1.89852 l -0.35889,-0.94394 -1.27299,1.63393 c -0.70014,0.89867 -1.32615,1.63394 -1.39111,1.63394 -0.18326,0 0.2751,-1.11627 0.98218,-2.39198 0.35279,-0.63649 0.64144,-1.22033 0.64144,-1.29742 0,-0.0771 -0.91282,-0.0709 -2.02848,0.0137 l -2.02847,0.15385 1.41111,-0.69925 c 0.77611,-0.38459 1.60955,-0.70342 1.85209,-0.7085 0.78912,-0.0166 0.44335,-0.51642 -1.18744,-1.7166 -1.90988,-1.40557 -1.82433,-1.80366 0.16906,-0.78671 0.78718,0.40159 1.5843,0.73017 1.77137,0.73017 0.19905,0 0.26197,-0.76819 0.15169,-1.85209 -0.21578,-2.120933 0.21694,-1.95897 0.94252,0.35278 0.25883,0.82462 0.58234,1.49931 0.71892,1.49931 0.13659,0 0.70061,-0.65264 1.25339,-1.4503 1.22479,-1.767367 1.53397,-1.278057 0.48797,0.77227 l -0.76082,1.49134 2.23951,-0.206 2.23952,-0.206 -1.41111,0.65513 c -0.77611,0.36031 -1.60955,0.66689 -1.85208,0.68128 -0.75126,0.0446 -0.49197,0.61385 0.79375,1.74273 0.67909,0.59626 1.23472,1.16291 1.23472,1.25924 0,0.0963 -0.75406,-0.20822 -1.6757,-0.67678 l -1.67569,-0.85191 -0.17639,2.01047 c -0.14706,1.67621 -0.22085,1.85176 -0.44379,1.05589 z m -186.606947,-1.36757 0.156002,-1.79298 -1.094675,0.56608 c -1.4077818,0.728 -2.863352,1.28098 -2.863352,1.08782 0,-0.0829 0.7176415,-0.64446 1.5947588,-1.24793 0.8771172,-0.60347 1.5200752,-1.21806 1.4287962,-1.36576 -0.09128,-0.14769 -0.81688,-0.48335 -1.612444,-0.74591 -2.2029957,-0.72706 -2.1210761,-1.15373 0.1666323,-0.8679 l 2.0096477,0.25109 -0.755976,-1.48184 c -1.097105,-2.150502 -0.71924,-2.437179 0.70333,-0.5336 l 1.227755,1.64289 0.705555,-2.23935 0.705556,-2.239348 0.105156,2.209788 0.105156,2.2098 1.586474,-0.92974 c 2.060359,-1.20745 2.348975,-0.87936 0.519651,0.59072 -0.788971,0.63404 -1.434493,1.27266 -1.434493,1.41917 0,0.14651 0.595312,0.45662 1.322917,0.68913 2.242962,0.71676 2.227462,1.1275 -0.03216,0.85211 l -2.060629,-0.25114 0.569145,1.1006 c 0.31303,0.60533 0.727654,1.53825 0.921388,2.07314 0.300541,0.82978 0.165647,0.75247 -0.919023,-0.52677 -0.699197,-0.82462 -1.391441,-1.49931 -1.538321,-1.49931 -0.14688,0 -0.476624,0.635 -0.732763,1.41111 -0.637825,1.93263 -0.971333,1.77021 -0.784086,-0.38187 z M 106.54678,90.575701 c 0,-0.873125 0.0688,-1.230313 0.15288,-0.79375 0.0841,0.436562 0.0841,1.150937 0,1.5875 -0.0841,0.436562 -0.15288,0.07937 -0.15288,-0.79375 z m 33.43286,-2.132443 -1.54177,-2.457093 -1.44021,2.364597 c -1.61991,2.659626 -1.99127,2.358529 -0.92249,-0.747944 0.39393,-1.144974 0.64659,-2.151417 0.56147,-2.236539 -0.0851,-0.08512 -1.20693,0.195368 -2.49289,0.623311 -1.28597,0.427943 -2.42789,0.688315 -2.5376,0.578605 -0.10971,-0.10971 0.77181,-0.800715 1.95893,-1.535566 1.18712,-0.734852 2.15993,-1.415469 2.16181,-1.512483 0.002,-0.09701 -1.02745,-0.732014 -2.2874,-1.411111 -1.25994,-0.679098 -2.12831,-1.289154 -1.92971,-1.355681 0.31157,-0.104366 2.72244,0.350266 4.64794,0.876489 0.53446,0.146062 0.50452,-0.124401 -0.26382,-2.383414 -0.47668,-1.401495 -0.80188,-2.612982 -0.72267,-2.692194 0.0792,-0.07921 0.79916,0.820714 1.59989,1.999834 0.80072,1.17912 1.52155,2.143855 1.60184,2.143855 0.0803,0 0.72762,-1.040081 1.43852,-2.311292 0.71091,-1.27121 1.35225,-2.251593 1.42521,-2.178629 0.073,0.07296 -0.10403,1.041416 -0.39333,2.152115 -0.89639,3.441476 -0.89851,3.43809 1.65145,2.644455 1.1976,-0.372735 2.33881,-0.623912 2.53604,-0.558171 0.19722,0.06574 -0.62388,0.716346 -1.82468,1.44579 -1.20079,0.729443 -2.18326,1.386372 -2.18326,1.459842 0,0.07347 1.04008,0.715227 2.31129,1.426129 1.27121,0.710901 2.24344,1.3604 2.16051,1.443331 -0.0829,0.08293 -1.20811,-0.114809 -2.50039,-0.43942 -1.29229,-0.324612 -2.45335,-0.48647 -2.58013,-0.359683 -0.12679,0.126786 0.13043,1.351236 0.57159,2.721 0.44116,1.369764 0.74215,2.550438 0.66887,2.62372 -0.0733,0.07328 -0.82704,-0.972452 -1.67501,-2.323853 z m -33.3819,-10.391167 c 3.4e-4,-3.686528 0.0526,-5.14672 0.11617,-3.244871 0.0636,1.901849 0.0633,4.918099 -6.2e-4,6.702777 -0.0639,1.784679 -0.11589,0.228621 -0.11555,-3.457906 z m -67.384727,1.146527 -0.672037,-0.79375 0.793749,0.672038 c 0.74593,0.631549 0.954349,0.915462 0.672038,0.915462 -0.06694,0 -0.42413,-0.357187 -0.79375,-0.79375 z m 131.090447,0.307779 c 0,-0.07326 0.27782,-0.351068 0.61737,-0.617361 0.55952,-0.43881 0.572,-0.426332 0.13319,0.133193 -0.46086,0.587639 -0.75056,0.774516 -0.75056,0.484168 z m 11.63862,-4.812002 c -0.65537,-1.354725 -1.27316,-2.463137 -1.37285,-2.463137 -0.0997,0 -1.0996,0.992187 -2.22201,2.204861 -2.10427,2.273495 -2.18553,2.135596 -0.67566,-1.146528 1.12661,-2.448988 1.10892,-2.469444 -2.13523,-2.469444 -1.58456,0 -2.78949,-0.09152 -2.67763,-0.203387 0.11187,-0.111863 1.34326,-0.496589 2.73643,-0.854947 1.39317,-0.358357 2.62053,-0.739052 2.72747,-0.845987 0.10694,-0.106935 -0.35754,-0.873147 -1.03217,-1.702692 -0.67463,-0.829546 -1.5305,-1.979076 -1.90192,-2.554513 l -0.67532,-1.046248 1.5875,1.121649 c 0.87312,0.616907 1.98437,1.441376 2.46944,1.832154 1.15337,0.929168 1.29022,0.907926 1.57164,-0.243946 0.13036,-0.533576 0.50476,-1.843263 0.832,-2.910416 l 0.59497,-1.940278 0.17639,3.048512 0.17639,3.048511 2.46944,-1.001581 c 3.51672,-1.426341 3.74575,-1.281193 1.1915,0.755081 -1.23741,0.986469 -2.28658,1.899281 -2.33151,2.028472 -0.0449,0.129192 1.04185,0.841459 2.41504,1.582818 1.3732,0.741358 2.43985,1.404789 2.37035,1.474291 -0.0695,0.0695 -1.30423,-0.09807 -2.74383,-0.37237 -1.43961,-0.274305 -2.69353,-0.422676 -2.78649,-0.329713 -0.093,0.09296 0.0316,1.291367 0.27669,2.663119 0.24515,1.371752 0.3794,2.560416 0.29834,2.641476 -0.0811,0.08106 -0.6836,-0.961031 -1.33897,-2.315757 z M 31.309032,71.102086 c 0,-0.155066 0.555625,-0.281939 1.234722,-0.281939 0.679097,0 1.234722,0.06201 1.234722,0.137793 0,0.07579 -0.555625,0.202658 -1.234722,0.281939 -0.679097,0.07928 -1.234722,0.01727 -1.234722,-0.137793 z m 72.107748,-5.397217 c 5e-4,-2.910416 0.0551,-4.054098 0.12143,-2.541514 0.0663,1.512583 0.0659,3.893833 -9e-4,5.291666 -0.0668,1.397833 -0.12102,0.160265 -0.12053,-2.750152 z m 3.175,0 c 5e-4,-2.910416 0.0551,-4.054098 0.12143,-2.541514 0.0663,1.512583 0.0659,3.893833 -9e-4,5.291666 -0.0668,1.397833 -0.12102,0.160265 -0.12053,-2.750152 z m -75.282748,3.218196 c 0,-0.07326 0.277812,-0.351069 0.617361,-0.617361 0.559525,-0.43881 0.572003,-0.426332 0.133193,0.133193 -0.460858,0.587639 -0.750554,0.774516 -0.750554,0.484168 z m -1.411111,-1.416564 c 0,-0.07626 0.24637,-0.233186 0.547489,-0.348737 0.313946,-0.120472 0.455549,-0.06133 0.331958,0.138646 -0.207172,0.335211 -0.879447,0.495811 -0.879447,0.210091 z M 28.161883,64.26436 c 0.01693,-0.410966 0.10052,-0.494559 0.213136,-0.213136 0.101908,0.254661 0.08937,0.558932 -0.02785,0.676157 -0.117226,0.117225 -0.200604,-0.09113 -0.185286,-0.463021 z M 104.50187,49.918065 c -0.4129,-4.116535 -0.32724,-4.073307 -3.33425,-1.682524 -1.44592,1.149601 -2.687144,2.031983 -2.75828,1.960847 -0.07113,-0.07113 0.85982,-1.373327 2.06879,-2.89376 l 2.19812,-2.764424 -3.079021,-0.409531 c -1.693463,-0.225242 -3.152191,-0.482698 -3.241618,-0.572125 -0.08943,-0.08943 1.153196,-0.362844 2.761383,-0.607596 1.608186,-0.244751 3.047616,-0.515428 3.198716,-0.601503 0.15111,-0.08607 -0.33544,-0.898367 -1.08123,-1.805094 -0.74579,-0.906727 -1.734701,-2.194064 -2.197581,-2.860749 l -0.8416,-1.212154 1.690726,1.16325 c 0.929895,0.639787 2.222915,1.630516 2.873365,2.201619 l 1.18264,1.03837 0.2183,-1.342243 c 0.12006,-0.738234 0.41816,-2.294743 0.66243,-3.45891 l 0.44413,-2.116666 0.48299,3.263194 c 0.26564,1.794757 0.61478,3.263194 0.77586,3.263194 0.16108,0 1.32804,-0.813507 2.59325,-1.807793 1.26521,-0.994287 2.36303,-1.745136 2.43961,-1.668555 0.0766,0.07658 -0.73827,1.299015 -1.81079,2.716519 -1.07252,1.417504 -1.89594,2.619306 -1.82983,2.670671 0.0661,0.05136 1.54733,0.299543 3.29159,0.551507 3.49987,0.505568 3.35142,0.802943 -0.61003,1.22204 -1.30764,0.138341 -2.44902,0.367201 -2.5364,0.508578 -0.0874,0.141376 0.71969,1.359232 1.79348,2.706346 1.07379,1.347114 2.03589,2.584198 2.13801,2.749077 0.30682,0.495435 -0.99874,-0.340047 -3.42727,-2.193244 -2.29146,-1.748597 -2.29322,-1.749213 -2.53118,-0.883158 -0.13097,0.476662 -0.34791,1.891713 -0.48207,3.144557 -0.13417,1.252844 -0.36809,2.277899 -0.51982,2.277899 -0.15173,0 -0.39132,-1.150938 -0.53242,-2.557639 z"
         id="path2"
         sodipodi:nodetypes="sssssssssssssssssssssssssssssssssssssssssssssssssssssssssssssssssssccccccsscssssssssscccccsssssccsccsccssssssssssssssssscssscscccscssssssssssssscscscsscsssssscssscscccssssscsscccccsssssccccccscccsscssssscscsssssssscccssssscsssccsssssscsscccccssssscsssssscssssscsssssscsssssssssssssssssssssscssscssssssssssssssssscsssscccssssssscsssssssscssscsssssssssssssssssscsssssscsscsscsssssssssscsssss" /><path
         style="fill:#1e3750"
         d="m 98.513193,207.45839 c -3.4925,-4.57997 -8.695769,-11.35425 -11.56282,-15.05394 -2.867052,-3.69969 -5.135047,-6.92938 -5.039989,-7.1771 0.424535,-1.10632 -8.476367,-7.24852 -15.714215,-10.84383 -11.737381,-5.8304 -23.841908,-8.79431 -38.062137,-9.31989 -6.100258,-0.22546 -6.17498,-0.23783 -6.288886,-1.04134 -0.0634,-0.44724 0.09448,-1.06591 0.350846,-1.37481 0.406519,-0.48983 1.233225,-0.53362 6.465275,-0.34247 12.553644,0.45864 23.412877,3.07496 33.868596,8.15995 6.557682,3.18924 12.167923,6.9697 18.198457,12.26302 l 2.323458,2.03942 h 3.60823 3.60823 l -2.211819,-2.73403 C 77.823092,169.38392 63.642672,156.04443 49.653475,145.90777 33.470397,134.18141 12.242544,123.32014 -8.2020762,116.30586 c -1.8432638,-0.6324 -3.5498258,-1.30233 -3.7923608,-1.48874 -0.600686,-0.46168 -0.55643,-1.83421 0.07607,-2.35913 0.654557,-0.54324 4.5481231,0.71101 14.3727713,4.62994 36.7867587,14.6738 63.9926097,34.70437 84.8608447,62.47962 1.502204,1.9994 2.969405,3.99389 3.260447,4.43218 0.50608,0.76214 0.707899,0.79242 4.625998,0.69407 l 4.096831,-0.10283 -2.182858,-5.82083 C 90.774341,161.8603 84.536898,148.7846 75.059834,132.53397 65.549531,116.22635 51.751349,97.525975 38.437257,82.900197 c -2.715656,-2.9832 -3.274479,-3.788446 -3.182658,-4.586111 0.09061,-0.787115 0.308743,-0.986411 1.16971,-1.068684 0.961602,-0.09189 1.482873,0.375647 5.703187,5.115278 19.463897,21.85896 35.713047,46.50614 46.000397,69.77474 4.322545,9.77701 9.664898,24.34627 11.286566,30.77986 l 0.466841,1.85208 h 5.18571 5.18572 l 0.24499,-1.32292 c 0.36093,-1.94895 4.4255,-13.97843 6.64529,-19.66736 9.96068,-25.52754 21.99194,-45.99892 40.78035,-69.388445 6.24395,-7.773034 14.00624,-16.739539 14.94733,-17.266198 0.74513,-0.416996 1.96977,0.04276 2.22082,0.833749 0.26525,0.83573 0.51575,0.509044 -6.33609,8.263166 -24.80395,28.070248 -43.2442,58.842768 -56.24456,93.859168 l -1.73001,4.65977 4.13145,0.003 4.13144,0.003 2.06367,-2.89883 c 14.23431,-19.99481 32.56853,-36.43817 55.72244,-49.97561 10.80509,-6.31743 27.83543,-14.06542 40.68515,-18.5098 3.95121,-1.36662 4.99957,-1.30541 4.99957,0.29192 0,1.05134 -0.43135,1.37988 -2.82222,2.14952 -1.06715,0.34352 -4.95653,1.77768 -8.64306,3.18701 -29.22492,11.17246 -53.31707,26.37529 -74.03287,46.71684 -6.47888,6.36184 -16.8074,17.92542 -16.8074,18.81719 0,0.11636 1.62196,0.2058 3.60434,0.19876 l 3.60433,-0.0128 2.34009,-2.20752 c 10.77184,-10.1616 25.87965,-17.07611 42.48596,-19.44487 5.2014,-0.74194 14.30306,-1.07171 15.27167,-0.55332 0.85627,0.45826 1.03019,1.51904 0.33875,2.06605 -0.24254,0.19187 -3.06035,0.443 -6.26181,0.55805 -6.68671,0.24031 -10.10363,0.62927 -16.05138,1.82717 -9.66353,1.94627 -19.99265,5.94005 -27.95525,10.80896 -3.83776,2.34669 -9.20742,6.61594 -9.32923,7.41738 -0.10098,0.66437 -22.81569,30.60867 -23.21691,30.60633 -0.097,-5.6e-4 -3.03389,-3.74828 -6.526387,-8.32826 z m 6.035927,-43.94585 c -0.58386,-19.2646 -0.90015,-44.77089 -0.91005,-73.388843 -0.0116,-33.385653 -0.14103,-31.320024 1.93047,-30.800112 l 0.88115,0.221156 -0.007,31.831471 c -0.009,38.772698 -0.73287,80.338408 -1.39929,80.338408 -0.13551,0 -0.35824,-3.69093 -0.49497,-8.20208 z m -106.2526365,-13.81711 -0.3249491,-2.72478 -2.1136128,1.58592 c -1.162487,0.87226 -2.173484,1.52605 -2.24666,1.45287 -0.073176,-0.0732 0.6001373,-0.99124 1.4962517,-2.04016 0.8961144,-1.04891 1.629299,-2.00906 1.629299,-2.13366 0,-0.1246 -0.5953125,-0.2357 -1.3229166,-0.24688 -0.7276041,-0.0112 -1.9579165,-0.14362 -2.7340276,-0.2943 l -1.411111,-0.27397 1.7638888,-0.26832 c 0.9701388,-0.14758 2.2002828,-0.37233 2.7336533,-0.49945 l 0.9697645,-0.23113 -1.6158704,-2.05852 c -0.8887288,-1.13219 -1.5559823,-2.11842 -1.4827855,-2.19161 0.073197,-0.0732 1.0356742,0.57532 2.1388388,1.44116 1.1031647,0.86584 2.0694354,1.57425 2.1472683,1.57425 0.077833,0 0.2587968,-1.23031 0.4021421,-2.73403 0.2903044,-3.04534 0.6248299,-2.76285 1.04746642,0.88452 l 0.25578489,2.20744 2.25811839,-1.79684 c 1.241965,-0.98827 2.2581183,-1.70084 2.2581183,-1.58351 0,0.11734 -0.7120412,1.12055 -1.5823138,2.22937 -1.80075647,2.29435 -1.81956759,2.265 1.7587027,2.74446 l 2.1166665,0.28363 -1.411111,0.27326 c -0.7761111,0.15029 -2.0064235,0.28241 -2.7340276,0.29359 -0.7276041,0.0112 -1.32291654,0.11736 -1.32291654,0.23595 0,0.1186 0.59952814,0.95204 1.33228464,1.85209 2.3848396,2.92932 2.4361324,3.06366 0.6977738,1.82758 -0.9207594,-0.65472 -1.9375511,-1.4815 -2.25953713,-1.83729 -0.90861346,-1.004 -1.11193928,-0.80055 -1.38068302,1.38158 -0.42147135,3.42224 -0.71147345,3.59861 -1.06350005,0.64678 z m 212.7673965,0.0588 c -0.15063,-1.50372 -0.33282,-2.73403 -0.40487,-2.73403 -0.072,0 -1.07034,0.71438 -2.21843,1.5875 -1.14808,0.87313 -2.19744,1.5875 -2.3319,1.5875 -0.13446,0 0.56498,-0.93437 1.55432,-2.07637 0.98934,-1.14201 1.7988,-2.17389 1.7988,-2.29306 0,-0.11917 -0.67469,-0.22583 -1.49931,-0.23701 -0.82462,-0.0112 -2.13431,-0.13985 -2.91042,-0.28592 l -1.41111,-0.26559 2.11667,-0.2694 c 4.06597,-0.51748 3.94854,-0.33911 1.90985,-2.90116 -0.98682,-1.24015 -1.72027,-2.25482 -1.62989,-2.25482 0.0904,0 1.08429,0.71437 2.2087,1.5875 1.12441,0.87312 2.15674,1.5875 2.29405,1.5875 0.13732,0 0.36235,-1.20243 0.50007,-2.67207 0.13771,-1.46964 0.3115,-2.61096 0.38619,-2.53627 0.0747,0.0747 0.28858,1.21462 0.47532,2.53318 0.18673,1.31856 0.41976,2.47764 0.51786,2.57573 0.0981,0.0981 0.94111,-0.4277 1.87337,-1.16843 3.24882,-2.58135 3.34773,-2.51715 0.81347,0.52807 l -1.7635,2.11907 1.14614,0.17649 c 0.63038,0.0971 1.9399,0.31477 2.91003,0.48378 l 1.76389,0.30729 -2.73402,0.27914 c -1.50372,0.15352 -2.73403,0.41878 -2.73403,0.58945 0,0.17067 0.52011,0.90608 1.1558,1.63425 0.63569,0.72816 1.38975,1.63869 1.67569,2.02339 0.51566,0.69377 0.51127,0.69405 -0.53844,0.0343 -0.58208,-0.36584 -1.64316,-1.1222 -2.35795,-1.6808 l -1.29962,-1.01563 -0.21458,1.68689 c -0.11802,0.92779 -0.34141,2.16314 -0.49643,2.74522 -0.23631,0.88736 -0.32609,0.61664 -0.55572,-1.67569 z M 97.631249,142.03009 c 0,-0.0928 -0.638017,-3.81021 -1.417815,-8.26088 -3.095824,-17.6693 -6.576854,-32.95027 -10.592407,-46.498387 -1.957316,-6.60381 -1.996704,-7.327955 -0.411461,-7.564653 1.100117,-0.164261 1.601,0.896758 3.382603,7.165364 3.654324,12.857814 6.370236,26.214296 7.962469,39.158326 0.874009,7.10525 1.566164,15.67943 1.28817,15.95743 -0.116358,0.11635 -0.211559,0.13562 -0.211559,0.0428 z m 14.612861,-2.94745 c 1.29326,-17.55181 4.58019,-36.00626 9.42501,-52.916661 0.77825,-2.716389 1.64488,-5.296076 1.92586,-5.732639 0.59237,-0.920385 1.62131,-1.032334 2.27284,-0.247285 0.37744,0.454784 0.11964,1.712472 -1.53663,7.496527 -4.22903,14.768698 -6.7036,25.708608 -10.30072,45.538798 -0.85827,4.73144 -1.66394,8.70019 -1.79039,8.81944 -0.12645,0.11925 -0.12464,-1.21193 0.004,-2.95818 z M 68.359872,90.902074 c -0.005,-0.111537 0.387698,-1.369654 0.872768,-2.795818 0.485069,-1.426163 0.881944,-2.697726 0.881944,-2.825695 0,-0.12797 -1.209056,0.06661 -2.686791,0.432405 -1.477736,0.365793 -2.743224,0.608645 -2.812197,0.539673 -0.06897,-0.06897 0.994183,-0.73012 2.362569,-1.469216 l 2.487973,-1.343812 -2.346157,-1.405093 c -1.290387,-0.772801 -2.271077,-1.480173 -2.179313,-1.571937 0.09176,-0.09176 1.238221,0.16407 2.547682,0.568522 1.30946,0.404451 2.442229,0.673974 2.517263,0.59894 0.07503,-0.07503 -0.185074,-1.296593 -0.578017,-2.714575 -0.392943,-1.417983 -0.64832,-2.644273 -0.567504,-2.725089 0.08082,-0.08082 0.48339,0.51256 0.894608,1.318614 0.411218,0.806054 1.047157,1.958022 1.413197,2.559927 l 0.665529,1.094375 1.480512,-2.361271 c 0.814281,-1.298699 1.528966,-2.312817 1.588187,-2.253596 0.05922,0.05922 -0.279373,1.289323 -0.752433,2.733559 -0.473059,1.444236 -0.860108,2.65493 -0.860108,2.69043 0,0.0355 1.208721,-0.245099 2.686048,-0.623555 1.477326,-0.378456 2.766039,-0.60811 2.863806,-0.510343 0.09777,0.09777 -0.87283,0.695826 -2.156881,1.329021 -1.284052,0.633194 -2.33464,1.255974 -2.33464,1.383954 0,0.12798 1.071563,0.886685 2.38125,1.686011 2.74161,1.673254 2.558058,1.792976 -0.936346,0.610735 -1.376781,-0.465797 -2.503237,-0.731728 -2.503237,-0.590956 0,0.140772 0.388935,1.399466 0.864301,2.797098 1.009083,2.966829 0.733707,2.972848 -1.058153,0.02313 -0.711413,-1.171112 -1.389791,-2.032981 -1.507506,-1.915265 -0.117716,0.117716 -0.890188,1.277962 -1.716603,2.578325 -0.826416,1.300364 -1.506704,2.27304 -1.511751,2.161504 z M 26.733903,76.927454 c -0.006,-0.230495 0.234938,-1.47947 0.535508,-2.775501 0.30057,-1.29603 0.47673,-2.426179 0.391468,-2.511441 -0.08526,-0.08526 -1.401356,0.08031 -2.924654,0.367939 -1.523297,0.287628 -2.811127,0.481464 -2.861845,0.430747 -0.05072,-0.05072 1.098832,-0.704926 2.554553,-1.453797 1.455721,-0.748871 2.637312,-1.449597 2.625758,-1.557169 -0.01155,-0.107572 -1.064757,-1.029023 -2.340452,-2.047668 -1.275695,-1.018646 -2.161324,-1.852084 -1.968065,-1.852084 0.193259,0 1.401727,0.47625 2.685484,1.058334 1.283757,0.582083 2.400442,1.058333 2.481522,1.058333 0.08108,0 0.265105,-1.309687 0.408947,-2.910416 l 0.261529,-2.910417 0.664932,2.800623 c 0.365712,1.540343 0.732096,2.867788 0.814186,2.949878 0.08209,0.08209 0.832643,-0.401962 1.667895,-1.075671 0.835252,-0.67371 1.99489,-1.524905 2.576974,-1.891545 l 1.058333,-0.666618 -1.208842,1.587499 c -0.664863,0.873125 -1.596625,2.012841 -2.070583,2.532702 l -0.861741,0.945202 1.541416,0.398646 c 0.847779,0.219255 2.255792,0.610823 3.128916,0.870151 l 1.5875,0.471506 -3.086805,0.03673 c -1.697743,0.0202 -3.086805,0.11959 -3.086805,0.220865 0,0.101274 0.47625,1.234481 1.058333,2.518238 0.582083,1.283758 1.058333,2.491083 1.058333,2.682945 0,0.191862 -0.8577,-0.69754 -1.906,-1.976448 l -1.906,-2.325289 -1.434406,2.721404 c -0.788924,1.496772 -1.439349,2.532816 -1.445389,2.302322 z"
         id="path1"
         sodipodi:nodetypes="sssssssssscccssssssssscsssssssscccssssssscccssssssssscsssssssssssccsccsccscsssssscsscsssssscsssscsssssssssssssssscsssssssssssccscsssssscsssssssssssssssssssssssssscsssssssscssssssssssssssssscssssssssssscsssscsscsscssssscsc" /></g></g></svg>
