<?xml version="1.0" encoding="UTF-8" standalone="no"?>
<!-- Created with Inkscape (http://www.inkscape.org/) -->

<svg
   width="224.77492mm"
   height="202.88243mm"
   viewBox="0 0 224.77492 202.88243"
   version="1.1"
   id="svg1"
   xml:space="preserve"
   inkscape:version="1.4.2 (f4327f4, 2025-05-13)"
   sodipodi:docname="icon-technique-constructor.svg"
   xmlns:inkscape="http://www.inkscape.org/namespaces/inkscape"
   xmlns:sodipodi="http://sodipodi.sourceforge.net/DTD/sodipodi-0.dtd"
   xmlns="http://www.w3.org/2000/svg"
   xmlns:svg="http://www.w3.org/2000/svg"><sodipodi:namedview
     id="namedview1"
     pagecolor="#ffffff"
     bordercolor="#000000"
     borderopacity="0.25"
     inkscape:showpageshadow="2"
     inkscape:pageopacity="0.0"
     inkscape:pagecheckerboard="0"
     inkscape:deskcolor="#d1d1d1"
     inkscape:document-units="mm"
     inkscape:zoom="0.72604517"
     inkscape:cx="430.41399"
     inkscape:cy="434.54596"
     inkscape:window-width="1920"
     inkscape:window-height="1017"
     inkscape:window-x="-8"
     inkscape:window-y="-8"
     inkscape:window-maximized="1"
     inkscape:current-layer="layer1" /><defs
     id="defs1" /><g
     inkscape:label="Слой 1"
     inkscape:groupmode="layer"
     id="layer1"
     transform="translate(8.6965626,-33.347824)"><g
       id="g1"
       transform="translate(-0.72883589,-13.483436)"><path
         style="fill:#019ee2"
         d="m 84.649027,249.25513 c -0.320056,-0.32005 -0.423333,-5.70178 -0.423333,-22.05968 0,-20.27917 0.03872,-21.65144 0.617361,-21.87703 0.339549,-0.13238 9.918785,-0.24646 21.287195,-0.25351 17.01415,-0.0106 20.77329,0.0728 21.25486,0.47134 0.5331,0.4412 0.58503,2.38397 0.58503,21.88986 0,16.1785 -0.10338,21.50907 -0.42334,21.82902 -0.61141,0.61141 -42.286361,0.61141 -42.897773,0 z m 91.246243,-46.05388 c -8.26213,-0.0886 -9.42768,-0.16974 -9.61946,-0.6695 -0.2432,-0.63377 -0.0313,-1.0409 8.32791,-16.0005 3.19838,-5.72382 6.29399,-11.28007 6.87913,-12.34722 5.61461,-10.23973 8.7887,-15.81346 9.33895,-16.39927 0.51606,-0.5494 0.79035,-0.61819 1.27059,-0.31864 0.5913,0.36882 2.65615,3.88014 6.47817,11.01625 2.71587,5.07081 8.99737,16.49324 13.93493,25.3396 4.18939,7.5059 4.71583,8.67837 4.07457,9.07469 -0.3692,0.22818 -28.30786,0.43734 -40.68479,0.30459 z M 10.142367,202.88872 c -7.9969518,-1.52574 -14.8171115,-7.57294 -17.3843017,-15.41407 -0.5508538,-1.6825 -0.7158721,-3.14139 -0.7252158,-6.41146 -0.010467,-3.66309 0.1149483,-4.61722 0.9310481,-7.08321 2.4501696,-7.40364 8.0433744,-12.52259 15.943747,-14.59186 2.0684214,-0.54176 8.4931004,-0.45189 10.7597214,0.15051 7.29572,1.93899 13.133436,7.63343 15.737181,15.35095 0.49883,1.47854 0.650594,2.94771 0.637727,6.17361 -0.01453,3.64287 -0.145499,4.59424 -0.938981,6.82082 -2.389288,6.70456 -7.21598,11.58221 -13.939602,14.08677 -1.904538,0.70944 -3.151244,0.90586 -6.258825,0.98606 -2.134305,0.0551 -4.27743,0.0244 -4.762499,-0.0681 z m 94.103463,-28.2481 c 0.43656,-0.0841 1.15094,-0.0841 1.5875,0 0.43656,0.0841 0.0794,0.15288 -0.79375,0.15288 -0.87312,0 -1.23031,-0.0688 -0.79375,-0.15288 z m 19.49097,-12.23145 c 0,-0.0733 0.27781,-0.35107 0.61736,-0.61736 0.55953,-0.43881 0.57201,-0.42633 0.1332,0.13319 -0.46086,0.58764 -0.75056,0.77452 -0.75056,0.48417 z M 50.711808,90.374268 C 43.654585,88.527369 37.933637,83.392325 35.29228,76.533913 c -1.319066,-3.425021 -1.534135,-9.02302 -0.50327,-13.099538 1.543593,-6.104084 5.709462,-11.259827 11.358552,-14.057516 3.07874,-1.524734 7.102008,-2.545599 10.032301,-2.545599 5.224725,0 11.197277,2.403545 15.204951,6.118956 4.530756,4.200347 6.843658,9.543117 6.843658,15.808748 0,4.178036 -0.634119,6.958302 -2.320717,10.175071 -4.02001,7.667178 -11.272794,12.030846 -19.89719,11.971227 -1.847164,-0.01277 -4.231604,-0.251717 -5.298757,-0.530994 z"
         id="path2" /><path
         style="fill:#1e3b54"
         d="m 103.00665,187.40064 0.0927,-12.53617 2.91042,-0.1601 2.91042,-0.1601 v 12.69627 12.69626 h -3.00307 -3.00307 z m 68.17876,-17.83731 c -10.40873,-7.08344 -22.64512,-12.80514 -34.39583,-16.08339 -0.78468,-0.21891 -1.19014,-0.52672 -1.1124,-0.8445 0.0673,-0.27501 0.31803,-1.5319 0.55723,-2.79308 0.42533,-2.24252 0.45762,-2.29055 1.46518,-2.1793 1.524,0.16826 9.28701,2.7319 13.73027,4.53425 7.88561,3.1987 17.66162,8.58662 25.13654,13.85369 l 2.55877,1.80299 -1.32405,2.45348 c -0.72822,1.34941 -1.48279,2.43623 -1.67682,2.41516 -0.19403,-0.0211 -2.41653,-1.44276 -4.93889,-3.1593 z m -127.315578,-0.6429 c -5.657121,-1.49203 -6.417437,-1.78206 -7.320139,-2.79236 -1.321562,-1.47908 -1.280558,-2.42186 0.271881,-6.25118 0.703565,-1.73545 1.897183,-4.81304 2.652486,-6.8391 0.755302,-2.02606 1.633012,-3.97075 1.950466,-4.32153 0.70266,-0.77643 2.503692,-0.83152 3.536409,-0.10818 1.273152,0.89175 1.312523,2.27352 0.162477,5.70245 -0.574902,1.7141 -0.997877,3.16627 -0.939945,3.22704 0.05793,0.0608 1.352071,-0.51482 2.875864,-1.27909 7.323631,-3.67321 16.471915,-7.17517 23.711235,-9.07664 4.624658,-1.21471 4.498736,-1.24552 4.746588,1.16122 0.114894,1.11566 0.309218,2.36658 0.431833,2.77982 0.198414,0.66871 0.01592,0.79975 -1.659206,1.19136 -6.784815,1.58615 -16.131152,5.08403 -23.633785,8.84499 l -4.331464,2.17129 3.421014,1.11595 c 3.512237,1.1457 4.462598,1.85009 4.48282,3.32256 0.01237,0.90047 -0.58379,2.21371 -1.188121,2.61723 -0.776854,0.51872 -2.982823,0.16611 -9.170413,-1.46583 z m 58.339688,0.33349 c -8.511513,-1.09874 -16.87114,-7.58057 -20.060547,-15.5544 -5.030706,-12.57725 0.827046,-27.26011 13.061887,-32.74052 3.443915,-1.54265 6.9864,-2.26649 11.042,-2.25622 6.89839,0.0175 12.83172,2.47642 17.66033,7.31895 4.91178,4.92594 7.17489,9.93813 7.49015,16.58869 0.38675,8.1585 -2.11707,14.48945 -7.88975,19.94936 -5.68402,5.37605 -13.20583,7.73954 -21.30407,6.69414 z m 22.75166,-49.4347 c -1.15848,-0.95471 -2.15402,-1.8769 -2.21231,-2.0493 -0.0583,-0.17241 1.44984,-1.65581 3.35139,-3.29645 9.60297,-8.28537 20.166,-15.3991 30.70946,-20.681459 1.98878,-0.996398 3.61597,-1.876617 3.61597,-1.956043 0,-0.07943 -1.07156,-0.496726 -2.38125,-0.927335 -3.74224,-1.230399 -4.93677,-1.94088 -5.18825,-3.085838 -0.41951,-1.910034 0.79501,-3.597094 2.58957,-3.597094 1.05099,0 13.69622,4.084598 14.71812,4.754173 1.60411,1.051053 1.71327,1.887493 0.64955,4.977169 -1.92864,5.601921 -4.79241,12.332567 -5.50346,12.934627 -1.04822,0.88756 -2.63723,0.77982 -3.6656,-0.24855 -1.17471,-1.17471 -1.09671,-2.09587 0.50903,-6.01168 0.75622,-1.844131 1.20599,-3.352962 0.99951,-3.352962 -0.59267,0 -8.79707,4.398762 -13.57609,7.278772 -7.30311,4.40112 -13.07175,8.68397 -20.44384,15.17827 l -2.06548,1.81955 z m -39.188439,-5.00856 c -3.086352,-5.17085 -8.426625,-12.82758 -12.443172,-17.840657 -1.768241,-2.206953 -3.214985,-4.122837 -3.214985,-4.25752 0,-0.269096 4.610809,-3.663281 4.731705,-3.483181 0.04123,0.06142 1.497804,1.937301 3.23683,4.168621 4.006708,5.140952 6.215197,8.170057 8.893098,12.197537 2.380145,3.57966 6.044987,9.55568 6.166297,10.05498 0.04346,0.17886 -1.066459,0.95189 -2.466481,1.71783 l -2.545494,1.39263 z"
         id="path1" /></g></g></svg>
