<?xml version="1.0" encoding="UTF-8" standalone="no"?>
<!-- Created with Inkscape (http://www.inkscape.org/) -->

<svg
   width="161.51266mm"
   height="157.49068mm"
   viewBox="0 0 161.51266 157.49068"
   version="1.1"
   id="svg1"
   xml:space="preserve"
   inkscape:version="1.4.2 (f4327f4, 2025-05-13)"
   sodipodi:docname="icon-technique-peak.svg"
   xmlns:inkscape="http://www.inkscape.org/namespaces/inkscape"
   xmlns:sodipodi="http://sodipodi.sourceforge.net/DTD/sodipodi-0.dtd"
   xmlns="http://www.w3.org/2000/svg"
   xmlns:svg="http://www.w3.org/2000/svg"><sodipodi:namedview
     id="namedview1"
     pagecolor="#ffffff"
     bordercolor="#000000"
     borderopacity="0.25"
     inkscape:showpageshadow="2"
     inkscape:pageopacity="0.0"
     inkscape:pagecheckerboard="0"
     inkscape:deskcolor="#d1d1d1"
     inkscape:document-units="mm"
     inkscape:zoom="0.72604517"
     inkscape:cx="305.07744"
     inkscape:cy="296.81349"
     inkscape:window-width="1920"
     inkscape:window-height="1017"
     inkscape:window-x="-8"
     inkscape:window-y="-8"
     inkscape:window-maximized="1"
     inkscape:current-layer="layer1" /><defs
     id="defs1" /><g
     inkscape:label="Слой 1"
     inkscape:groupmode="layer"
     id="layer1"
     transform="translate(-24.313029,-69.932359)"><g
       id="g1"><path
         style="fill:#0da4e2"
         d="m 104.33403,184.63417 c 0,-0.0733 0.27781,-0.35107 0.61736,-0.61736 0.55952,-0.43881 0.572,-0.42634 0.13319,0.13319 -0.46086,0.58764 -0.75055,0.77451 -0.75055,0.48417 z m -2.16167,-17.77028 c -0.43881,-0.55953 -0.42633,-0.572 0.13319,-0.13319 0.33955,0.26629 0.61736,0.5441 0.61736,0.61736 0,0.29035 -0.28969,0.10347 -0.75055,-0.48417 z m -35.422426,-18.16806 -1.750627,-1.85208 1.852083,1.75063 c 1.720989,1.62671 2.013867,1.95354 1.750627,1.95354 -0.0558,0 -0.889238,-0.83344 -1.852083,-1.85209 z m -3.735904,-3.70416 c -0.438809,-0.55953 -0.426332,-0.572 0.133194,-0.13319 0.339548,0.26629 0.617361,0.5441 0.617361,0.61736 0,0.29034 -0.289696,0.10347 -0.750555,-0.48417 z m 49.94568,-43.79479 c -1.54267,-0.93608 -3.96418,-2.423998 -5.38114,-3.306476 l -2.57629,-1.604507 -2.18621,1.361635 c -5.411301,3.370308 -8.040771,4.922608 -8.338508,4.922608 -0.176926,0 0.378384,-2.659058 1.234022,-5.909023 L 97.26729,90.75209 95.928193,89.517367 c -0.736503,-0.679097 -2.797737,-2.470684 -4.58052,-3.981303 -1.782783,-1.51062 -3.241424,-2.880451 -3.241424,-3.044068 0,-0.163617 2.500313,-0.40672 5.55625,-0.540228 3.055937,-0.133508 5.823125,-0.318717 6.149307,-0.411575 0.387414,-0.11029 1.355644,-2.125743 2.792294,-5.812411 1.20959,-3.103968 2.30841,-5.711045 2.44183,-5.793505 0.13343,-0.08246 1.28866,2.504065 2.56719,5.747832 l 2.3246,5.897759 6.19398,0.30878 c 3.4067,0.169828 6.19399,0.416442 6.19399,0.548029 0,0.131588 -2.06375,1.962455 -4.58611,4.068593 -2.52236,2.106139 -4.58611,4.049481 -4.58611,4.318539 0,0.269057 0.64175,3.04176 1.42611,6.16156 0.78436,3.119801 1.37186,5.726621 1.30555,5.792931 -0.0663,0.0663 -1.38275,-0.64533 -2.92542,-1.58142 z"
         id="path2" /><path
         style="fill:#1b3854"
         d="m 31.929847,226.6441 c -0.725704,-0.42797 -1.321017,-0.94869 -1.322917,-1.15715 -0.0019,-0.20846 0.981789,-1.87454 2.185974,-3.70241 2.638368,-4.00486 7.947652,-9.43137 12.627238,-12.90603 2.984223,-2.21584 9.212023,-6.15548 11.112499,-7.02967 0.44439,-0.20441 -5.409635,-0.35848 -15.815034,-0.41624 -9.086324,-0.0504 -16.468198,-0.20918 -16.404165,-0.35278 0.132524,-0.29718 7.323685,-10.98373 12.87605,-19.13468 2.048638,-3.00743 8.412727,-12.45306 14.142418,-20.99028 5.729692,-8.53722 10.614611,-15.7364 10.855376,-15.99818 0.359186,-0.39054 1.216008,0.32177 4.773918,3.96875 2.38489,2.44459 4.441269,4.44471 4.569732,4.44471 0.128462,0 2.90837,-4.08781 6.177574,-9.08403 13.826074,-21.12993 27.07448,-41.01041 27.32944,-41.01041 0.27015,0 13.86307,20.39248 26.45431,39.6875 3.54523,5.43277 6.58716,10.03141 6.75983,10.21919 0.19395,0.21093 2.05968,-1.40044 4.8816,-4.2161 2.51222,-2.50664 4.62608,-4.4859 4.69747,-4.39836 0.0714,0.0875 1.23956,1.82603 2.59593,3.86332 4.78135,7.18168 20.09316,29.94425 27.70033,41.17937 4.23405,6.25331 7.69827,11.45237 7.69827,11.55347 0,0.1011 -16.37035,0.18382 -36.37856,0.18382 h -36.37855 l -3.57899,2.60824 c -4.96146,3.61572 -8.75533,7.66337 -10.370252,11.06395 -1.125024,2.36898 -1.274567,3.00879 -1.291993,5.52775 -0.01084,1.56677 0.110165,3.50475 0.268899,4.30663 l 0.288606,1.45796 -1.655572,0.56411 c -0.910564,0.31026 -1.783819,0.48485 -1.940566,0.38797 -0.608755,-0.37623 -1.121987,-4.29732 -0.921859,-7.043 0.370369,-5.08128 2.411428,-9.35951 6.520457,-13.6674 2.253,-2.36203 7.65301,-6.54134 15.35404,-11.88316 7.67472,-5.32358 10.4649,-8.34034 10.4649,-11.31471 0,-3.81331 -4.01294,-6.86782 -15.86573,-12.07643 -4.63564,-2.03709 -6.17342,-2.89221 -7.5058,-4.17376 -2.939079,-2.82696 -1.98416,-4.88173 3.59037,-7.72564 l 1.54612,-0.78877 -1.34767,-0.59459 -1.34768,-0.5946 -4.96883,2.5699 c -5.560782,2.87606 -7.261892,4.32781 -7.261892,6.19739 0,1.54591 1.460829,2.92244 6.702777,6.31598 5.900335,3.81977 7.534745,6.01693 6.721755,9.03614 -0.9053,3.36205 -6.05471,6.34381 -19.598143,11.34828 -12.485374,4.6135 -16.522825,6.29709 -23.812498,9.92966 -6.598466,3.28812 -13.569254,7.54035 -16.933332,10.32945 -3.799533,3.15012 -7.791952,7.49996 -9.933123,10.82237 -1.23074,1.90972 -2.396459,3.47186 -2.590487,3.47141 -0.194028,-4.4e-4 -0.946536,-0.35097 -1.67224,-0.77894 z M 105.9139,133.79097 c 1.33848,-2.23131 2.54894,-4.05694 2.68992,-4.05694 0.14098,0 1.65888,1.17622 3.37312,2.61382 l 3.11681,2.61382 1.48349,-1.64368 c 0.81593,-0.90403 1.49061,-1.77026 1.49931,-1.92496 0.02,-0.35549 -12.79213,-19.63505 -13.05432,-19.64403 -0.33758,-0.0116 -15.216372,22.62445 -15.008092,22.83273 0.05434,0.0543 1.694362,-0.85541 3.644491,-2.02167 1.95013,-1.16626 3.686293,-2.12047 3.85814,-2.12047 0.171847,0 1.478374,1.66687 2.903391,3.70416 1.42502,2.03729 2.69652,3.70417 2.82555,3.70417 0.12903,0 1.32971,-1.82563 2.66819,-4.05695 z"
         id="path1" /></g></g></svg>
