<?xml version="1.0" encoding="UTF-8" standalone="no"?>
<!-- Created with Inkscape (http://www.inkscape.org/) -->

<svg
   width="179.06453mm"
   height="167.85757mm"
   viewBox="0 0 179.06453 167.85757"
   version="1.1"
   id="svg1"
   xml:space="preserve"
   inkscape:version="1.4.2 (f4327f4, 2025-05-13)"
   sodipodi:docname="icon-technique-witness.svg"
   xmlns:inkscape="http://www.inkscape.org/namespaces/inkscape"
   xmlns:sodipodi="http://sodipodi.sourceforge.net/DTD/sodipodi-0.dtd"
   xmlns="http://www.w3.org/2000/svg"
   xmlns:svg="http://www.w3.org/2000/svg"><sodipodi:namedview
     id="namedview1"
     pagecolor="#ffffff"
     bordercolor="#000000"
     borderopacity="0.25"
     inkscape:showpageshadow="2"
     inkscape:pageopacity="0.0"
     inkscape:pagecheckerboard="0"
     inkscape:deskcolor="#d1d1d1"
     inkscape:document-units="mm"
     inkscape:zoom="0.72604517"
     inkscape:cx="294.05884"
     inkscape:cy="411.13144"
     inkscape:window-width="1920"
     inkscape:window-height="1017"
     inkscape:window-x="-8"
     inkscape:window-y="-8"
     inkscape:window-maximized="1"
     inkscape:current-layer="layer1" /><defs
     id="defs1" /><g
     inkscape:label="Слой 1"
     inkscape:groupmode="layer"
     id="layer1"
     transform="translate(-27.366466,-39.81855)"><g
       id="g1"><path
         style="fill:#0ea1e1"
         d="m 94.131322,205.02268 c 0.01693,-0.41096 0.100521,-0.49456 0.213137,-0.21313 0.101907,0.25466 0.08937,0.55893 -0.02785,0.67615 -0.117225,0.11723 -0.200604,-0.0911 -0.185287,-0.46302 z m 34.107718,-2.64227 c -0.33716,-0.19644 -0.78343,-0.67555 -0.99169,-1.06469 -0.62285,-1.16381 -9.24638,-28.61596 -9.41327,-29.96621 -0.21513,-1.74053 0.79925,-2.95104 2.47291,-2.95104 0.68597,0 1.49258,0.20364 1.79246,0.45252 0.81349,0.67514 10.10402,29.56311 10.10402,31.41745 0,1.71945 -2.42279,3.01014 -3.96443,2.11197 z m 30.49636,-13.6443 c -0.39056,-0.33955 -3.37606,-4.50674 -6.63443,-9.26042 -3.25837,-4.75368 -7.26758,-10.54805 -8.90935,-12.87638 -1.64177,-2.32834 -3.14945,-4.65871 -3.35039,-5.17861 -0.73301,-1.89655 1.08986,-3.76656 3.16412,-3.24596 1.12887,0.28333 3.31574,3.2747 17.36262,23.74991 2.88165,4.2004 3.18037,5.45269 1.59764,6.69766 -1.13596,0.89355 -2.28668,0.93409 -3.23021,0.1138 z M 99.422988,175.03657 c 0.01693,-0.41096 0.100521,-0.49456 0.213137,-0.21313 0.101907,0.25466 0.08937,0.55893 -0.02785,0.67615 -0.117225,0.11723 -0.200604,-0.0911 -0.185287,-0.46302 z m 82.313692,-7.97146 c -5.07845,-3.52257 -11.55161,-7.98499 -17.78321,-12.25928 -3.20146,-2.1959 -6.01927,-4.24134 -6.26181,-4.54543 -1.15721,-1.4509 0.25486,-4.29859 2.13151,-4.29859 0.50658,0 3.70237,1.98251 8.04173,4.98871 3.96058,2.74379 9.97919,6.89778 13.37468,9.2311 3.39548,2.33331 6.29407,4.41433 6.44131,4.62448 0.99997,1.42728 0.51256,3.34509 -1.02862,4.04729 -1.34343,0.61211 -1.57797,0.52679 -4.91559,-1.78828 z m -86.133903,-9.36154 c 0.533576,-0.0808 1.406701,-0.0808 1.940277,0 0.533576,0.0808 0.09701,0.14697 -0.970139,0.14697 -1.067152,0 -1.503715,-0.0661 -0.970138,-0.14697 z m -2.537126,-2.59924 c -12.571502,-1.51998 -22.538848,-9.57025 -26.439863,-21.35454 -2.592279,-7.83081 -2.116581,-15.69104 1.413939,-23.36333 1.794199,-3.89903 3.916797,-6.80782 7.216395,-9.88928 5.944748,-5.551743 13.139868,-8.290006 21.669571,-8.246842 19.011157,0.0962 33.342067,17.032782 30.669737,36.246132 -1.24238,8.93239 -6.9928,17.54221 -14.92417,22.34524 -5.62504,3.40638 -13.15209,5.0429 -19.605609,4.26262 z m 8.826059,-7.17717 c 13.37382,-2.83502 21.89563,-16.86463 18.48071,-30.42511 -0.2847,-1.13053 -1.18677,-3.40489 -2.00458,-5.05413 -1.19255,-2.40492 -2.11786,-3.6306 -4.67358,-6.19071 -2.61482,-2.6193 -3.73156,-3.4567 -6.22352,-4.66675 -3.90518,-1.896284 -6.6947,-2.536408 -11.081304,-2.542879 -10.598858,-0.01563 -20.025452,6.779279 -23.310739,16.802929 -0.935222,2.85343 -1.023062,3.55126 -1.014896,8.06269 0.0081,4.48883 0.09889,5.19575 0.996114,7.75772 3.574352,10.2064 12.55109,16.69268 23.160223,16.73478 1.843263,0.007 4.395472,-0.20803 5.671572,-0.47854 z M 82.064029,137.58334 c -0.43881,-0.55953 -0.426332,-0.57201 0.133193,-0.1332 0.587639,0.46086 0.774516,0.75056 0.484168,0.75056 -0.07326,0 -0.351069,-0.27782 -0.617361,-0.61736 z m -5.571595,-12.64121 c 0.01693,-0.41096 0.100521,-0.49456 0.213137,-0.21313 0.101907,0.25466 0.08937,0.55893 -0.02785,0.67615 -0.117225,0.11723 -0.200604,-0.0911 -0.185287,-0.46302 z m 21.166665,-12.7 c 0.01693,-0.41096 0.100521,-0.49455 0.213137,-0.21313 0.101907,0.25466 0.08937,0.55893 -0.02785,0.67615 -0.117225,0.11723 -0.200604,-0.0911 -0.185287,-0.46302 z m -15.550071,-2.44004 c 0.455699,-0.48507 0.907918,-0.88195 1.004932,-0.88195 0.09701,0 -0.196456,0.39688 -0.652155,0.88195 -0.455699,0.48507 -0.907918,0.88194 -1.004932,0.88194 -0.09701,0 0.196456,-0.39687 0.652155,-0.88194 z m 68.438882,32.80833 c 0.4557,-0.48507 0.90792,-0.88195 1.00493,-0.88195 0.097,0 -0.19645,0.39688 -0.65215,0.88195 -0.4557,0.48507 -0.90792,0.88194 -1.00493,0.88194 -0.097,0 0.19645,-0.39687 0.65215,-0.88194 z m -109.218231,-0.61736 -0.672037,-0.79375 0.79375,0.67203 c 0.745929,0.63155 0.954349,0.91547 0.672037,0.91547 -0.06694,0 -0.424129,-0.35719 -0.79375,-0.79375 z M 142.7868,138.0675 c 0,-0.0733 0.27781,-0.35106 0.61736,-0.61736 0.55953,-0.43881 0.572,-0.42633 0.13319,0.1332 -0.46085,0.58763 -0.75055,0.77451 -0.75055,0.48416 z m 1.41111,-1.3883 c 0,-0.0607 0.51594,-0.57665 1.14653,-1.14653 l 1.14653,-1.03614 -1.03614,1.14653 c -0.96583,1.06872 -1.25692,1.30868 -1.25692,1.03614 z m 40.84034,-9.67028 c 0.63407,-0.0785 1.58657,-0.0769 2.11667,0.004 0.5301,0.0805 0.0113,0.14473 -1.15285,0.14275 -1.16416,-0.002 -1.59788,-0.0678 -0.96382,-0.14635 z m 3.89629,0.0147 c 0.25466,-0.10191 0.55893,-0.0894 0.67616,0.0279 0.11722,0.11723 -0.0911,0.2006 -0.46302,0.18529 -0.41097,-0.0169 -0.49456,-0.10052 -0.21314,-0.21314 z m -44.38385,-15.8104 c -0.85691,-0.87313 -1.47864,-1.5875 -1.38163,-1.5875 0.097,0 0.8775,0.71437 1.73441,1.5875 0.8569,0.87312 1.47864,1.5875 1.38162,1.5875 -0.097,0 -0.87749,-0.71438 -1.7344,-1.5875 z m 7.56253,-4.8507 -1.03614,-1.14652 1.14653,1.03614 c 1.06872,0.96583 1.30868,1.25691 1.03614,1.25691 -0.0607,0 -0.57665,-0.51593 -1.14653,-1.14653 z m -109.882821,-1.7639 c 1.461898,-1.55758 1.778632,-1.83766 1.778632,-1.57276 0,0.0566 -0.754063,0.81068 -1.675695,1.67569 l -1.675694,1.57276 z m 116.078621,-0.61736 c -0.42159,-0.4216 -0.70555,-1.17593 -0.70555,-1.87428 0,-1.39112 0.77879,-2.194703 4.58611,-4.732041 1.4552,-0.969805 7.01044,-4.822398 12.34497,-8.561316 5.33452,-3.738918 10.05734,-6.961239 10.49514,-7.160714 1.67797,-0.764534 3.88098,1.278898 3.45749,3.207038 -0.23335,1.062449 -0.21434,1.046938 -7.42399,6.057695 -2.13431,1.483357 -7.05556,4.915768 -10.93611,7.627581 -3.88056,2.711807 -7.48654,5.203047 -8.01329,5.536077 -1.28322,0.8113 -2.93691,0.76782 -3.80477,-0.10004 z m -9.92277,-1.32292 c -0.43881,-0.55953 -0.42634,-0.572 0.13319,-0.13319 0.58764,0.46085 0.77452,0.75055 0.48417,0.75055 -0.0733,0 -0.35107,-0.27781 -0.61736,-0.61736 z M 92.626214,81.162492 c 0.254662,-0.101907 0.558932,-0.08938 0.676158,0.02785 0.117225,0.117225 -0.09114,0.200603 -0.463021,0.185285 -0.410966,-0.01693 -0.494559,-0.10052 -0.213137,-0.213136 z m 7.761106,0 c 0.25467,-0.101907 0.55894,-0.08938 0.67616,0.02785 0.11723,0.117225 -0.0911,0.200603 -0.46302,0.185285 -0.41096,-0.01693 -0.49456,-0.10052 -0.21314,-0.213136 z m 18.21817,-2.388811 c -0.47625,-0.47625 -0.86591,-1.136836 -0.86591,-1.467969 0,-1.234916 9.60645,-29.967425 10.23652,-30.617016 1.2384,-1.27678 3.85175,-0.538321 4.41892,1.248666 0.11526,0.36315 -0.28943,2.207526 -0.89931,4.098613 -6.33325,19.637833 -8.6305,26.358537 -9.20674,26.934777 -0.94498,0.944988 -2.63166,0.854749 -3.68348,-0.197071 z m -24.339694,-21.1827 c 7.8e-5,-8.731249 0.04597,-12.252597 0.101982,-7.825217 0.05601,4.427379 0.05595,11.571129 -1.41e-4,15.874998 -0.05609,4.30387 -0.101918,0.681468 -0.101841,-8.049781 z m 2.593751,-17.703486 c 0.254662,-0.101907 0.558932,-0.08937 0.676158,0.02785 0.117225,0.117225 -0.09113,0.200604 -0.463021,0.185286 -0.410966,-0.01693 -0.494559,-0.100521 -0.213137,-0.213137 z"
         id="path2"
         sodipodi:nodetypes="sssssssssssssssssssssssssssssssscsscssssssssssssssssscsssssssssssssssssssssssscssssssssscssccscccssccsssssscsssssscsssssssssssssssssssssssssssssssssssssssss" /><path
         style="fill:#18324e"
         d="m 95.595108,207.26402 c -0.440779,-0.21243 -0.917029,-0.797 -1.058333,-1.29904 -0.141303,-0.50205 -0.256915,-8.03093 -0.256915,-16.73086 v -15.81804 l 0.832832,-0.67432 c 1.787179,-1.44701 3.842803,-0.55712 4.311355,1.8664 0.460139,2.38001 0.399673,30.42083 -0.06781,31.44684 -0.381513,0.83733 -1.680971,1.6672 -2.535337,1.61913 -0.233405,-0.0131 -0.785011,-0.19768 -1.225792,-0.41011 z M 88.988194,166.0647 c -14.47315,-1.84307 -28.447871,-7.90891 -40.2254,-17.46015 -6.980049,-5.66063 -15.08044,-14.87305 -20.229535,-23.00667 l -1.166793,-1.84309 1.342873,-2.21385 c 4.161707,-6.86097 13.467059,-17.36138 20.145986,-22.733266 9.10308,-7.321643 20.182994,-12.952353 30.743211,-15.623414 7.810663,-1.975599 19.644366,-2.535368 27.381324,-1.295218 19.42409,3.113471 36.91989,13.696993 50.5174,30.558878 2.95868,3.66897 7.86732,10.7001 7.86732,11.26914 0,0.50106 -3.98844,6.36858 -6.72784,9.89753 -3.21607,4.14301 -10.03432,11.19463 -14.26244,14.75059 -10.35396,8.70795 -23.35255,14.74166 -37.04166,17.19408 -3.71787,0.66605 -14.705763,0.9688 -18.344446,0.50544 z m 15.698606,-8.85592 c 18.09629,-2.46646 35.35992,-13.32892 48.06534,-30.24321 1.11531,-1.48478 2.02813,-2.90358 2.02847,-3.15291 3.5e-4,-0.24932 -0.92463,-1.71389 -2.05551,-3.25461 -11.36082,-15.47803 -27.53548,-26.246874 -44.62816,-29.712745 -3.41792,-0.69305 -4.98987,-0.796946 -11.876802,-0.784984 -6.89759,0.01198 -8.422791,0.118766 -11.641666,0.815079 -5.497041,1.189129 -10.726418,3.033737 -16.151797,5.697375 -8.371297,4.109965 -14.314702,8.526745 -21.341279,15.859545 -3.618748,3.77645 -9.073587,10.59842 -9.073587,11.34767 0,0.77131 5.285612,7.35096 8.995833,11.19822 7.114585,7.37737 13.481105,12.08652 21.765938,16.09969 11.838287,5.73448 23.817477,7.77949 35.91322,6.13088 z M 91.348488,142.778 c -3.702152,-0.96986 -5.87866,-2.26069 -8.895494,-5.27567 -3.980329,-3.97789 -5.738856,-8.27829 -5.719878,-13.98771 0.0393,-11.82191 10.958699,-21.27544 22.552408,-19.52487 1.515496,0.22883 2.874536,0.48867 3.020096,0.57742 0.14556,0.0887 -0.40139,0.66938 -1.21546,1.29029 -5.452519,4.15878 -3.580074,12.89475 3.08346,14.38599 3.39113,0.7589 6.88049,-0.75022 8.83025,-3.81902 0.52121,-0.82034 1.08128,-1.40895 1.24461,-1.30801 0.50274,0.31072 1.64072,4.45045 1.88641,6.86242 0.15128,1.48511 0.0457,3.33521 -0.30098,5.27593 -2.04113,11.42523 -13.17765,18.48554 -24.485422,15.52323 z m 79.686142,-16.79571 c -0.96992,-1.23305 -0.92348,-2.43801 0.13474,-3.49624 l 0.86591,-0.86591 h 16.05083 c 11.01196,0 16.32069,0.12296 16.91046,0.39168 1.60149,0.72969 1.92199,2.81999 0.65663,4.28263 -0.49461,0.57172 -1.76687,0.61736 -17.21075,0.61736 H 171.76579 Z M 141.18327,89.357014 c -1.59553,-1.595528 -1.33246,-2.158214 5.6977,-12.186868 3.6044,-5.141736 7.74066,-11.053909 9.19169,-13.138163 3.527,-5.066166 4.57014,-5.717855 6.59851,-4.122342 1.5484,1.217973 1.25075,2.239374 -2.00855,6.892434 -1.61593,2.306953 -5.75753,8.242585 -9.20356,13.190293 -3.44602,4.947708 -6.58648,9.273645 -6.97879,9.613194 -0.99938,0.864962 -2.28004,0.768418 -3.297,-0.248548 z M 95.161804,74.700702 c -0.685257,-0.685257 -0.705555,-1.175926 -0.705555,-17.055045 0,-15.391094 0.03782,-16.383713 0.645139,-16.933332 0.925847,-0.83788 2.973622,-0.752289 3.798101,0.15875 0.640355,0.707585 0.672037,1.507347 0.672037,16.964501 v 16.221908 l -0.832832,0.674387 c -1.079739,0.87432 -2.685393,0.860328 -3.57689,-0.03117 z"
         id="path1"
         sodipodi:nodetypes="ssscsssssssscssssssssssssssssssssssssssscssssscssscsssscsssssssssssssscsss" /></g></g></svg>
