<?xml version="1.0" encoding="UTF-8" standalone="no"?>
<!-- Created with Inkscape (http://www.inkscape.org/) -->

<svg
   width="188.6514mm"
   height="191.42737mm"
   viewBox="0 0 188.6514 191.42737"
   version="1.1"
   id="svg1"
   xml:space="preserve"
   inkscape:version="1.4.2 (f4327f4, 2025-05-13)"
   sodipodi:docname="icon-technique-exception.svg"
   xmlns:inkscape="http://www.inkscape.org/namespaces/inkscape"
   xmlns:sodipodi="http://sodipodi.sourceforge.net/DTD/sodipodi-0.dtd"
   xmlns="http://www.w3.org/2000/svg"
   xmlns:svg="http://www.w3.org/2000/svg"><sodipodi:namedview
     id="namedview1"
     pagecolor="#ffffff"
     bordercolor="#000000"
     borderopacity="0.25"
     inkscape:showpageshadow="2"
     inkscape:pageopacity="0.0"
     inkscape:pagecheckerboard="0"
     inkscape:deskcolor="#d1d1d1"
     inkscape:document-units="mm"
     inkscape:zoom="0.72604517"
     inkscape:cx="353.2838"
     inkscape:cy="427.65934"
     inkscape:window-width="1920"
     inkscape:window-height="1017"
     inkscape:window-x="-8"
     inkscape:window-y="-8"
     inkscape:window-maximized="1"
     inkscape:current-layer="layer1" /><defs
     id="defs1" /><g
     inkscape:label="Слой 1"
     inkscape:groupmode="layer"
     id="layer1"
     transform="translate(-11.662311,-35.339795)"><g
       id="g1"
       transform="translate(2.1865066,-7.6527608)"><path
         style="fill:#109bd8"
         d="m 183.97772,234.25935 c 0.43882,-0.0844 1.07382,-0.0812 1.41111,0.007 0.33728,0.0883 -0.0218,0.15733 -0.79787,0.15342 -0.77611,-0.004 -1.05207,-0.0762 -0.61324,-0.16054 z m -30.60759,-3.80744 c 0.4557,-0.48507 0.90792,-0.88195 1.00494,-0.88195 0.097,0 -0.19646,0.39688 -0.65216,0.88195 -0.4557,0.48507 -0.90792,0.88194 -1.00493,0.88194 -0.097,0 0.19645,-0.39687 0.65215,-0.88194 z M 49.749559,221.10347 c 0,-0.87313 0.0688,-1.23031 0.152883,-0.79375 0.08409,0.43656 0.08409,1.15094 0,1.5875 -0.08409,0.43656 -0.152883,0.0794 -0.152883,-0.79375 z m 40.501208,0.49977 c 0.01693,-0.41097 0.10052,-0.49456 0.213136,-0.21314 0.101907,0.25466 0.08937,0.55893 -0.02785,0.67616 -0.117225,0.11722 -0.200603,-0.0911 -0.185285,-0.46302 z m 26.872223,-0.67616 c 0.004,-0.77611 0.0762,-1.05207 0.16054,-0.61325 0.0844,0.43883 0.0812,1.07383 -0.007,1.41111 -0.0883,0.33729 -0.15734,-0.0217 -0.15342,-0.79786 z m -26.844372,-0.88195 c 0,-0.48506 0.08007,-0.6835 0.177936,-0.44097 0.09786,0.24254 0.09786,0.63941 0,0.88195 -0.09786,0.24253 -0.177936,0.0441 -0.177936,-0.44098 z m 93.342202,-27.06007 c 0.43657,-0.0841 1.15094,-0.0841 1.5875,0 0.43657,0.0841 0.0794,0.15288 -0.79375,0.15288 -0.87312,0 -1.23031,-0.0688 -0.79375,-0.15288 z m -31.30902,-2.70645 c 0,-0.0733 0.27781,-0.35107 0.61736,-0.61736 0.55953,-0.43881 0.572,-0.42633 0.13319,0.13319 -0.46085,0.58764 -0.75055,0.77452 -0.75055,0.48417 z m -98.987677,-1.36611 -0.672037,-0.79375 0.793749,0.67204 c 0.436563,0.36962 0.79375,0.7268 0.79375,0.79375 0,0.28231 -0.283913,0.0739 -0.915462,-0.67204 z m -3.569749,-9.26042 c 0.0026,-0.97014 0.07116,-1.32514 0.152247,-0.7889 0.08109,0.53625 0.07892,1.33 -0.0048,1.76389 -0.08374,0.4339 -0.15008,-0.005 -0.147432,-0.97499 z m 40.569441,0 c 0.0026,-0.97014 0.07116,-1.32514 0.152248,-0.7889 0.08109,0.53625 0.07892,1.33 -0.0048,1.76389 -0.08374,0.4339 -0.15008,-0.005 -0.147432,-0.97499 z m 26.806295,-0.17639 c 0,-0.87312 0.0688,-1.23031 0.15288,-0.79375 0.0841,0.43657 0.0841,1.15094 0,1.5875 -0.0841,0.43657 -0.15288,0.0794 -0.15288,-0.79375 z M 12.611811,170.52306 c 0,-0.0733 0.277812,-0.35107 0.617361,-0.61736 0.559525,-0.43881 0.572003,-0.42634 0.133193,0.13319 -0.460858,0.58764 -0.750554,0.77451 -0.750554,0.48417 z m 100.331749,-0.66056 -0.67203,-0.79375 0.79375,0.67204 c 0.74592,0.63155 0.95434,0.91546 0.67203,0.91546 -0.0669,0 -0.42413,-0.35719 -0.79375,-0.79375 z m 72.4632,-3.68057 c 0.25466,-0.10191 0.55893,-0.0894 0.67616,0.0279 0.11722,0.11723 -0.0911,0.2006 -0.46302,0.18529 -0.41097,-0.0169 -0.49456,-0.10052 -0.21314,-0.21314 z M 90.575694,153.08779 c -0.291042,-0.0969 -0.645799,-0.35086 -0.788348,-0.5643 -0.14255,-0.21344 -0.261613,-6.29017 -0.264584,-13.50384 -0.0047,-11.45784 0.06467,-13.18585 0.548963,-13.67014 0.484114,-0.48412 2.218682,-0.55437 13.687775,-0.55437 9.74451,0 13.24265,0.10924 13.55675,0.42334 0.62515,0.62515 0.60804,27.40996 -0.0176,27.60742 -0.6755,0.21318 -26.120351,0.46255 -26.722916,0.26189 z m 52.497736,-1.01697 c 0.25466,-0.10191 0.55893,-0.0894 0.67616,0.0279 0.11722,0.11723 -0.0911,0.2006 -0.46302,0.18529 -0.41097,-0.0169 -0.49456,-0.10052 -0.21314,-0.21314 z m 41.08328,-0.003 c 0.34324,-0.0894 0.81949,-0.0836 1.05833,0.0131 0.23884,0.0966 -0.042,0.16981 -0.62408,0.16262 -0.58208,-0.007 -0.7775,-0.0863 -0.43425,-0.17569 z M 32.014587,148.25486 c 0.455699,-0.48507 0.907919,-0.88194 1.004933,-0.88194 0.09701,0 -0.196456,0.39687 -0.652155,0.88194 -0.455699,0.48507 -0.907919,0.88195 -1.004933,0.88195 -0.09701,0 0.196456,-0.39688 0.652155,-0.88195 z m 142.829993,-0.0882 c -0.43881,-0.55953 -0.42634,-0.572 0.13319,-0.13319 0.58764,0.46085 0.77452,0.75055 0.48417,0.75055 -0.0733,0 -0.35107,-0.27781 -0.61736,-0.61736 z m 23.03125,-9.6132 c 0,-0.48506 0.0801,-0.6835 0.17794,-0.44097 0.0979,0.24254 0.0979,0.63941 0,0.88195 -0.0979,0.24253 -0.17794,0.0441 -0.17794,-0.44098 z m -184.911241,-9.3486 c 0.455699,-0.48507 0.907918,-0.88194 1.004932,-0.88194 0.09701,0 -0.196455,0.39687 -0.652155,0.88194 -0.455699,0.48507 -0.907918,0.88195 -1.004932,0.88195 -0.09701,0 0.196456,-0.39688 0.652155,-0.88195 z m 59.409532,-0.26458 -0.672037,-0.79375 0.79375,0.67204 c 0.436562,0.36962 0.79375,0.72681 0.79375,0.79375 0,0.28231 -0.283914,0.0739 -0.915463,-0.67204 z m 0.03352,-21.43125 c 0.351186,-0.38805 0.717894,-0.70555 0.814908,-0.70555 0.09701,0 -0.110944,0.3175 -0.46213,0.70555 -0.351185,0.38806 -0.717894,0.70556 -0.814908,0.70556 -0.09701,0 0.110945,-0.3175 0.46213,-0.70556 z m 44.682089,-8.819441 c 0,-0.48507 0.0801,-0.683507 0.17793,-0.440972 0.0979,0.242534 0.0979,0.639409 0,0.881944 -0.0979,0.242535 -0.17793,0.0441 -0.17793,-0.440972 z m 80.7861,-1.058333 c 0,-0.48507 0.0801,-0.683507 0.17794,-0.440973 0.0979,0.242535 0.0979,0.63941 0,0.881945 -0.0979,0.242535 -0.17794,0.0441 -0.17794,-0.440972 z M 53.357641,88.459034 c 0.351185,-0.388055 0.717894,-0.705555 0.814908,-0.705555 0.09701,0 -0.110945,0.3175 -0.46213,0.705555 -0.351186,0.388056 -0.717894,0.705556 -0.814908,0.705556 -0.09701,0 0.110945,-0.3175 0.46213,-0.705556 z m 140.555229,-0.264583 -0.85524,-0.970139 0.97014,0.855244 c 0.53357,0.470384 0.97014,0.906947 0.97014,0.970139 0,0.276674 -0.28568,0.0515 -1.08504,-0.855244 z m -80.96931,-0.176389 -0.67203,-0.79375 0.79375,0.672037 c 0.74592,0.631549 0.95434,0.915463 0.67203,0.915463 -0.0669,0 -0.42413,-0.357188 -0.79375,-0.79375 z m -90.894944,-3.68855 c 0.436562,-0.08409 1.150937,-0.08409 1.5875,0 0.436562,0.08409 0.07937,0.152883 -0.79375,0.152883 -0.873125,0 -1.230313,-0.0688 -0.79375,-0.152883 z m 40.573554,-5.39e-4 c 0.438825,-0.08438 1.073825,-0.08118 1.411111,0.0071 0.337286,0.0883 -0.02175,0.157338 -0.797863,0.153422 -0.776111,-0.0039 -1.052073,-0.07616 -0.613248,-0.160541 z m 41.27088,0.01587 c 0.24254,-0.09786 0.63941,-0.09786 0.88195,0 0.24253,0.09786 0.0441,0.177936 -0.44097,0.177936 -0.48507,0 -0.68351,-0.08007 -0.44098,-0.177936 z m 39.6875,-0.0095 c 0.33955,-0.08873 0.89517,-0.08873 1.23472,0 0.33955,0.08873 0.0617,0.161334 -0.61736,0.161334 -0.6791,0 -0.95691,-0.0726 -0.61736,-0.161334 z m 40.39717,-0.0063 c 0.43882,-0.08438 1.07382,-0.08118 1.41111,0.0071 0.33728,0.0883 -0.0218,0.157338 -0.79787,0.153422 -0.77611,-0.0039 -1.05207,-0.07616 -0.61324,-0.160541 z M 112.44791,66.806398 c 0,-0.07326 0.27782,-0.351068 0.61737,-0.617361 0.55952,-0.43881 0.572,-0.426332 0.13319,0.133193 -0.46086,0.587639 -0.75056,0.774516 -0.75056,0.484168 z M 94.058472,65.969453 c -0.438809,-0.559526 -0.426332,-0.572003 0.133194,-0.133193 0.339548,0.266292 0.617361,0.544104 0.617361,0.617361 0,0.290348 -0.289696,0.10347 -0.750555,-0.484168 z m 80.786108,0 c -0.43881,-0.559526 -0.42634,-0.572003 0.13319,-0.133193 0.58764,0.460858 0.77452,0.750554 0.48417,0.750554 -0.0733,0 -0.35107,-0.277813 -0.61736,-0.617361 z M 49.709176,57.414592 c 0,-0.485069 0.08007,-0.683507 0.177937,-0.440972 0.09786,0.242535 0.09786,0.63941 0,0.881944 -0.09786,0.242535 -0.177937,0.0441 -0.177937,-0.440972 z M 90.319,56.356259 c 0,-0.873125 0.0688,-1.230312 0.152883,-0.79375 0.08408,0.436562 0.08408,1.150937 0,1.5875 -0.08409,0.436562 -0.152883,0.07938 -0.152883,-0.79375 z m 26.81111,0 c 0,-0.873125 0.0688,-1.230312 0.15288,-0.79375 0.0841,0.436562 0.0841,1.150937 0,1.5875 -0.0841,0.436562 -0.15288,0.07938 -0.15288,-0.79375 z M 49.681326,55.444916 c 0.01693,-0.410966 0.10052,-0.494558 0.213136,-0.213136 0.101907,0.254661 0.08937,0.558932 -0.02785,0.676157 -0.117225,0.117225 -0.200603,-0.09113 -0.185286,-0.463021 z m 144.048344,-8.701851 -0.67204,-0.79375 0.79375,0.672038 c 0.74593,0.631549 0.95435,0.915462 0.67204,0.915462 -0.0669,0 -0.42413,-0.357187 -0.79375,-0.79375 z m -59.40954,0.307779 c 0,-0.07326 0.27782,-0.351068 0.61737,-0.617361 0.55952,-0.43881 0.572,-0.426332 0.13319,0.133193 -0.46086,0.587639 -0.75056,0.774517 -0.75056,0.484168 z"
         id="path2"
         sodipodi:nodetypes="cccccsssssssssssssscccccssssssssssssscsssssssssssssssssssssscsssssssssssssssssccsccsccsssssssssssscsssssssscssssssssscssscsssssssscsssscssssssscssccsssssssssssssssssssssssssssssssssssssssssscsssssss" /><path
         style="fill:#1d3a54"
         d="m 20.648254,234.14926 c -4.192397,-0.7157 -8.070789,-3.65697 -9.998022,-7.58224 -0.9375776,-1.9096 -1.0370319,-2.45049 -1.0370319,-5.63994 0,-3.22682 0.094055,-3.7234 1.1025019,-5.82083 5.945811,-12.3665 23.960158,-9.0841 25.413292,4.63055 0.89243,8.42273 -7.081421,15.84633 -15.48074,14.41246 z m 40.248468,6.8e-4 c -3.94187,-0.66572 -7.823033,-3.60088 -9.663803,-7.30831 -0.845186,-1.70226 -1.032964,-2.58058 -1.151352,-5.38538 -0.118492,-2.80726 -0.01738,-3.68086 0.62279,-5.3806 4.16351,-11.0548 19.422841,-11.6589 24.486744,-0.9694 4.589146,9.68732 -3.768207,20.82141 -14.294379,19.04369 z m 40.357448,-7.3e-4 c -3.366187,-0.69152 -5.79919,-2.27801 -8.251736,-5.38071 -3.487687,-4.41226 -3.318585,-11.74377 0.378759,-16.42126 6.014288,-7.60865 18.392377,-6.15183 22.516297,2.65001 0.86298,1.84189 0.96002,2.44197 0.9589,5.92983 -0.001,3.56057 -0.0822,4.03432 -0.9825,5.7453 -1.74953,3.32476 -4.51761,5.84624 -7.61941,6.94062 -1.80726,0.63764 -5.23024,0.89983 -7.00031,0.53621 z m 40.70377,-0.0104 c -4.10052,-0.6877 -7.9441,-3.62072 -9.75066,-7.44068 -3.26564,-6.90519 -0.33177,-14.98082 6.62204,-18.22752 1.74489,-0.81468 2.46963,-0.94115 5.36859,-0.93685 2.71527,0.004 3.68085,0.15528 5.08718,0.79686 6.86221,3.13058 9.86998,10.4629 7.21354,17.5851 -1.05551,2.82992 -4.61213,6.41992 -7.36183,7.43092 -2.4107,0.88636 -4.94788,1.16634 -7.17886,0.79217 z m 38.92886,-0.29313 c -3.12345,-1.02208 -6.37723,-3.58527 -7.94311,-6.25724 -0.50536,-0.86233 -1.15724,-2.71127 -1.44863,-4.10877 -1.82563,-8.75579 5.19104,-16.76651 14.03642,-16.02495 5.46927,0.45853 9.80701,3.79792 11.62063,8.9461 0.58887,1.67159 0.69602,2.65685 0.57216,5.26076 -0.13234,2.78214 -0.30514,3.49053 -1.31254,5.3806 -1.35784,2.54756 -3.42215,4.56671 -6.0563,5.92382 -1.60096,0.82481 -2.38727,0.98543 -5.2353,1.06943 -1.84326,0.0544 -3.74826,-0.031 -4.23333,-0.18975 z M 20.102013,192.8776 c -3.894199,-0.81342 -7.799053,-3.95998 -9.55028,-7.69567 -0.820152,-1.74954 -0.9385329,-2.44704 -0.9385329,-5.52985 0,-3.0892 0.1175418,-3.77856 0.9454639,-5.54498 0.520006,-1.10946 1.69086,-2.8141 2.601899,-3.78807 6.283089,-6.71713 17.754484,-4.80267 21.696348,3.6209 3.978835,8.50257 -1.731425,18.26092 -11.160533,19.07241 -1.148804,0.0989 -2.766268,0.0382 -3.594365,-0.13474 z m 40.503554,-0.0289 c -4.14317,-0.81216 -8.426673,-4.42047 -9.893096,-8.33368 -0.632049,-1.68665 -0.74434,-2.62209 -0.647272,-5.39206 0.09974,-2.84638 0.272626,-3.66745 1.147275,-5.44884 1.359117,-2.7681 3.58977,-4.93961 6.448192,-6.27723 2.039016,-0.95417 2.704626,-1.0889 5.362473,-1.08543 5.520583,0.007 9.715605,2.58846 12.110021,7.4515 1.072386,2.178 1.155035,2.59929 1.155035,5.88758 0,3.28939 -0.08245,3.70929 -1.157314,5.89379 -1.883042,3.82702 -5.472371,6.55371 -9.676678,7.35104 -2.042533,0.38736 -2.665062,0.38137 -4.848636,-0.0467 z m 39.768863,-0.11407 c -3.733227,-1.07777 -6.949701,-3.75957 -8.641855,-7.20535 -0.891708,-1.81581 -0.980493,-2.34799 -0.980493,-5.87716 0,-3.57368 0.08144,-4.04642 1.029833,-5.978 4.859288,-9.89686 18.790175,-9.92612 23.952935,-0.0503 1.06365,2.03463 1.12279,2.35215 1.12279,6.02831 0,3.59747 -0.0759,4.03053 -1.04082,5.93646 -1.38296,2.73175 -4.48367,5.58803 -7.14863,6.58512 -2.55643,0.95649 -6.09469,1.19579 -8.29376,0.56093 z m 41.39652,0.10547 c -2.51575,-0.4228 -5.78233,-2.20398 -7.38863,-4.02884 -5.82132,-6.61337 -4.17255,-16.88532 3.35238,-20.8855 5.40581,-2.87369 11.61725,-2.01521 15.82928,2.18774 9.2216,9.20175 1.08075,24.89016 -11.79303,22.7266 z m 37.67384,-0.7667 c -8.53133,-3.59513 -10.97609,-13.98171 -5.01985,-21.32693 3.20709,-3.95498 9.86288,-5.56165 15.01554,-3.62468 2.638,0.99167 5.45416,3.57862 6.99572,6.42635 1.15147,2.12711 1.20369,2.38389 1.20557,5.92759 0.002,3.32047 -0.10038,3.92343 -0.98607,5.82084 -1.25462,2.68774 -3.37088,4.87521 -6.06751,6.27167 -1.87703,0.97202 -2.51607,1.10969 -5.64445,1.21597 -3.07669,0.10452 -3.77982,0.0136 -5.49895,-0.71081 z M 20.020144,151.83646 c -6.00193,-1.33103 -10.160472,-6.17622 -10.5119416,-12.24765 -0.2624427,-4.53354 1.0600506,-7.86079 4.3151746,-10.85652 2.609302,-2.40138 5.066494,-3.3617 8.666211,-3.38695 4.941936,-0.0347 8.68414,1.87837 11.37023,5.81252 2.505769,3.67005 2.955915,8.07611 1.283262,12.56066 -1.054408,2.82698 -4.610934,6.41828 -7.361826,7.43382 -2.59867,0.95934 -5.404724,1.20668 -7.76111,0.68412 z m 40.917927,0.13685 c -5.497535,-0.98279 -10.157701,-5.82653 -10.941641,-11.37266 -0.980117,-6.93402 3.189213,-13.23521 9.893915,-14.95288 6.07053,-1.5552 12.408377,1.43571 15.242815,7.19327 1.072422,2.1784 1.155035,2.59959 1.155035,5.88882 0,3.28387 -0.08374,3.71272 -1.146504,5.8715 -2.583247,5.24732 -8.605125,8.37279 -14.20362,7.37195 z m 81.223569,-0.0175 c -4.23811,-0.62528 -8.13821,-3.59999 -10.06731,-7.67861 -1.01083,-2.13716 -1.11988,-2.6871 -1.09999,-5.54735 0.0168,-2.42011 0.21105,-3.65701 0.8169,-5.20229 1.11635,-2.84741 3.75475,-5.62408 6.68761,-7.03808 2.12454,-1.0243 2.66621,-1.13329 5.69906,-1.14675 2.91383,-0.0129 3.61476,0.10833 5.3686,0.92881 7.0614,3.30346 9.96303,11.69822 6.44388,18.64292 -1.69163,3.33827 -5.5282,6.31909 -8.83335,6.86307 -2.63177,0.43315 -3.16049,0.45194 -5.0154,0.17828 z m 38.13396,-0.48512 c -2.18693,-0.71275 -3.74925,-1.78978 -5.71298,-3.93842 -6.0378,-6.60631 -3.7942,-17.20408 4.461,-21.07181 2.09963,-0.98372 2.73733,-1.11291 5.54734,-1.12378 2.82913,-0.0109 3.42491,0.10615 5.46907,1.07486 2.81096,1.3321 5.2693,3.72461 6.58945,6.41301 0.89881,1.83038 0.99426,2.38034 0.99426,5.72891 0,3.27379 -0.10905,3.93679 -0.93853,5.70624 -1.25816,2.68387 -3.3559,4.88072 -6.02809,6.31286 -1.99384,1.06858 -2.52736,1.19149 -5.55699,1.28016 -2.12823,0.0623 -3.88904,-0.0771 -4.82453,-0.38203 z M 19.138199,110.91551 c -3.858156,-1.27962 -6.576423,-3.57581 -8.400345,-7.09601 -1.0287768,-1.98555 -1.1049931,-2.38462 -1.1144755,-5.835467 -0.00903,-3.286028 0.095766,-3.930166 0.9283545,-5.706231 1.25421,-2.675467 3.348883,-4.873958 6.028089,-6.326862 2.12694,-1.153416 2.343994,-1.196072 6.086155,-1.196072 3.542033,0 4.057185,0.08674 5.905298,0.994261 2.676145,1.314135 5.085276,3.781254 6.367017,6.52027 3.146485,6.723884 0.09178,14.852291 -6.761923,17.993111 -2.372096,1.08705 -6.771201,1.40488 -9.03817,0.653 z m 39.865625,-0.25557 c -5.68421,-2.01117 -9.115656,-6.86212 -9.091417,-12.852295 0.01669,-4.123835 0.981857,-6.420591 3.942138,-9.380873 3.18403,-3.18403 5.254845,-3.9714 9.91004,-3.768019 2.559507,0.111823 3.749833,0.338384 5.03768,0.958848 2.641369,1.272571 5.020724,3.639887 6.328616,6.296592 1.074514,2.182647 1.157314,2.603763 1.157314,5.886033 0,3.149254 -0.110693,3.774834 -1.013942,5.730314 -2.817083,6.09879 -10.128503,9.30252 -16.270429,7.1294 z m 40.457784,0.0355 c -6.19881,-2.27849 -9.931153,-8.50728 -8.907263,-14.865056 1.192959,-7.407597 7.474701,-12.069032 15.087965,-11.196187 2.95443,0.338721 5.02699,1.320666 7.27509,3.446829 5.62341,5.318383 5.66197,14.137844 0.0856,19.573354 -2.53849,2.47436 -4.86543,3.44623 -8.62673,3.60304 -2.37486,0.099 -3.45121,-0.0241 -4.914632,-0.56198 z m 40.581832,0.0198 c -2.60606,-0.96706 -4.06975,-1.94055 -5.6966,-3.78874 -4.81636,-5.47167 -4.6411,-13.52707 0.40419,-18.577452 2.51605,-2.518584 5.01705,-3.558534 8.91771,-3.708098 2.60802,-0.1 3.54314,0.01628 5.23652,0.65117 3.21971,1.207142 5.45477,3.247224 7.11071,6.490373 1.34293,2.63014 1.41111,2.920035 1.41111,6.000214 0,3.032373 -0.084,3.406423 -1.3308,5.929233 -1.53171,3.09921 -3.62367,5.1762 -6.6067,6.55944 -2.65534,1.23128 -6.79944,1.42601 -9.44614,0.44386 z m 41.33114,0.36004 c -6.7754,-1.74336 -11.26623,-8.6837 -10.04405,-15.522565 0.76179,-4.262742 3.50796,-7.914241 7.38328,-9.817334 1.8158,-0.891709 2.34799,-0.980493 5.87715,-0.980493 3.25058,0 4.15264,0.125659 5.55652,0.774032 2.33903,1.080265 5.36218,4.054715 6.52357,6.418476 0.88398,1.799168 0.9723,2.333611 0.96843,5.860269 -0.004,3.565015 -0.0871,4.047575 -1.02353,5.934565 -2.21785,4.46937 -6.59279,7.3369 -11.46881,7.51719 -1.47006,0.0543 -3.16772,-0.0285 -3.77256,-0.18414 z M 20.163755,69.768705 C 14.236453,68.520933 9.8594471,63.459142 9.5115829,57.449993 9.0126835,48.831803 15.399502,42.419366 23.845911,43.058166 c 10.11485,0.764985 15.700641,12.18402 10.192711,20.836965 -2.737613,4.300782 -8.917943,6.917069 -13.874867,5.873574 z m 40.513515,-0.0083 C 55.249222,68.621163 50.801944,63.900169 50.062361,58.492223 49.214974,52.295994 52.128967,46.827362 57.723623,44.11449 c 1.724978,-0.836449 2.421586,-0.963712 5.335406,-0.974727 3.04199,-0.0115 3.568009,0.08996 5.697802,1.099021 6.165727,2.921218 9.064117,9.642081 7.036705,16.316896 -1.931531,6.359143 -8.786454,10.533321 -15.116266,9.204767 z m 39.78475,-0.19115 c -2.628362,-0.733846 -4.480993,-1.881479 -6.470064,-4.007958 -2.635847,-2.817933 -3.209629,-4.423773 -3.226042,-9.028691 -0.01248,-3.502496 0.07971,-4.080204 0.946314,-5.929829 1.287431,-2.747813 4.226375,-5.586277 6.872644,-6.637674 1.592908,-0.632883 2.746878,-0.814346 5.219988,-0.82085 2.84216,-0.0075 3.42369,0.108999 5.54735,1.111052 2.84542,1.342624 5.14926,3.598639 6.51494,6.379711 0.90459,1.842124 0.99005,2.353544 0.98545,5.89759 -0.004,3.388504 -0.11403,4.104215 -0.86466,5.644444 -1.29125,2.649519 -4.69574,5.897633 -7.13806,6.810181 -2.75877,1.030787 -5.98,1.254304 -8.38786,0.582024 z m 41.32864,0.18243 c -4.30584,-0.888595 -7.55057,-3.388418 -9.48914,-7.310688 -1.2503,-2.529691 -1.33198,-2.894159 -1.32,-5.889971 0.0163,-4.079675 0.90471,-6.460405 3.44998,-9.245332 6.35123,-6.949255 17.4253,-5.255367 21.66008,3.313121 1.20125,2.430561 1.32626,2.951501 1.32785,5.533206 0.002,3.237307 -0.6792,5.60609 -2.32795,8.095254 -2.64739,3.996818 -8.62301,6.469769 -13.30082,5.50441 z m 40.38395,-0.0072 c -2.707,-0.454218 -5.27684,-1.917609 -7.40596,-4.217309 -2.5379,-2.741228 -3.48593,-5.178418 -3.49878,-8.994586 -0.0161,-4.78066 1.94078,-8.589443 5.75117,-11.193841 6.76265,-4.622269 16.16379,-1.98189 19.62741,5.512505 0.88195,1.90831 0.99529,2.555304 0.99529,5.681336 0,3.089198 -0.11754,3.77856 -0.94546,5.544984 -1.90761,4.070003 -5.7352,6.989119 -10.10216,7.704427 -2.21392,0.362642 -2.02725,0.364225 -4.42151,-0.03752 z"
         id="path1"
         sodipodi:nodetypes="ssssssssssssssssccsssssssssscssssssssccsssssscssssscsssssssssssscsssssssscssscssscssscssssssssssssssssssssscssssssssscsssssssssssssssssssssssssssssssssscsscsssssccccssssscsssssccssssscsscsssssssssssssssssssss" /></g></g></svg>
