<?xml version="1.0" encoding="UTF-8" standalone="no"?>
<!-- Created with Inkscape (http://www.inkscape.org/) -->

<svg
   width="225.31888mm"
   height="141.33705mm"
   viewBox="0 0 225.31888 141.33705"
   version="1.1"
   id="svg1"
   xml:space="preserve"
   inkscape:version="1.4.2 (f4327f4, 2025-05-13)"
   sodipodi:docname="icon-technique-orbit.svg"
   xmlns:inkscape="http://www.inkscape.org/namespaces/inkscape"
   xmlns:sodipodi="http://sodipodi.sourceforge.net/DTD/sodipodi-0.dtd"
   xmlns="http://www.w3.org/2000/svg"
   xmlns:svg="http://www.w3.org/2000/svg"><sodipodi:namedview
     id="namedview1"
     pagecolor="#ffffff"
     bordercolor="#000000"
     borderopacity="0.25"
     inkscape:showpageshadow="2"
     inkscape:pageopacity="0.0"
     inkscape:pagecheckerboard="0"
     inkscape:deskcolor="#d1d1d1"
     inkscape:document-units="mm"
     inkscape:zoom="0.72604517"
     inkscape:cx="254.11642"
     inkscape:cy="245.85247"
     inkscape:window-width="1920"
     inkscape:window-height="1017"
     inkscape:window-x="-8"
     inkscape:window-y="-8"
     inkscape:window-maximized="1"
     inkscape:current-layer="layer1" /><defs
     id="defs1" /><g
     inkscape:label="Слой 1"
     inkscape:groupmode="layer"
     id="layer1"
     transform="translate(-37.832236,-83.609549)"><g
       id="g1"
       transform="translate(46.280982,1.4576687)"><path
         style="fill:#039fe1"
         d="m 155.88893,192.1708 c -10.13694,-1.41696 -21.41562,-6.48192 -29.85907,-13.40892 -2.43126,-1.9946 -7.39837,-6.93035 -9.75472,-9.69313 -3.1856,-3.73506 -7.355,-9.97132 -7.355,-11.00102 0,-0.89498 3.4168,-5.93763 6.88803,-10.16565 21.99826,-26.79419 55.41124,-31.83143 81.55643,-12.29519 3.80914,2.84627 9.5675,8.4724 12.79296,12.49918 3.48724,4.3536 6.71257,9.20659 6.71257,10.10007 0,1.51847 -5.87738,9.46899 -10.73853,14.52635 -9.425,9.80541 -20.47183,16.2352 -32.23016,18.75951 -3.87972,0.8329 -14.14306,1.21968 -18.01251,0.6788 z m 14.63291,-8.6452 c 13.01986,-2.2283 24.96113,-10.10713 34.65,-22.86203 1.03178,-1.35829 1.72242,-2.58855 1.58433,-2.82222 -1.91195,-3.23539 -8.10086,-10.12388 -12.05188,-13.41419 -5.56264,-4.63243 -10.82193,-7.60187 -17.29839,-9.76683 -11.96294,-3.99897 -23.88529,-3.05217 -35.74552,2.83871 -1.88071,0.93414 -4.18259,2.21524 -5.11528,2.84691 -5.73217,3.8821 -11.71263,9.53966 -15.73835,14.88858 -2.38621,3.17054 -2.49627,2.60269 1.46614,7.56464 9.22496,11.55199 22.18277,19.37822 34.80141,21.01928 2.82051,0.36681 10.58058,0.19782 13.44754,-0.29285 z m -12.36529,-6.70713 c -6.57027,-1.80296 -11.70792,-6.95205 -13.44998,-13.47992 -0.70479,-2.641 -0.70003,-7.47709 0.01,-10.11606 1.70693,-6.34461 6.87165,-11.57586 13.31891,-13.49049 2.84876,-0.84599 10.5099,-0.729 10.50192,0.16038 -0.001,0.13673 -0.46643,0.51268 -1.03378,0.83545 -1.65352,0.94071 -3.19073,3.97233 -3.19057,6.29231 1.5e-4,2.0885 1.11322,4.9853 2.33084,6.06602 1.15131,1.02188 3.77108,2.03273 5.24712,2.02464 2.92306,-0.016 5.95797,-1.77055 7.05252,-4.07715 0.59212,-1.24779 0.65169,-1.28205 1.11869,-0.6434 1.57271,2.15082 2.24547,7.82782 1.40764,11.87838 -0.81453,3.9379 -2.34202,6.71075 -5.30299,9.62648 -2.71644,2.67493 -5.70999,4.36438 -8.9734,5.06425 -2.45054,0.52555 -6.85871,0.45682 -9.03687,-0.14089 z m -42.73222,-0.25319 -1.03614,-1.14653 1.14653,1.03614 c 1.06872,0.96583 1.30868,1.25691 1.03614,1.25691 -0.0607,0 -0.57665,-0.51593 -1.14653,-1.14652 z M 98.160415,160.77847 c 0.351186,-0.38805 0.717894,-0.70555 0.814908,-0.70555 0.09701,0 -0.110945,0.3175 -0.46213,0.70555 -0.351185,0.38806 -0.717894,0.70556 -0.814908,0.70556 -0.09701,0 0.110945,-0.3175 0.46213,-0.70556 z m -67.909717,-1.89708 c 0,-0.0733 0.277813,-0.35107 0.617362,-0.61736 0.559525,-0.43881 0.572003,-0.42633 0.133193,0.13319 -0.460859,0.58764 -0.750555,0.77452 -0.750555,0.48417 z m 23.691811,-40.08347 c 0,-0.48507 0.08007,-0.68351 0.177937,-0.44097 0.09786,0.24253 0.09786,0.63941 0,0.88194 -0.09786,0.24254 -0.177937,0.0441 -0.177937,-0.44097 z M 76.2,109.38252 c 0.339549,-0.0887 0.895174,-0.0887 1.234722,0 0.339549,0.0887 0.06174,0.16133 -0.617361,0.16133 -0.679097,0 -0.956909,-0.0726 -0.617361,-0.16133 z m 81.33732,-27.161695 c 0.25466,-0.101907 0.55893,-0.08937 0.67616,0.02785 0.11722,0.117225 -0.0911,0.200604 -0.46302,0.185286 -0.41097,-0.01693 -0.49456,-0.100521 -0.21314,-0.213136 z"
         id="path2" /><path
         style="fill:#203f58"
         d="m 8.3658233,223.03498 c -9.09048376,-1.41763 -14.8739899,-6.08823 -16.4077391,-13.25044 -1.1121406,-5.19341 0.031394,-10.78674 3.7327691,-18.25796 5.30621997,-10.71059 13.7766061,-21.61127 26.5034237,-34.1077 5.406328,-5.30845 17.198009,-16.05352 17.907253,-16.31782 0.145,-0.054 0.448933,1.29534 0.675406,2.99861 0.226473,1.70327 0.489319,3.49373 0.584102,3.9788 0.149422,0.7647 -0.323657,1.30259 -3.558547,4.04609 -5.21873,4.42598 -14.935678,13.90087 -19.486761,19.00133 -9.7558146,10.93347 -16.2462908,20.84288 -18.91897368,28.88476 -2.85774272,8.5987 -0.28459069,13.7969 7.92338838,16.00656 2.7953633,0.75253 11.3910893,0.85225 15.6986103,0.18212 18.118139,-2.81868 39.739449,-11.45963 62.088883,-24.81379 6.064883,-3.62387 18.874832,-12.09745 23.812502,-15.75161 l 3.35139,-2.48021 2.37164,2.52383 c 1.3044,1.38811 2.33628,2.54943 2.29305,2.58072 -13.77803,9.972 -22.247542,15.51526 -33.367008,21.83854 -5.726069,3.25624 -16.669033,8.81229 -22.024544,11.18248 -21.151852,9.36119 -40.750994,13.69377 -53.1788447,11.75569 z M 71.114525,169.42273 c -12.997189,-2.47042 -22.763448,-12.62524 -24.667809,-25.64924 -0.552496,-3.77854 -0.205612,-9.2118 0.816817,-12.79383 l 0.802442,-2.81132 1.715029,0.10635 c 1.348002,0.0836 2.193083,-0.12899 3.948859,-0.99335 4.409234,-2.17066 6.097243,-5.99594 5.046977,-11.4372 -0.174704,-0.90512 4.680692,-3.68652 8.782505,-5.03103 2.874448,-0.9422 3.468626,-1.01102 8.72885,-1.01102 6.550239,0 8.459983,0.39498 13.405554,2.77261 10.323061,4.96291 17.109721,15.70236 17.109721,27.07504 0,7.81182 -2.86898,15.02977 -8.208135,20.65051 -3.038793,3.19905 -4.892403,4.58404 -8.633683,6.45093 -5.350809,2.67005 -13.086284,3.76654 -18.847127,2.67155 z m -23.772217,-46.9188 c -2.936024,-1.50354 -3.040433,-6.27253 -0.169825,-7.75698 2.288467,-1.18341 5.47283,-0.21125 6.365261,1.94327 0.655711,1.58303 0.256893,4.12411 -0.815595,5.1966 -1.127602,1.1276 -3.78723,1.43268 -5.379841,0.61711 z m 121.645552,-4.39719 c -1.40268,-0.12922 -2.6219,-0.30651 -2.70938,-0.39399 -0.0875,-0.0875 0.39726,-1.03004 1.0772,-2.09458 3.53227,-5.53025 5.73097,-11.13709 6.01876,-15.34823 0.16557,-2.422676 0.0795,-3.094146 -0.59903,-4.671359 -1.34276,-3.121331 -4.14402,-5.120678 -8.47624,-6.049773 -2.41416,-0.517745 -9.21407,-0.529328 -13.29709,-0.02265 -12.81941,1.590809 -29.9414,7.493175 -47.70453,16.444912 l -7.210077,3.63352 -1.609362,-0.98434 c -0.885149,-0.54139 -2.446739,-1.36047 -3.470199,-1.82018 -1.499528,-0.67354 -1.773516,-0.92172 -1.411111,-1.27817 0.247349,-0.24329 4.021601,-2.24784 8.387225,-4.45457 18.790504,-9.498172 34.147934,-15.07847 48.859714,-17.753735 4.20966,-0.765504 14.51692,-1.06856 17.6697,-0.519528 3.2515,0.566226 6.85111,1.862473 8.69511,3.131179 8.56538,5.893132 9.27569,16.802604 1.94717,29.906024 -1.63866,2.92992 -1.12411,2.7401 -6.16786,2.27547 z"
         id="path1" /></g></g></svg>
