<?xml version="1.0" encoding="UTF-8" standalone="no"?>
<!-- Created with Inkscape (http://www.inkscape.org/) -->

<svg
   width="191.40027mm"
   height="191.21184mm"
   viewBox="0 0 191.40027 191.21184"
   version="1.1"
   id="svg1"
   xml:space="preserve"
   inkscape:version="1.4.2 (f4327f4, 2025-05-13)"
   sodipodi:docname="icon-technique-time.svg"
   xmlns:inkscape="http://www.inkscape.org/namespaces/inkscape"
   xmlns:sodipodi="http://sodipodi.sourceforge.net/DTD/sodipodi-0.dtd"
   xmlns="http://www.w3.org/2000/svg"
   xmlns:svg="http://www.w3.org/2000/svg"><sodipodi:namedview
     id="namedview1"
     pagecolor="#ffffff"
     bordercolor="#000000"
     borderopacity="0.25"
     inkscape:showpageshadow="2"
     inkscape:pageopacity="0.0"
     inkscape:pagecheckerboard="0"
     inkscape:deskcolor="#d1d1d1"
     inkscape:document-units="mm"
     inkscape:zoom="0.72604517"
     inkscape:cx="348.46317"
     inkscape:cy="365.67973"
     inkscape:window-width="1920"
     inkscape:window-height="1017"
     inkscape:window-x="-8"
     inkscape:window-y="-8"
     inkscape:window-maximized="1"
     inkscape:current-layer="layer1" /><defs
     id="defs1" /><g
     inkscape:label="Слой 1"
     inkscape:groupmode="layer"
     id="layer1"
     transform="translate(-12.88626,-51.680157)"><g
       id="g1"
       transform="translate(3.6441728,-1.0932513)"><path
         style="fill:#06a3e8"
         d="M 96.220138,210.69329 C 80.271496,208.50567 66.360135,201.0447 56.759837,189.52986 42.898519,172.90425 38.497415,151.47184 44.74815,131.03558 c 4.940434,-16.15233 16.202836,-29.21917 31.990334,-37.115735 16.928953,-8.4675 38.042306,-8.452614 54.982696,0.03876 2.08226,1.043737 3.8104,1.860503 3.8403,1.815036 2.10622,-3.202717 4.99346,-7.088233 5.5641,-7.487925 1.09046,-0.763792 3.4965,-0.678739 4.5645,0.161356 1.10729,0.870991 1.29548,1.36385 3.23743,8.478623 0.87383,3.201465 2.31027,8.413075 3.19209,11.581385 1.77281,6.36952 1.86146,7.09913 1.03305,8.50152 -1.17224,1.98444 -1.13323,1.97873 -19.47349,2.85608 -9.46543,0.45281 -10.26229,0.34946 -11.19372,-1.45171 -1.12535,-2.1762 -0.93791,-2.61925 4.01641,-9.49283 1.18873,-1.64923 2.16414,-3.09465 2.16758,-3.21203 0.0111,-0.37715 -6.07041,-3.0355 -9.16596,-4.00666 -9.51505,-2.985122 -18.329,-3.274314 -27.697044,-0.90876 -9.602757,2.42482 -16.53563,6.40064 -23.639787,13.5568 -7.463733,7.51836 -11.347956,14.74662 -13.641868,25.38657 -1.03074,4.78092 -1.115286,14.01878 -0.171189,18.7049 1.298546,6.44546 4.222431,13.66088 7.59463,18.74167 7.247341,10.91934 19.854626,19.11055 33.213592,21.57952 4.531019,0.83741 13.371176,0.81173 17.991666,-0.0523 12.85129,-2.40313 24.6112,-10.07408 31.98979,-20.8668 3.8967,-5.69975 6.44409,-11.66168 7.94118,-18.58563 0.63748,-2.94828 0.78054,-4.76717 0.796,-10.12063 0.0194,-6.69611 -0.27355,-9.1815 -1.64074,-13.92255 -1.64156,-5.69247 0.64754,-9.3402 5.60346,-8.92921 3.37068,0.27952 4.56442,1.72317 5.95738,7.20455 1.53584,6.04364 2.00939,10.56544 1.80493,17.23471 -0.25284,8.24707 -1.60322,15.009 -4.31497,21.60695 -6.85016,16.66711 -19.86286,29.17705 -36.72346,35.30462 -8.5497,3.10718 -19.42929,4.28062 -28.346902,3.05742 z m -49.587467,-4.1419 -1.03614,-1.14653 1.146527,1.03614 c 0.63059,0.56988 1.146528,1.08581 1.146528,1.14653 0,0.27254 -0.291087,0.0326 -1.256915,-1.03614 z m 81.365319,-57.62037 c 0.0169,-0.41097 0.10052,-0.49456 0.21313,-0.21314 0.10191,0.25466 0.0894,0.55894 -0.0279,0.67616 -0.11722,0.11723 -0.2006,-0.0911 -0.18528,-0.46302 z"
         id="path2" /><path
         style="fill:#203d58"
         d="M 93.750693,243.50743 C 85.749644,242.53527 76.519923,240.16318 69.056251,237.16081 45.575974,227.71553 25.172678,207.32699 16.198067,184.34087 10.873597,170.70363 8.4961893,156.01647 9.4468947,142.63344 10.865433,122.66474 17.870272,104.38257 29.973152,89.061239 33.348725,84.78802 40.866997,77.219512 45.067364,73.866171 66.577283,56.693839 93.902236,49.60166 121.26736,54.088499 c 25.23429,4.137465 48.76103,19.488628 63.48841,41.42609 10.29086,15.328971 15.88658,33.902691 15.88658,52.731901 0,19.05736 -5.31601,37.07011 -15.56744,52.74865 -3.74553,5.72841 -7.65262,10.43817 -12.89074,15.53896 -5.28668,5.1481 -8.19265,7.52018 -14.02919,11.45171 -12.83282,8.64428 -28.21255,14.20035 -43.38709,15.67398 -5.08487,0.4938 -16.372642,0.41197 -21.017197,-0.15236 z m 21.177197,-13.42067 c 19.21063,-2.36558 35.70763,-10.62556 49.38414,-24.72644 15.08365,-15.55167 22.92477,-35.02168 22.92477,-56.92367 0,-10.67928 -1.4875,-19.02801 -5.15505,-28.93317 C 177.98762,108.44623 172.17019,99.500619 163.25363,90.550995 155.85129,83.121212 149.81167,78.81002 140.49375,74.304564 129.72564,69.097914 119.73223,66.684646 107.49977,66.336988 97.05317,66.040085 88.450508,67.289308 78.800727,70.504476 66.953743,74.451721 56.678224,80.804232 47.277254,89.992857 27.789526,109.0404 19.225125,135.80411 23.899207,163.04913 c 3.915227,22.82168 18.345521,43.62599 38.807044,55.94852 9.536633,5.74324 20.786966,9.62492 32.102776,11.07635 5.160304,0.66189 14.797663,0.668 20.118863,0.0128 z M 98.78432,170.68277 c -7.956867,-2.27586 -14.048013,-8.40582 -16.179413,-16.28251 -0.954714,-3.52819 -0.813727,-9.28284 0.312857,-12.76988 2.319329,-7.17885 7.604339,-12.51614 14.969143,-15.11721 2.970853,-1.04924 8.712043,-1.28577 12.227063,-0.50375 8.41082,1.87123 15.39517,8.64188 17.3069,16.77739 0.77193,3.28502 0.70399,8.45439 -0.15528,11.81411 -1.01027,3.95012 -2.79708,6.93075 -6.14001,10.24231 -3.12231,3.09303 -6.33465,4.95076 -10.31609,5.9659 -2.98581,0.7613 -9.14813,0.69654 -12.02517,-0.12636 z"
         id="path1" /></g></g></svg>
