<?xml version="1.0" encoding="UTF-8" standalone="no"?>
<!-- Created with Inkscape (http://www.inkscape.org/) -->

<svg
   width="152.40352mm"
   height="173.54701mm"
   viewBox="0 0 152.40352 173.54701"
   version="1.1"
   id="svg1"
   xml:space="preserve"
   inkscape:version="1.4.2 (f4327f4, 2025-05-13)"
   sodipodi:docname="icon-technique-split.svg"
   xmlns:inkscape="http://www.inkscape.org/namespaces/inkscape"
   xmlns:sodipodi="http://sodipodi.sourceforge.net/DTD/sodipodi-0.dtd"
   xmlns="http://www.w3.org/2000/svg"
   xmlns:svg="http://www.w3.org/2000/svg"><sodipodi:namedview
     id="namedview1"
     pagecolor="#ffffff"
     bordercolor="#000000"
     borderopacity="0.25"
     inkscape:showpageshadow="2"
     inkscape:pageopacity="0.0"
     inkscape:pagecheckerboard="0"
     inkscape:deskcolor="#d1d1d1"
     inkscape:document-units="mm"
     inkscape:zoom="0.72604517"
     inkscape:cx="280.28559"
     inkscape:cy="468.97908"
     inkscape:window-width="1920"
     inkscape:window-height="1017"
     inkscape:window-x="-8"
     inkscape:window-y="-8"
     inkscape:window-maximized="1"
     inkscape:current-layer="layer1" /><defs
     id="defs1" /><g
     inkscape:label="Слой 1"
     inkscape:groupmode="layer"
     id="layer1"
     transform="translate(-31.059011,-24.388707)"><g
       id="g1"
       transform="translate(3.2797541,-17.856442)"><path
         style="fill:#0aa1e3"
         d="m 100.65506,215.25744 c -0.63019,-0.63019 -0.667216,-0.95357 -0.58275,-5.09008 0.0521,-2.55031 0.1701,-3.09091 0.78944,-3.61597 0.9334,-0.79131 1.7795,-0.78215 2.78262,0.0301 0.68015,0.55076 0.82433,1.07439 0.96502,3.50485 0.18343,3.16861 -0.006,4.34712 -0.83026,5.17161 -0.71252,0.71252 -2.41131,0.71223 -3.12407,-5.3e-4 z m 0.58703,-16.04237 c -1.19386,-0.47472 -1.568679,-1.91412 -1.397588,-5.36715 0.170998,-3.4512 0.721788,-4.49445 2.372858,-4.49445 1.82036,0 2.29305,1.0595 2.29305,5.13972 0,2.78932 -0.12527,3.77382 -0.52916,4.15843 -0.7509,0.71505 -1.81,0.93291 -2.73916,0.56345 z m -13.533617,-1.65952 c -0.43881,-0.55952 -0.426332,-0.572 0.133193,-0.13319 0.339549,0.26629 0.617361,0.5441 0.617361,0.61736 0,0.29035 -0.289696,0.10347 -0.750554,-0.48417 z m 29.325547,-0.57416 c 0,-0.0733 0.27782,-0.35107 0.61737,-0.61736 0.55952,-0.43881 0.572,-0.42634 0.13319,0.13319 -0.46086,0.58764 -0.75056,0.77452 -0.75056,0.48417 z M 91.7028,192.70486 c 0.0072,-0.58208 0.08625,-0.7775 0.175699,-0.43426 0.08944,0.34324 0.08356,0.81949 -0.01307,1.05833 -0.09663,0.23885 -0.169816,-0.042 -0.162627,-0.62407 z m -15.635993,-7.84931 c -0.43881,-0.55952 -0.426332,-0.572 0.133193,-0.13319 0.587639,0.46086 0.774516,0.75056 0.484168,0.75056 -0.07326,0 -0.351068,-0.27782 -0.617361,-0.61737 z m 24.529533,-2.94694 c -0.52725,-0.5822 -0.697186,-1.39927 -0.788769,-3.79236 -0.135792,-3.54832 0.252129,-4.87828 1.515369,-5.19534 2.56722,-0.64433 3.54315,1.00379 3.31144,5.59227 -0.1001,1.98222 -0.30516,2.85255 -0.80128,3.40075 -0.85609,0.94597 -2.37753,0.94347 -3.23676,-0.005 z m 29.84324,0.25611 c 0,-0.0733 0.27781,-0.35107 0.61736,-0.61736 0.55953,-0.43881 0.572,-0.42633 0.13319,0.13319 -0.46085,0.58764 -0.75055,0.77452 -0.75055,0.48417 z m -57.547773,-0.83694 c -0.438809,-0.55953 -0.426332,-0.57201 0.133194,-0.1332 0.587638,0.46086 0.774516,0.75056 0.484168,0.75056 -0.07326,0 -0.351069,-0.27781 -0.617362,-0.61736 z m 61.075553,-3.04361 c 0,-0.0733 0.27781,-0.35107 0.61736,-0.61736 0.55952,-0.43881 0.572,-0.42634 0.13319,0.13319 -0.46086,0.58764 -0.75055,0.77452 -0.75055,0.48417 z m -64.60333,-0.83695 c -0.43881,-0.55952 -0.426332,-0.572 0.133193,-0.13319 0.587639,0.46086 0.774516,0.75055 0.484168,0.75055 -0.07326,0 -0.351069,-0.27781 -0.617361,-0.61736 z m 22.426586,-13.49375 c 0,-5.91784 0.04828,-8.33878 0.107283,-5.37986 0.059,2.95893 0.059,7.8008 0,10.75972 -0.059,2.95893 -0.107283,0.53799 -0.107283,-5.37986 z m 45.704514,10.45014 c 0,-0.0732 0.27782,-0.35107 0.61737,-0.61736 0.55952,-0.43881 0.572,-0.42633 0.13319,0.13319 -0.46086,0.58764 -0.75056,0.77452 -0.75056,0.48417 z m 3.88056,-4.23333 c 0,-0.0733 0.27781,-0.35107 0.61736,-0.61736 0.55953,-0.43881 0.572,-0.42633 0.13319,0.13319 -0.46085,0.58764 -0.75055,0.77452 -0.75055,0.48417 z m -40.60361,-4.76243 c -0.76012,-0.61551 -0.818952,-0.92611 -0.832836,-4.39711 -0.01681,-4.20147 0.322196,-4.93597 2.278116,-4.93597 1.94992,0 2.29305,0.73666 2.29305,4.92286 0,3.48624 -0.0528,3.76526 -0.83283,4.39747 -1.04984,0.85094 -1.86596,0.85452 -2.9055,0.0127 z m 48.01194,-3.35146 c 0,-0.0733 0.27781,-0.35107 0.61736,-0.61736 0.55953,-0.43881 0.57201,-0.42633 0.1332,0.13319 -0.46086,0.58764 -0.75056,0.77452 -0.75056,0.48417 z m -94.401564,-1.01333 -0.672037,-0.79375 0.79375,0.67203 c 0.745929,0.63155 0.954348,0.91547 0.672037,0.91547 -0.06694,0 -0.42413,-0.35719 -0.79375,-0.79375 z m -3.362869,-3.70417 c -0.43881,-0.55953 -0.426332,-0.572 0.133193,-0.13319 0.587639,0.46085 0.774516,0.75055 0.484168,0.75055 -0.07326,0 -0.351069,-0.27781 -0.617361,-0.61736 z m 47.107229,-9.43156 c -3.023817,-0.65788 -5.522831,-1.80667 -7.845973,-3.60676 -3.423685,-2.65286 -5.509202,-5.70758 -6.776908,-9.92636 -0.655666,-2.18197 -0.751117,-3.15808 -0.603705,-6.17361 0.329557,-6.74155 3.165596,-11.68637 8.844266,-15.42057 6.153938,-4.04673 14.965194,-3.94756 21.273144,0.23943 8.65947,5.74782 11.19633,17.69736 5.61081,26.42893 -4.35528,6.8084 -12.5491,10.18916 -20.501634,8.45894 z m 64.768314,-1.37316 c 0,-0.0733 0.27781,-0.35107 0.61736,-0.61736 0.55953,-0.43881 0.57201,-0.42633 0.1332,0.13319 -0.46086,0.58764 -0.75056,0.77452 -0.75056,0.48417 z m 7.40833,-8.11389 c 0,-0.0733 0.27782,-0.35107 0.61737,-0.61736 0.55952,-0.43881 0.572,-0.42633 0.13319,0.13319 -0.46086,0.58764 -0.75056,0.77452 -0.75056,0.48417 z M 31.969589,136.525 c -0.43881,-0.55952 -0.426333,-0.572 0.133193,-0.13319 0.339548,0.26629 0.617361,0.5441 0.617361,0.61736 0,0.29035 -0.289696,0.10347 -0.750554,-0.48417 z m 142.919991,-3.04361 c 0,-0.0733 0.27781,-0.35107 0.61736,-0.61736 0.55952,-0.43881 0.572,-0.42633 0.13319,0.13319 -0.46086,0.58764 -0.75055,0.77452 -0.75055,0.48417 z M 28.089033,132.29167 c -0.43881,-0.55953 -0.426332,-0.572 0.133193,-0.13319 0.587639,0.46085 0.774516,0.75055 0.484168,0.75055 -0.07326,0 -0.351068,-0.27781 -0.617361,-0.61736 z m 151.341657,-5.99722 c -0.43881,-0.55953 -0.42633,-0.57201 0.13319,-0.1332 0.58764,0.46086 0.77452,0.75056 0.48417,0.75056 -0.0733,0 -0.35107,-0.27781 -0.61736,-0.61736 z m -7.05556,-7.76111 c -0.43881,-0.55953 -0.42633,-0.57201 0.1332,-0.1332 0.33954,0.2663 0.61736,0.54411 0.61736,0.61737 0,0.29034 -0.2897,0.10347 -0.75056,-0.48417 z M 32.190976,118.09237 c 0.351185,-0.38806 0.717894,-0.70556 0.814908,-0.70556 0.09701,0 -0.110945,0.3175 -0.46213,0.70556 -0.351186,0.38805 -0.717894,0.70555 -0.814908,0.70555 -0.09701,0 0.110945,-0.3175 0.46213,-0.70555 z M 168.49458,114.3 c -0.43881,-0.55952 -0.42633,-0.572 0.13319,-0.13319 0.58764,0.46086 0.77452,0.75056 0.48417,0.75056 -0.0733,0 -0.35107,-0.27782 -0.61736,-0.61737 z m -132.952215,0.13139 c 0,-0.0732 0.277812,-0.35106 0.617361,-0.61736 0.559525,-0.43881 0.572003,-0.42633 0.133193,0.1332 -0.460858,0.58764 -0.750554,0.77451 -0.750554,0.48416 z m 85.526415,-3.48277 -1.03614,-1.14653 1.14652,1.03614 c 0.63059,0.56988 1.14653,1.08581 1.14653,1.14653 0,0.27254 -0.29109,0.0326 -1.25691,-1.03614 z m -81.64586,-0.75056 c 0,-0.0733 0.277812,-0.35107 0.617361,-0.61736 0.559525,-0.43881 0.572003,-0.42633 0.133193,0.13319 -0.460858,0.58764 -0.750554,0.77452 -0.750554,0.48417 z m 73.0807,-5.86403 c 0,-0.48507 0.0801,-0.6835 0.17793,-0.44097 0.0979,0.24254 0.0979,0.63941 0,0.88195 -0.0979,0.24253 -0.17793,0.0441 -0.17793,-0.44098 z m -11.90728,-2.85889 c -0.56454,-0.6235 -0.672036,-1.29456 -0.672036,-4.19539 0,-2.900385 0.107576,-3.572191 0.672036,-4.196666 0.83562,-0.924473 1.99286,-0.950428 3.08124,-0.06911 0.78108,0.632477 0.83283,0.908282 0.83283,4.43816 0,3.318566 -0.081,3.823006 -0.68478,4.264506 -0.99056,0.72431 -2.45389,0.61488 -3.22929,-0.2415 z m 49.55379,-7.283467 c -0.43881,-0.559526 -0.42633,-0.572003 0.1332,-0.133194 0.33955,0.266293 0.61736,0.544105 0.61736,0.617362 0,0.290348 -0.2897,0.10347 -0.75056,-0.484168 z M 60.236807,87.267508 c 0,-0.07326 0.277813,-0.351069 0.617361,-0.617361 0.559525,-0.43881 0.572003,-0.426332 0.133193,0.133193 -0.460858,0.587639 -0.750554,0.774516 -0.750554,0.484168 z m 40.447733,-2.275835 c -0.46598,-0.514898 -0.58385,-1.400048 -0.58385,-4.384523 0,-4.150431 0.30461,-4.848115 2.11667,-4.848115 0.78013,0 2.03967,0.69342 2.12834,1.171726 0.006,0.03465 0.10091,1.571121 0.20997,3.414385 0.18165,3.070231 0.13413,3.432776 -0.56645,4.321527 -0.9033,1.145921 -2.42622,1.295693 -3.30468,0.325 z m 38.17671,-3.147222 c -0.43881,-0.559525 -0.42634,-0.572003 0.13319,-0.133193 0.33955,0.266293 0.61736,0.544105 0.61736,0.617361 0,0.290348 -0.2897,0.103471 -0.75055,-0.484168 z m -3.88056,-4.233333 c -0.43881,-0.559525 -0.42633,-0.572003 0.13319,-0.133193 0.33955,0.266293 0.61737,0.544105 0.61737,0.617361 0,0.290348 -0.2897,0.103471 -0.75056,-0.484168 z m -3.52778,-3.880555 c -0.43881,-0.559525 -0.42633,-0.572003 0.1332,-0.133193 0.33955,0.266292 0.61736,0.544105 0.61736,0.617361 0,0.290348 -0.2897,0.103471 -0.75056,-0.484168 z M 75.40625,70.686954 c 0,-0.07326 0.277813,-0.351069 0.617361,-0.617361 0.559526,-0.43881 0.572003,-0.426333 0.133194,0.133193 -0.460859,0.587638 -0.750555,0.774516 -0.750555,0.484168 z m 52.16611,-1.189724 c -0.43881,-0.559525 -0.42633,-0.572003 0.13319,-0.133193 0.58764,0.460858 0.77452,0.750554 0.48417,0.750554 -0.0733,0 -0.35107,-0.277812 -0.61736,-0.617361 z m -26.81522,-1.115075 c -0.779416,-0.630865 -0.832836,-0.911284 -0.832836,-4.371816 0,-3.14087 0.101206,-3.80967 0.672036,-4.441174 0.83563,-0.924442 1.99287,-0.950385 3.08124,-0.06907 0.77941,0.631127 0.83283,0.911617 0.83283,4.372684 0,3.141752 -0.10113,3.810049 -0.67203,4.440891 -0.83579,0.923532 -1.99309,0.949256 -3.08124,0.06849 z M 78.934028,66.806398 c 0,-0.07326 0.277812,-0.351068 0.617361,-0.617361 0.559525,-0.43881 0.572003,-0.426332 0.133193,0.133193 -0.460858,0.587639 -0.750554,0.774516 -0.750554,0.484168 z m 45.463332,-0.836945 c -0.43881,-0.559526 -0.42633,-0.572003 0.13319,-0.133193 0.58764,0.460858 0.77452,0.750554 0.48417,0.750554 -0.0733,0 -0.35107,-0.277813 -0.61736,-0.617361 z M 82.814583,62.573065 c 0,-0.07326 0.277813,-0.351068 0.617361,-0.617361 0.559525,-0.43881 0.572003,-0.426332 0.133193,0.133193 -0.460858,0.587639 -0.750554,0.774516 -0.750554,0.484168 z m 31.352217,-7.8925 c -0.43881,-0.559525 -0.42633,-0.572003 0.1332,-0.133193 0.33955,0.266292 0.61736,0.544104 0.61736,0.617361 0,0.290348 -0.2897,0.10347 -0.75056,-0.484168 z m -12.70766,-2.623598 c -1.38399,-0.47672 -1.824837,-1.924614 -1.642681,-5.395135 0.176232,-3.357655 0.758891,-4.416683 2.429971,-4.416683 1.72578,0 2.44117,1.386939 2.43556,4.72188 -0.003,1.574563 -0.10221,3.226387 -0.22123,3.67072 -0.29921,1.116971 -1.80802,1.83036 -3.00162,1.419218 z"
         id="path2"
         sodipodi:nodetypes="ssssscssssssssssssssssssssssssscssssccsssssssssssssssssssssssssssscssscccssssscssssssssssssssssssssssssssssssssssssssssssssssssssssssssscsssssssscsssssssssssssssssssscsssssssssssssssssssssssssssssssssssssssssssssssssscss" /><path
         style="fill:#13304f"
         d="M 82.756121,191.92101 C 77.840567,186.54218 71.993126,180.14612 69.761806,177.70755 67.530487,175.26898 60.148613,167.1759 53.357641,159.72292 46.566669,152.26994 37.158303,141.97038 32.450161,136.835 c -8.491167,-9.2617 -8.554985,-9.34298 -7.906842,-10.0711 0.359379,-0.40372 4.13212,-4.54957 8.38387,-9.213 4.251749,-4.66343 13.065212,-14.34718 19.585473,-21.519445 6.520261,-7.172262 14.540357,-15.977351 17.822436,-19.566864 3.282078,-3.589514 9.363568,-10.257013 13.51442,-14.816666 4.150853,-4.559652 7.681684,-8.343815 7.846291,-8.409251 0.164607,-0.06544 0.293527,11.544503 0.28649,25.799863 l -0.0128,25.918833 -2.19621,1.12834 c -6.64683,3.41491 -11.440972,9.62073 -13.357903,17.29126 -0.618365,2.47437 -0.715754,3.66365 -0.563325,6.87917 0.335048,7.06788 2.600801,12.14651 7.636394,17.11678 2.433088,2.40152 6.1289,5.10184 7.837643,5.72651 0.28396,0.10381 0.825758,48.60126 0.542957,48.60126 -0.09656,0 -4.197385,-4.40086 -9.112938,-9.77968 z m 29.691789,-14.30858 v -24.14706 l 2.91042,-1.68489 c 5.73943,-3.32264 10.14823,-8.71372 12.25949,-14.99089 1.1803,-3.50927 1.35776,-9.48479 0.4005,-13.48556 -1.74134,-7.27771 -6.60174,-13.61845 -12.97966,-16.93286 -1.92398,-0.99984 -2.19378,-1.27098 -2.36491,-2.37662 -0.10624,-0.68641 -0.19653,-12.519266 -0.20065,-26.295237 l -0.008,-25.04722 0.9613,1.092426 c 2.06187,2.34314 14.45102,15.979679 23.36609,25.718683 5.15076,5.626805 13.48281,14.754929 18.51566,20.28472 5.03285,5.529788 12.48964,13.713768 16.57064,18.186618 4.081,4.47285 7.69532,8.45133 8.03181,8.84107 0.59519,0.68939 0.47072,0.86151 -4.58612,6.34154 -2.85885,3.09809 -8.21415,8.9522 -11.90068,13.00911 -3.68653,4.05692 -11.94153,13.10945 -18.34444,20.11673 -6.40292,7.00729 -14.49917,15.90696 -17.99167,19.77704 -10.99956,12.18875 -14.0409,15.50081 -14.34493,15.62187 -0.16244,0.0647 -0.29535,-10.74859 -0.29535,-24.02947 z"
         id="path1"
         sodipodi:nodetypes="ssssssssssscssssssssccsssssccsssssssssscc" /></g></g></svg>
