<?xml version="1.0" encoding="UTF-8" standalone="no"?>
<!-- Created with Inkscape (http://www.inkscape.org/) -->

<svg
   width="264.2355mm"
   height="96.622223mm"
   viewBox="0 0 264.2355 96.622221"
   version="1.1"
   id="svg1"
   xml:space="preserve"
   inkscape:version="1.4.2 (f4327f4, 2025-05-13)"
   sodipodi:docname="icon-technique-scale.svg"
   xmlns:inkscape="http://www.inkscape.org/namespaces/inkscape"
   xmlns:sodipodi="http://sodipodi.sourceforge.net/DTD/sodipodi-0.dtd"
   xmlns="http://www.w3.org/2000/svg"
   xmlns:svg="http://www.w3.org/2000/svg"><sodipodi:namedview
     id="namedview1"
     pagecolor="#ffffff"
     bordercolor="#000000"
     borderopacity="0.25"
     inkscape:showpageshadow="2"
     inkscape:pageopacity="0.0"
     inkscape:pagecheckerboard="0"
     inkscape:deskcolor="#d1d1d1"
     inkscape:document-units="mm"
     inkscape:zoom="0.72604517"
     inkscape:cx="517.87411"
     inkscape:cy="357.41578"
     inkscape:window-width="1920"
     inkscape:window-height="1017"
     inkscape:window-x="-8"
     inkscape:window-y="-8"
     inkscape:window-maximized="1"
     inkscape:current-layer="layer1" /><defs
     id="defs1" /><g
     inkscape:label="Слой 1"
     inkscape:groupmode="layer"
     id="layer1"
     transform="translate(32.182504,-53.951713)"><path
       style="fill:#c7ebf8"
       d="M 184.25162,102.24092 V 54.260681 l 23.9007,0.09066 23.90069,0.09066 -0.007,4.145135 c -0.004,2.27983 -0.0434,23.83014 -0.0882,47.889584 l -0.0814,43.74444 h -23.8125 -23.8125 z M -30.686089,54.011001 c 0.626263,-0.07793 1.737513,-0.07921 2.469444,-0.0028 0.731932,0.07637 0.219536,0.140131 -1.138659,0.141696 -1.358194,0.0016 -1.957047,-0.06092 -1.330785,-0.13885 z m 41.464105,0.0015 c 0.536244,-0.08109 1.329994,-0.07892 1.763889,0.0048 0.433894,0.08374 -0.0049,0.150081 -0.97499,0.147432 -0.970139,-0.0026 -1.325143,-0.07116 -0.788899,-0.152247 z"
       id="path5"
       sodipodi:nodetypes="cccccccccccccccccccc" /><path
       style="fill:#d1dae1"
       d="m -20.800443,150.3095 c 6.451422,-0.0538 17.0082966,-0.0538 23.4597197,0 6.4514231,0.0538 1.172986,0.0979 -11.7298601,0.0979 -12.9028456,0 -18.1812826,-0.044 -11.7298596,-0.0979 z M 15.79527,102.59617 c 0,-26.484794 0.04191,-37.319484 0.09313,-24.077084 0.05122,13.24239 0.05122,34.911764 0,48.154164 -0.05122,13.24239 -0.09313,2.40771 -0.09313,-24.07708 z m 6.264692,18.9618 0.0861,-29.015974 0.09235,28.839584 0.09235,28.83958 H 45.78716 69.243559 l 0.09072,-48.06596 0.09072,-48.065977 0.08692,48.242357 0.08692,48.24236 H 45.786357 21.973859 Z m 53.690023,28.55543 c -0.0972,-0.2533 -0.126542,-2.43611 -0.06521,-4.85069 l 0.11152,-4.39016 0.07628,4.67186 0.07628,4.67186 24.077085,0.0931 24.07708,0.0931 -24.08816,0.0857 c -19.551872,0.0696 -24.121429,-0.001 -24.264874,-0.37484 z M 130.27663,102.24091 V 54.260646 l 23.7243,0.09068 23.72431,0.09068 v 47.889564 47.88957 l -23.72431,1e-5 -23.7243,1e-5 z m -54.584469,35.28025 c 0,-0.87312 0.0688,-1.23031 0.152882,-0.79375 0.08409,0.43657 0.08409,1.15094 0,1.5875 -0.08409,0.43657 -0.152882,0.0794 -0.152882,-0.79375 z m 0.02718,-7.05555 c 0,-1.64924 0.06077,-2.32392 0.13504,-1.49931 0.07427,0.82462 0.07427,2.174 0,2.99861 -0.07427,0.82462 -0.13504,0.14994 -0.13504,-1.4993 z m 48.303369,1.41111 c 0,-0.87312 0.0688,-1.23031 0.15289,-0.79375 0.0841,0.43656 0.0841,1.15094 0,1.5875 -0.0841,0.43656 -0.15289,0.0794 -0.15289,-0.79375 z M 75.764937,85.310056 c 0,-17.17146 0.04303,-24.19615 0.09563,-15.61042 0.0526,8.58573 0.0526,22.6351 0,31.220834 -0.0526,8.58573 -0.09563,1.56104 -0.09563,-15.610414 z m 48.271003,16.051394 c 0.002,-1.16417 0.0678,-1.597894 0.14636,-0.96383 0.0785,0.63407 0.0769,1.58657 -0.004,2.11667 -0.0805,0.5301 -0.14474,0.0113 -0.14276,-1.15284 z m -0.0536,-12.523614 c 0,-0.48507 0.0801,-0.68351 0.17794,-0.44098 0.0979,0.24254 0.0979,0.63941 0,0.88195 -0.0979,0.24253 -0.17794,0.0441 -0.17794,-0.44097 z M 22.062823,86.897556 c 0.0039,-0.77611 0.07616,-1.05208 0.160542,-0.61325 0.08438,0.43882 0.08118,1.07382 -0.0071,1.41111 -0.0883,0.33729 -0.157337,-0.0217 -0.153422,-0.79786 z M 124.07918,76.843386 c 0,-4.75368 0.0499,-6.69837 0.11097,-4.32153 0.061,2.37684 0.061,6.26622 0,8.64306 -0.061,2.37684 -0.11097,0.43215 -0.11097,-4.32153 z m -101.989561,5.11528 c 0.0016,-1.3582 0.06533,-1.87059 0.141696,-1.13866 0.07637,0.73193 0.07509,1.84318 -0.0028,2.46944 -0.07793,0.62627 -0.140416,0.0274 -0.138851,-1.33078 z m 0.02443,-8.64306 c 0,-2.8134 0.05479,-3.96434 0.121748,-2.55763 0.06696,1.4067 0.06696,3.70857 0,5.11527 -0.06696,1.4067 -0.121748,0.25577 -0.121748,-2.55764 z"
       id="path4"
       sodipodi:nodetypes="csscssssccccccccccccccscccccccccccccccccsssssssssssssssscccccscsscscccscsscscccssss" /><path
       style="fill:#9ca6ae"
       d="m 14.477332,150.3403 c 0.242534,-0.0979 0.639409,-0.0979 0.881944,0 0.242535,0.0979 0.0441,0.17794 -0.440972,0.17794 -0.48507,0 -0.683507,-0.0801 -0.440972,-0.17794 z m -46.659836,-48.09691 c 0,-26.484794 0.04191,-37.319484 0.09313,-24.077084 0.05122,13.24239 0.05122,34.911774 0,48.154164 -0.05122,13.2424 -0.09313,2.40771 -0.09313,-24.07708 z m 108.131358,-0.002 V 54.260681 l 23.900696,0.09066 23.90069,0.09066 0.0895,47.889579 0.0895,47.88958 H 99.93901 75.948854 Z M 22.089619,90.425326 c 0.0016,-1.35819 0.06533,-1.87059 0.141696,-1.13865 0.07637,0.73193 0.07509,1.84318 -0.0028,2.46944 -0.07793,0.62626 -0.140416,0.0274 -0.138851,-1.33079 z m -0.06006,-5.46805 c 0,-0.48507 0.08007,-0.68351 0.177937,-0.44097 0.09786,0.24253 0.09786,0.63941 0,0.88194 -0.09786,0.24254 -0.177937,0.0441 -0.177937,-0.44097 z m 0,-5.99722 c 0,-0.48507 0.08007,-0.68351 0.177937,-0.44097 0.09786,0.24253 0.09786,0.63941 0,0.88194 -0.09786,0.24253 -0.177937,0.0441 -0.177937,-0.44097 z m 0.0931,-17.63889 c 0,-3.97757 0.05145,-5.604756 0.11433,-3.61597 0.06288,1.98878 0.06288,5.24316 0,7.23194 -0.06288,1.98879 -0.11433,0.3616 -0.11433,-3.61597 z m 12.639393,-6.96718 c 6.160382,-0.05406 16.241006,-0.05406 22.401387,0 6.160382,0.05406 1.12007,0.09829 -11.200693,0.09829 -12.320763,0 -17.361075,-0.04423 -11.200694,-0.09829 z"
       id="path3"
       sodipodi:nodetypes="csscssssccccccccccscccssssssssssssssss" /><path
       style="fill:#6585a5"
       d="m 22.326616,102.33158 -2e-5,-47.889579 23.371546,0.0824 23.371546,0.0824 0.08946,47.807179 0.08946,47.80718 H 45.787621 22.326636 Z m -7.055535,-0.0669 v -47.6037 l -1.322916,-0.138381 -1.322917,-0.138381 1.499306,-0.0593 1.499305,-0.0593 v 47.801392 c 0,26.29076 -0.07937,47.80139 -0.176389,47.80139 -0.09701,0 -0.176389,-21.42167 -0.176389,-47.6037 z M -28.727298,54.358649 c 0.927486,-0.07291 2.356236,-0.07203 3.174999,0.002 0.818764,0.07399 0.05991,0.13364 -1.686338,0.132565 -1.74625,-0.0011 -2.416148,-0.06161 -1.488661,-0.13452 z m 17.451854,-0.0039 c 2.5708675,-0.06028 6.7777421,-0.06028 9.34861,0 2.5708678,0.06027 0.4674305,0.109591 -4.6743052,0.109591 -5.1417358,0 -7.2451728,-0.04932 -4.6743048,-0.109591 z m 16.5898788,0.0049 c 0.829747,-0.07452 2.099747,-0.07347 2.822222,0.0023 0.722475,0.0758 0.04359,0.136777 -1.50863,0.135496 -1.552222,-0.0013 -2.1433387,-0.0633 -1.313592,-0.137826 z"
       id="path2"
       sodipodi:nodetypes="cccccccccccccccsssccccccccscccccc" /><path
       style="fill:#1a436c"
       d="m -32.001155,102.3316 -1.7e-5,-47.889579 22.4895987,0.06657 c 12.3692796,0.03662 23.0044053,0.0763 23.6336123,0.08819 l 1.144013,0.02162 0.09071,47.801399 0.09071,47.8014 -23.7243035,-1e-5 -23.7243035,-2e-5 z"
       id="path1"
       sodipodi:nodetypes="cccscccccc" /></g></svg>
