<?xml version="1.0" encoding="UTF-8" standalone="no"?>
<!-- Created with Inkscape (http://www.inkscape.org/) -->

<svg
   width="154.50636mm"
   height="170.04375mm"
   viewBox="0 0 154.50636 170.04375"
   version="1.1"
   id="svg1"
   xml:space="preserve"
   inkscape:version="1.4.2 (f4327f4, 2025-05-13)"
   sodipodi:docname="icon-stena.svg"
   xmlns:inkscape="http://www.inkscape.org/namespaces/inkscape"
   xmlns:sodipodi="http://sodipodi.sourceforge.net/DTD/sodipodi-0.dtd"
   xmlns="http://www.w3.org/2000/svg"
   xmlns:svg="http://www.w3.org/2000/svg"><sodipodi:namedview
     id="namedview1"
     pagecolor="#ffffff"
     bordercolor="#000000"
     borderopacity="0.25"
     inkscape:showpageshadow="2"
     inkscape:pageopacity="0.0"
     inkscape:pagecheckerboard="0"
     inkscape:deskcolor="#d1d1d1"
     inkscape:document-units="mm"
     inkscape:zoom="0.51339147"
     inkscape:cx="34.087049"
     inkscape:cy="135.37428"
     inkscape:window-width="1920"
     inkscape:window-height="1017"
     inkscape:window-x="-8"
     inkscape:window-y="-8"
     inkscape:window-maximized="1"
     inkscape:current-layer="layer1" /><defs
     id="defs1" /><g
     inkscape:label="Слой 1"
     inkscape:groupmode="layer"
     id="layer1"
     transform="translate(-33.247512,-34.595188)"><path
       style="fill:#183450"
       d="m 59.813708,203.81894 -0.98981,-0.85084 -0.10572,-8.67416 -0.10572,-8.67416 h -0.83882 c -0.486,0 -1.14634,-0.39096 -1.56997,-0.92952 -0.69096,-0.87841 -0.73116,-1.37015 -0.73116,-8.94319 0,-8.75792 0.19829,-9.95518 1.78462,-10.7755 1.46852,-0.75941 14.03226,-0.74906 15.50547,0.0128 1.62137,0.83844 1.82155,2.17988 1.69573,11.36312 -0.12107,8.83708 -0.17838,9.09888 -2.05408,9.38426 l -0.88035,0.13394 -0.17639,8.72827 c -0.17478,8.64876 -0.18397,8.73441 -1.00922,9.40206 -1.05957,0.85723 -2.2137,0.85721 -3.27322,-6e-5 -0.82877,-0.67057 -0.83335,-0.71622 -0.93856,-9.34861 l -0.10572,-8.67476 h -1.26324 -1.26325 l 0.16503,7.84931 c 0.0908,4.31711 0.0252,8.36337 -0.14578,8.99168 -0.53049,1.94988 -2.10374,2.3774 -3.69984,1.00539 z M 33.247512,193.02812 v -10.58334 h 8.422569 c 4.632413,0 8.904079,0.0963 9.492591,0.21401 0.910316,0.18206 1.127936,0.444 1.458036,1.75496 0.2325,0.92333 0.87155,2.02449 1.59442,2.74736 l 1.2064,1.2064 0.11369,7.62232 0.11368,7.62232 -11.200692,-3.5e-4 -11.200694,-3.5e-4 z m 41.212506,2.94132 c 0.11349,-7.61493 0.11702,-7.64518 0.97237,-8.31799 1.1268,-0.88634 1.65371,-1.89372 1.89302,-3.61917 0.194,-1.39878 0.21019,-1.41204 1.85283,-1.51787 1.29455,-0.0834 1.81557,0.0517 2.38125,0.61736 0.69328,0.69327 0.72413,1.11589 0.72413,9.91954 0,5.664 -0.14025,9.45747 -0.36519,9.87777 -0.32444,0.60623 -0.76727,0.68241 -3.96875,0.68272 l -3.60356,3.5e-4 z m 12.12749,7.21867 c -0.30893,-0.30893 -0.42333,-3.07032 -0.42333,-10.21814 0,-9.32279 0.0329,-9.81241 0.68236,-10.16 0.45042,-0.24106 8.52596,-0.36519 23.757822,-0.36519 21.90711,0 23.10502,0.0327 23.6593,0.64514 0.51205,0.5658 0.58385,1.78339 0.58385,9.90097 0,5.70565 -0.14008,9.51756 -0.36519,9.93819 -0.35546,0.66418 -0.99309,0.68237 -23.91834,0.68237 -17.848742,0 -23.655672,-0.10253 -23.976472,-0.42334 z m 52.563882,0 c -0.30893,-0.30893 -0.42333,-3.07032 -0.42333,-10.21814 0,-9.32279 0.0329,-9.81241 0.68236,-10.16 0.45059,-0.24114 8.58433,-0.36519 23.9457,-0.36519 21.19649,0 23.30634,0.0518 23.74749,0.58262 0.61574,0.74095 0.9145,18.10632 0.33761,19.62365 l -0.36514,0.9604 H 163.3254 c -18.00237,0 -23.85313,-0.10246 -24.17401,-0.42334 z M 33.688484,178.69087 c -0.338336,-0.14228 -0.440972,-2.55976 -0.440972,-10.3866 0,-5.61063 0.03969,-10.2128 0.08819,-10.22704 0.04851,-0.0142 5.25142,-0.1045 11.562031,-0.20057 l 11.473835,-0.17468 0.44858,1.52349 c 0.24672,0.83791 0.52759,1.70297 0.62417,1.92235 0.0966,0.21938 -0.20241,0.49375 -0.66441,0.6097 -1.26231,0.31682 -2.65917,1.54867 -3.3945,2.99353 -0.54804,1.07685 -0.67989,2.33699 -0.79931,7.63957 l -0.143,6.35 -9.156825,0.0678 c -5.036252,0.0373 -9.355259,-0.0156 -9.597794,-0.11759 z m 44.626384,-0.0236 -0.97014,-0.14993 v -6.16423 c 0,-5.44452 -0.0815,-6.32388 -0.69757,-7.53158 -0.72065,-1.4126 -2.04473,-2.5567 -3.67717,-3.17735 -0.87209,-0.33157 -0.90354,-0.41402 -0.44082,-1.15532 0.27406,-0.43904 0.59958,-1.23482 0.72337,-1.7684 l 0.22508,-0.97014 h 3.61895 c 5.57897,0 5.18705,-0.78273 5.18705,10.35952 0,6.94659 -0.11236,9.41484 -0.44957,9.87601 -0.47632,0.6514 -1.91316,0.92961 -3.51918,0.68142 z m 8.46667,-0.1272 c -0.56454,-0.33258 -0.61736,-1.20638 -0.61736,-10.21153 0,-9.37522 0.0327,-9.86537 0.68236,-10.21303 0.45045,-0.24107 8.53511,-0.36519 23.787302,-0.36519 20.53412,0 23.16662,0.0617 23.6593,0.55437 0.47655,0.47654 0.55361,1.87548 0.54896,9.96597 -0.003,5.3121 -0.15106,9.6421 -0.33981,9.94077 -0.29091,0.46032 -3.37666,0.53978 -23.7189,0.61075 -15.568662,0.0543 -23.590832,-0.04 -24.001852,-0.28211 z m 52.563882,0.008 c -0.56433,-0.34021 -0.61736,-1.21809 -0.61736,-10.22001 0,-9.37522 0.0327,-9.86537 0.68236,-10.21303 0.45059,-0.24114 8.58433,-0.36519 23.9457,-0.36519 21.20722,0 23.30612,0.0516 23.74749,0.58327 0.38128,0.45933 0.49317,2.58844 0.52653,10.01932 0.0233,5.18983 -0.0899,9.65017 -0.25156,9.91187 -0.24094,0.39008 -4.5394,0.49205 -23.85485,0.56589 -16.05527,0.0614 -23.75762,-0.0285 -24.17831,-0.28212 z M 62.158338,161.5415 c -1.63324,-1.10063 -2.56803,-2.83547 -2.53964,-4.71321 0.081,-5.35677 6.85474,-7.38592 9.87673,-2.95868 1.09745,1.60777 1.09421,4.38495 -0.007,6.03342 -1.59717,2.39082 -5.0638,3.1657 -7.33006,1.63847 z M 33.247512,143.63923 V 133.0559 h 10.606525 c 6.636713,0 10.861921,0.13668 11.288891,0.36519 0.64948,0.34759 0.68236,0.83721 0.68236,10.16 0,7.14781 -0.1144,9.90921 -0.42333,10.21814 -0.31094,0.31093 -3.30827,0.42333 -11.288891,0.42333 H 33.247512 Z m 39.518116,9.71983 c -0.63147,-1.6609 -2.81944,-3.66825 -4.81016,-4.41308 -2.34836,-0.87863 -3.63314,-0.89091 -6.04476,-0.0578 l -1.85209,0.63983 v -7.81273 c 0,-5.6062 0.11956,-7.9323 0.42334,-8.23607 0.61201,-0.61202 46.519092,-0.61202 47.131102,0 0.60372,0.60372 0.60372,19.71628 0,20.32 -0.31758,0.31758 -4.68212,0.42333 -17.471232,0.42333 h -17.04789 z m 39.705692,0.30914 c -0.82554,-0.82554 -0.83021,-18.65039 -0.005,-19.82825 l 0.54917,-0.78405 h 23.23813 c 20.6552,0 23.29975,0.0616 23.7925,0.55436 0.47682,0.47683 0.55436,1.89798 0.55436,10.16 0,7.00068 -0.1148,9.72044 -0.42333,10.02897 -0.32074,0.32074 -6.0857,0.42333 -23.7873,0.42333 -20.7696,0 -23.42553,-0.0616 -23.91833,-0.55436 z m 52.62688,0.17333 c -0.56463,-0.32887 -0.61736,-1.20069 -0.61736,-10.20742 0,-9.37521 0.0327,-9.86536 0.68236,-10.21302 0.42747,-0.22878 4.69089,-0.36519 11.41351,-0.36519 h 10.73115 l 0.22815,2.69906 c 0.28955,3.42532 0.29075,15.39609 0.002,17.14469 l -0.21867,1.32291 -10.80175,-0.0107 c -6.67824,-0.007 -11.03744,-0.148 -11.41912,-0.37031 z M 33.838179,129.08715 c -0.547354,-0.4006 -0.593901,-1.34535 -0.508398,-10.31875 l 0.09412,-9.87778 24.084877,-0.0906 24.08488,-0.0906 0.32231,0.84772 c 0.17726,0.46625 0.33644,4.79329 0.35373,9.61565 0.0267,7.45959 -0.0518,8.88636 -0.5265,9.56167 l -0.55792,0.79375 h -23.37229 c -18.141303,0 -23.507141,-0.0987 -23.974809,-0.44097 z m 52.916659,0 c -0.54735,-0.4006 -0.5939,-1.34535 -0.5084,-10.31875 l 0.0941,-9.87778 h 23.988892 23.98889 l 0.0939,9.83481 c 0.0664,6.96123 -0.0235,9.97621 -0.30778,10.31875 -0.56596,0.68195 -46.419652,0.72356 -47.349572,0.043 z m 52.204292,-0.20417 c -0.51241,-0.56621 -0.58385,-1.79103 -0.58385,-10.01097 0,-7.46947 0.0972,-9.44651 0.48011,-9.76428 0.34877,-0.28946 7.03179,-0.37365 24.42986,-0.30778 l 23.94975,0.0907 0.0939,9.83481 c 0.0664,6.96123 -0.0235,9.97621 -0.30778,10.31875 -0.33298,0.40122 -4.42507,0.48394 -23.93987,0.48394 -22.35544,0 -23.56758,-0.0324 -24.12208,-0.64514 z M 33.482697,104.59849 c -0.129351,-0.12935 -0.235185,-4.812475 -0.235185,-10.406945 v -10.17176 h 11.100087 c 10.777759,0 11.111169,0.0207 11.481679,0.71302 0.25404,0.47468 0.34663,3.83988 0.277,10.06744 -0.0878,7.852255 -0.18958,9.408075 -0.63377,9.688525 -0.59621,0.37643 -21.618207,0.48133 -21.989811,0.10972 z m 26.966241,-0.24875 c -0.28429,-0.34254 -0.37421,-3.35752 -0.30778,-10.318755 l 0.0938,-9.83481 23.73442,-0.0907 c 22.357722,-0.0854 23.749192,-0.0547 23.988892,0.52917 0.13996,0.34091 0.25447,4.8722 0.25447,10.06952 0,8.015855 -0.0803,9.500425 -0.52917,9.784185 -0.3194,0.2019 -9.706722,0.33665 -23.681112,0.33991 -19.19236,0.004 -23.22063,-0.0774 -23.55358,-0.47854 z m 52.211102,0 c -0.28428,-0.34254 -0.37421,-3.35752 -0.30778,-10.318755 l 0.0939,-9.83481 23.59693,-0.0907 c 17.13719,-0.0659 23.72837,0.0184 24.07708,0.30778 0.38317,0.318 0.48015,2.30865 0.48015,9.85509 0,8.126555 -0.078,9.534585 -0.55436,10.010975 -0.49274,0.49274 -3.13519,0.55437 -23.76931,0.55437 -19.24085,0 -23.28369,-0.0828 -23.61657,-0.48394 z m 52.24413,0.0606 c -0.30843,-0.30843 -0.42333,-3.0182 -0.42333,-9.983615 0,-6.9654 0.1149,-9.67517 0.42333,-9.98361 0.31123,-0.31122 3.34747,-0.42333 11.46528,-0.42333 h 11.04194 v 10.40694 10.406955 h -11.04194 c -8.11781,0 -11.15405,-0.11211 -11.46528,-0.42334 z M 33.682882,79.844963 C 33.336077,79.624828 33.257263,77.320707 33.330104,69.531616 l 0.0938,-10.029884 23.988884,-0.09172 c 22.23924,-0.08503 24.02105,-0.04795 24.42986,0.508398 0.56503,0.768937 0.63378,18.495822 0.0758,19.538452 -0.35554,0.664326 -0.99198,0.682221 -24.07708,0.676962 -13.04154,-0.003 -23.91285,-0.132961 -24.158466,-0.288866 z m 52.515586,-0.347206 c -0.48329,-0.903041 -0.51192,-18.574412 -0.0315,-19.472003 0.36818,-0.687959 0.79357,-0.700411 23.927992,-0.700411 17.84874,0 23.65567,0.102529 23.97647,0.423334 0.30888,0.308877 0.42334,3.064698 0.42334,10.192811 0,8.583052 -0.0678,9.795483 -0.55802,9.98361 -0.30691,0.117773 -11.09633,0.214133 -23.97648,0.214133 -22.277582,0 -23.435182,-0.03125 -23.761762,-0.641474 z m 52.542002,-0.04089 c -0.22532,-0.421022 -0.36519,-4.255158 -0.36519,-10.01097 0,-7.438071 0.0973,-9.409357 0.48011,-9.727061 0.34877,-0.289453 7.03179,-0.373649 24.42986,-0.307779 l 23.94975,0.09068 0.0938,10.029884 c 0.0728,7.789091 -0.006,10.093212 -0.35278,10.313347 -0.24562,0.155905 -11.11692,0.285895 -24.15847,0.288866 -23.0851,0.0053 -23.72154,-0.01264 -24.07708,-0.676962 z M 33.247512,45.042301 v -10.4114 h 12.304026 c 9.99547,0 12.37938,0.0908 12.70566,0.483939 0.28428,0.342539 0.37421,3.357523 0.30778,10.318749 l -0.0938,9.83481 -12.611806,0.09265 -12.611805,0.09265 z m 29.868516,10.167302 c -0.12935,-0.129352 -0.23519,-4.621976 -0.23519,-9.98361 0,-7.111738 0.1145,-9.862926 0.42334,-10.171759 0.32073,-0.32073 6.08169,-0.423333 23.7693,-0.423333 20.932142,0 23.394222,0.05813 23.812602,0.56225 0.36462,0.439351 0.45475,2.638629 0.41231,10.061411 -0.0299,5.224539 -0.15041,9.654651 -0.26786,9.844694 -0.24147,0.390706 -47.525252,0.499601 -47.914502,0.110347 z m 52.752032,-0.188148 c -0.30843,-0.308431 -0.42333,-3.01821 -0.42333,-9.98361 0,-6.965401 0.1149,-9.67518 0.42333,-9.983611 0.61207,-0.612062 46.87183,-0.612062 47.48389,0 0.60345,0.603453 0.60345,19.363768 0,19.967221 -0.61206,0.612062 -46.87182,0.612062 -47.48389,0 z m 52.21664,0.0055 c -0.60851,-0.608514 -0.61371,-19.364574 -0.006,-19.972752 0.30782,-0.307823 2.95795,-0.423333 9.71246,-0.423333 7.94669,0 9.31858,0.07675 9.49293,0.531112 0.1121,0.292111 0.22618,4.935549 0.25351,10.318749 l 0.0497,9.787637 -9.53711,0.09373 c -7.12209,0.06999 -9.6457,-0.01487 -9.96597,-0.335139 z"
       id="path1"
       sodipodi:nodetypes="ccccssssssscsssscccccscccssssccccccsssssssscsssssssssssssssscsscscscssssscsccscscssscssssssssscssssssssssssssscssccsssssccssscssssscscccssssscccssscsccccccscccscscsccssccccsssssssccsssssscsssssccccssscccscccsssssssssscccsssscssscssccsssssccssssccscssccsscccccssssscssssssssccssscscc" /><path
       style="fill:#018fd7;fill-opacity:1;stroke-width:0.688662"
       d="m 229.22043,771.81837 c -1.18175,-0.66284 -3.13415,-2.05452 -4.33866,-3.09261 l -2.19002,-1.88746 -0.40827,-32.71783 -0.40826,-32.71783 h -1.99099 c -2.75893,0 -5.65667,-1.63892 -7.51697,-4.25147 -1.45676,-2.04583 -1.6171,-3.26094 -2.20502,-16.71045 -0.40398,-9.24176 -0.38293,-20.68202 0.058,-31.53136 0.64057,-15.76097 0.81331,-17.27169 2.32289,-20.31554 2.50867,-5.05833 4.26833,-5.63861 19.84895,-6.54549 12.4907,-0.72704 34.99359,-0.0214 40.86847,1.28144 3.15946,0.70069 5.78877,3.9273 6.80513,8.35104 1.13056,4.92083 1.10051,55.2293 -0.0371,62.14654 -0.85587,5.20402 -2.5691,7.17542 -6.86668,7.9015 -2.00435,0.33863 -2.83359,0.85829 -3.12936,1.96108 -0.22132,0.82519 -0.42041,7.54336 -0.44242,14.92927 -0.0702,23.57788 -1.08915,47.11818 -2.13341,49.28995 -1.25377,2.60747 -5.09227,5.11438 -7.83098,5.11438 -2.76441,0 -6.58071,-2.51412 -7.86218,-5.17949 -0.77142,-1.60449 -1.08574,-8.58816 -1.50212,-33.37442 -0.28961,-17.23993 -0.54788,-31.4228 -0.57393,-31.51749 -0.0261,-0.0947 -2.29414,-0.17253 -5.04018,-0.17297 l -4.9928,-8e-4 0.47835,22.21017 c 0.5994,27.83072 0.15099,40.56258 -1.54752,43.93948 -1.97467,3.92596 -5.55078,5.02968 -9.36491,2.89036 z"
       id="path2"
       transform="scale(0.26458333)" /><path
       style="fill:#018fd7;fill-opacity:1;stroke-width:0.688662"
       d="m 240.04796,612.4924 c -6.11569,-1.86232 -11.66308,-7.69963 -13.57838,-14.28803 -4.29911,-14.78843 9.97114,-28.9159 24.84151,-24.59297 5.5676,1.61855 11.51156,7.41023 13.07236,12.73745 3.92664,13.40219 -4.48655,25.7399 -18.15044,26.61709 -2.10312,0.13501 -4.88639,-0.0781 -6.18505,-0.47354 z"
       id="path3"
       transform="scale(0.26458333)" /></g></svg>
