<?xml version="1.0" encoding="UTF-8" standalone="no"?>
<!-- Created with Inkscape (http://www.inkscape.org/) -->

<svg
   width="222.21245mm"
   height="157.35655mm"
   viewBox="0 0 222.21245 157.35655"
   version="1.1"
   id="svg1"
   xml:space="preserve"
   inkscape:version="1.4.2 (f4327f4, 2025-05-13)"
   sodipodi:docname="icon-molotok.svg"
   xmlns:inkscape="http://www.inkscape.org/namespaces/inkscape"
   xmlns:sodipodi="http://sodipodi.sourceforge.net/DTD/sodipodi-0.dtd"
   xmlns="http://www.w3.org/2000/svg"
   xmlns:svg="http://www.w3.org/2000/svg"><sodipodi:namedview
     id="namedview1"
     pagecolor="#ffffff"
     bordercolor="#000000"
     borderopacity="0.25"
     inkscape:showpageshadow="2"
     inkscape:pageopacity="0.0"
     inkscape:pagecheckerboard="0"
     inkscape:deskcolor="#d1d1d1"
     inkscape:document-units="mm"
     inkscape:zoom="0.72604517"
     inkscape:cx="415.26342"
     inkscape:cy="395.98087"
     inkscape:window-width="1920"
     inkscape:window-height="1017"
     inkscape:window-x="-8"
     inkscape:window-y="-8"
     inkscape:window-maximized="1"
     inkscape:current-layer="layer1" /><defs
     id="defs1" /><g
     inkscape:label="Слой 1"
     inkscape:groupmode="layer"
     id="layer1"
     transform="translate(4.6242812,-43.558478)"><g
       id="g1"
       transform="translate(1.8220857,-13.119018)"><path
         style="fill:#10a0de"
         d="m 165.31958,204.96364 c -0.43881,-0.55953 -0.42633,-0.57201 0.13319,-0.1332 0.33955,0.2663 0.61736,0.54411 0.61736,0.61736 0,0.29035 -0.28969,0.10347 -0.75055,-0.48416 z m 23.32833,-2.69084 c 0,-0.0733 0.27781,-0.35106 0.61736,-0.61736 0.55952,-0.43881 0.572,-0.42633 0.13319,0.1332 -0.46086,0.58763 -0.75055,0.77451 -0.75055,0.48416 z M 44.829854,201.78894 c 10.63791,-0.0519 27.941658,-0.0519 38.452774,2e-5 10.511116,0.0519 1.807372,0.0943 -19.341654,0.0943 -21.149027,-2e-5 -29.74903,-0.0425 -19.11112,-0.0943 z M 33.07292,190.63139 c 0,-0.0733 0.277813,-0.35107 0.617362,-0.61736 0.559525,-0.43881 0.572002,-0.42633 0.133193,0.13319 -0.460859,0.58764 -0.750555,0.77452 -0.750555,0.48417 z m 150.98888,-0.0846 c 2.07127,-0.26311 4.86038,-0.29085 4.70881,-0.0468 -0.0904,0.14552 -1.38529,0.2408 -2.87755,0.21172 -1.49226,-0.0291 -2.31633,-0.10327 -1.83126,-0.16489 z m 4.99459,-4.72114 c 0,-0.48507 0.0801,-0.6835 0.17793,-0.44097 0.0979,0.24254 0.0979,0.63941 0,0.88195 -0.0979,0.24253 -0.17793,0.0441 -0.17793,-0.44098 z m 26.45833,0 c 0,-0.48507 0.0801,-0.6835 0.17793,-0.44097 0.0979,0.24254 0.0979,0.63941 0,0.88195 -0.0979,0.24253 -0.17793,0.0441 -0.17793,-0.44098 z m -33.16111,-6.70277 c 0,-0.48507 0.0801,-0.68351 0.17794,-0.44098 0.0979,0.24254 0.0979,0.63941 0,0.88195 -0.0979,0.24253 -0.17794,0.0441 -0.17794,-0.44097 z m 7.4214,-3.35139 c 0.007,-0.58209 0.0863,-0.7775 0.1757,-0.43426 0.0894,0.34324 0.0836,0.81949 -0.0131,1.05833 -0.0966,0.23884 -0.16981,-0.042 -0.16263,-0.62407 z m -7.80203,-2.14607 c 0.0169,-0.41096 0.10052,-0.49456 0.21314,-0.21313 0.10191,0.25466 0.0894,0.55893 -0.0279,0.67615 -0.11723,0.11723 -0.20061,-0.0911 -0.18529,-0.46302 z m -84.341731,-0.98574 c 0,-0.0733 0.277812,-0.35107 0.617361,-0.61736 0.559525,-0.43881 0.572003,-0.42633 0.133193,0.1332 -0.460858,0.58763 -0.750554,0.77451 -0.750554,0.48416 z m 92.483471,-2.68903 c 0,-0.48507 0.0801,-0.6835 0.17794,-0.44097 0.0979,0.24254 0.0979,0.63941 0,0.88195 -0.0979,0.24253 -0.17794,0.0441 -0.17794,-0.44098 z m -8.46667,-2.46944 c 0,-0.48507 0.0801,-0.68351 0.17794,-0.44097 0.0979,0.24253 0.0979,0.63941 0,0.88194 -0.0979,0.24254 -0.17794,0.0441 -0.17794,-0.44097 z m -17.69458,-3.63816 c 0,-0.0607 0.51593,-0.57666 1.14652,-1.14653 l 1.14653,-1.03614 -1.03614,1.14652 c -0.96583,1.06873 -1.25691,1.30869 -1.25691,1.03615 z m -161.6450243,-5.375 c -1.3067059,-0.70929 -1.69380912,-2.69246 -0.7661483,-3.92506 0.7493182,-0.99563 10.7832556,-5.05345 12.4958776,-5.05345 1.198192,0 2.454191,1.42853 2.454191,2.79131 0,1.39491 -0.828665,2.31815 -2.715507,3.02542 -0.931818,0.34929 -3.476635,1.32654 -5.6551479,2.17167 -4.4046756,1.70875 -4.4691118,1.71972 -5.8132654,0.99011 z m 182.8998743,-4.2923 c 0.53358,-0.0808 1.40671,-0.0808 1.94028,0 0.53358,0.0808 0.097,0.14697 -0.97014,0.14697 -1.06715,0 -1.50371,-0.0661 -0.97014,-0.14697 z M 19.314588,151.25347 c -1.003491,-1.00349 -0.943389,-3.01654 0.118297,-3.96221 1.061441,-0.94545 18.788237,-8.03223 20.091736,-8.03223 2.167734,0 3.505421,2.87994 2.10316,4.52794 -0.796082,0.9356 -18.90882,8.17206 -20.454514,8.17206 -0.682753,0 -1.440926,-0.2878 -1.858679,-0.70556 z M -5.5722785,129.92646 c -1.1457506,-1.14576 -1.168109,-2.96054 -0.049422,-4.01149 0.798437,-0.75009 1.0363,-0.76705 10.7597214,-0.76705 9.4728641,0 9.9766111,0.0334 10.6487901,0.70556 1.151565,1.15156 1.055403,3.00176 -0.215439,4.14513 -0.869738,0.78251 -1.019652,0.79375 -10.5799901,0.79375 H -4.7063694 Z M 27.65244,130.0612 c -1.241575,-0.97662 -1.297644,-3.03335 -0.113032,-4.14623 0.80433,-0.75563 0.990207,-0.76705 12.484528,-0.76705 12.969436,0 12.914838,-0.01 13.373913,2.36712 0.183049,0.9477 0.04381,1.3073 -0.853745,2.20486 l -1.072467,1.07246 H 40.026798 c -11.04426,0 -11.477372,-0.0256 -12.374358,-0.73116 z m 34.578434,-12.69072 c -0.73748,-0.39526 -3.273778,-1.92724 -5.636219,-3.4044 -11.678038,-7.30188 -15.99052,-10.10445 -16.554374,-10.75825 -0.888137,-1.02982 -0.77964,-2.62414 0.248548,-3.652332 1.446532,-1.446532 2.659845,-1.171987 6.865768,1.553562 2.05348,1.33071 7.030721,4.52293 11.060536,7.09382 4.029815,2.57089 7.562002,5.00995 7.849305,5.42013 0.742436,1.05998 0.647404,2.17581 -0.271381,3.18645 -1.132908,1.24617 -2.022449,1.38627 -3.562183,0.56102 z M 64.395893,99.836117 C 63.894401,99.30254 60.680725,94.760259 57.254392,89.742158 53.828059,84.724056 50.160546,79.385103 49.104363,77.877818 46.829399,74.631201 46.577481,73.112357 48.11355,71.904085 c 1.04305,-0.820464 1.832831,-0.9111 3.022631,-0.346884 0.460171,0.218218 4.507178,5.780863 9.365209,12.872557 9.350449,13.649669 9.575473,14.111364 7.625341,15.645342 -1.293544,1.0175 -2.630391,0.93187 -3.730838,-0.238983 z M 24.172066,82.896 C 14.723302,73.447236 14.023696,72.662117 14.034142,71.518918 c 0.01802,-1.971924 1.500456,-3.253464 3.353686,-2.899197 0.89248,0.170609 20.284031,19.439264 20.70297,20.571764 0.39638,1.071518 -0.02928,2.352236 -1.048153,3.153684 -1.899412,1.494078 -2.004442,1.416968 -12.870579,-9.449169 z m 57.313251,8.738034 c 0,-0.679097 0.0726,-0.95691 0.161334,-0.617361 0.08873,0.339548 0.08873,0.895173 0,1.234722 -0.08873,0.339549 -0.161334,0.06174 -0.161334,-0.617361 z M 42.161896,67.204175 c -1.213781,-0.937583 -4.855643,-6.954392 -4.855643,-8.022126 0,-1.872917 2.030391,-3.02547 3.999007,-2.270041 0.966245,0.370783 4.93803,6.793506 4.93803,7.985225 0,1.981434 -2.600149,3.451126 -4.081394,2.306942 z"
         id="path2"
         sodipodi:nodetypes="ssssssssssssssssssssssscssscssscsssscsscscccssssscssscsssscssssssssscsscsssssssssssscsssscscssscssssssssssssssssssssssssssssss" /><path
         style="fill:#1b3751"
         d="m 24.743174,213.70217 c -0.409764,-0.16557 -1.084452,-0.73254 -1.499306,-1.25994 -0.64921,-0.82534 -0.75428,-1.42157 -0.75428,-4.28024 0,-3.52107 0.467893,-5.06215 1.744348,-5.74528 0.454047,-0.243 13.619283,-0.36064 39.77204,-0.3554 36.507654,0.007 39.143094,0.0482 39.845784,0.61736 1.25664,1.01792 1.5406,2.01003 1.5406,5.38259 0,3.53927 -0.49302,4.91027 -2.01518,5.60381 -1.02503,0.46704 -77.480654,0.5031 -78.634006,0.0371 z M 181.2562,212.96515 c -9.5279,-1.6996 -18.0885,-8.2946 -22.02161,-16.96525 -2.07604,-4.57668 -2.48903,-6.60903 -2.49762,-12.29087 -0.009,-5.62789 0.47722,-8.20676 2.31539,-12.29301 2.38428,-5.30028 7.68373,-10.86649 12.90752,-13.55725 5.39183,-2.77731 7.48,-3.25457 14.21858,-3.24971 6.39851,0.005 7.79681,0.27916 12.58523,2.47096 7.86244,3.59887 13.77341,10.63956 16.03693,19.10196 1.04042,3.88972 1.03168,10.78092 -0.0187,14.75899 -1.29595,4.90802 -3.76931,9.46771 -7.03672,12.97239 -3.47249,3.72464 -9.65961,7.36182 -14.54464,8.55026 -2.80875,0.68332 -9.37872,0.95918 -11.94433,0.50153 z m 7.05048,-10.38849 c 2.89137,-1.49518 2.77017,-6.18676 -0.20115,-7.78692 -1.36485,-0.73502 -3.74826,-0.51628 -4.82536,0.44286 -0.8704,0.77508 -1.68782,2.59546 -1.68782,3.75876 0,1.08667 1.36374,3.10428 2.48004,3.66913 1.1832,0.59871 2.98333,0.56307 4.23429,-0.0838 z m 0.50763,-12.25305 c 0.16677,-0.50976 1.13652,-14.19378 1.47502,-20.81389 l 0.23,-4.49791 h -4.26628 c -2.34645,0 -4.35681,0.14648 -4.46746,0.32551 -0.20859,0.3375 0.622,14.69886 1.22574,21.19393 0.18938,2.03729 0.34445,3.82323 0.34462,3.96875 5.3e-4,0.47809 5.30028,0.30683 5.45836,-0.17639 z m -156.747348,4.69812 c 0.14052,-3.09431 0.663263,-4.14878 2.76626,-5.58007 l 1.16626,-0.79375 h 27.941492 27.941491 l 1.16626,0.79375 c 2.06335,1.40431 2.56407,2.41503 2.745027,5.54095 l 0.164261,2.83753 H 63.948946 31.939879 Z m 59.185881,-21.65117 c -1.84566,-0.96299 -33.274196,-18.76889 -36.80801,-20.85366 -2.952655,-1.74191 -3.779684,-2.7878 -3.99758,-5.05549 -0.25726,-2.67736 1.451841,-5.48609 3.903493,-6.41499 2.631064,-0.99689 2.787373,-0.9275 20.078635,8.91315 8.977486,5.10919 17.952867,10.20763 19.945291,11.32986 3.916174,2.20578 4.818588,3.07366 5.385644,5.17954 0.969844,3.60172 -2.334298,7.70269 -6.214418,7.71309 -0.403679,0.001 -1.435554,-0.36409 -2.293055,-0.8115 z m 48.182567,-7.66394 c -7.37305,-4.25057 -16.84742,-9.67209 -21.05416,-12.04782 -4.20673,-2.37573 -7.9161,-4.51512 -8.24305,-4.75419 -0.53699,-0.39265 -0.28229,-0.99447 2.6348,-6.22559 1.7761,-3.18501 3.42172,-6.04403 3.65695,-6.35339 0.37642,-0.49506 1.48483,0.0337 9.24713,4.41082 10.91446,6.15468 32.60409,18.61431 33.69381,19.35544 l 0.80595,0.54814 -2.12656,3.86158 c -1.16961,2.12387 -2.70311,5.01252 -3.40779,6.41922 -0.70467,1.4067 -1.39829,2.54784 -1.54138,2.53587 -0.14308,-0.012 -6.29264,-3.49951 -13.6657,-7.75008 z M 91.102256,154.62882 C 73.555174,144.83093 61.47821,137.77351 61.588137,137.38165 c 0.132156,-0.4711 0.325479,-0.8192 12.035066,-21.67053 4.712569,-8.39171 8.766424,-15.25764 9.008567,-15.25764 0.31733,0 36.46181,20.41787 37.13991,20.98019 0.0505,0.0419 -2.4257,4.50628 -5.50267,9.92089 -3.07698,5.41461 -7.77688,13.8135 -10.44422,18.66419 -2.66734,4.8507 -4.87543,8.84708 -4.906868,8.88085 -0.03144,0.0338 -3.548487,-1.88808 -7.815666,-4.27078 z m 31.928994,-36.2111 c -0.48507,-0.2021 -9.65857,-5.38875 -20.38555,-11.52589 C 80.669707,94.318873 81.571934,95.001708 81.818521,91.129137 c 0.110946,-1.742369 0.350782,-2.506141 1.09221,-3.478203 1.163917,-1.525974 3.582045,-2.53581 5.457238,-2.279001 0.809611,0.110877 4.416104,1.938778 9.26328,4.694965 20.340671,11.566052 28.869131,16.427642 30.250541,17.244092 1.9696,1.16409 2.90757,2.73952 2.90925,4.8864 0.002,2.18092 -1.05172,4.23801 -2.73968,5.34997 -1.53126,1.00873 -3.76041,1.39521 -5.02011,0.87036 z"
         id="path1"
         sodipodi:nodetypes="ssssccssssscsscsssssssssssssssscssssssscccsscccsssssssscsssssscscsssssssssssssssssssscss" /></g></g></svg>
