<?xml version="1.0" encoding="UTF-8" standalone="no"?>
<!-- Created with Inkscape (http://www.inkscape.org/) -->

<svg
   width="172.99168mm"
   height="171.89059mm"
   viewBox="0 0 172.99168 171.89059"
   version="1.1"
   id="svg1"
   xml:space="preserve"
   inkscape:version="1.4.2 (f4327f4, 2025-05-13)"
   sodipodi:docname="icon-yin-yang.svg"
   xmlns:inkscape="http://www.inkscape.org/namespaces/inkscape"
   xmlns:sodipodi="http://sodipodi.sourceforge.net/DTD/sodipodi-0.dtd"
   xmlns="http://www.w3.org/2000/svg"
   xmlns:svg="http://www.w3.org/2000/svg"><sodipodi:namedview
     id="namedview1"
     pagecolor="#ffffff"
     bordercolor="#000000"
     borderopacity="0.25"
     inkscape:showpageshadow="2"
     inkscape:pageopacity="0.0"
     inkscape:pagecheckerboard="0"
     inkscape:deskcolor="#d1d1d1"
     inkscape:document-units="mm"
     inkscape:zoom="0.72604517"
     inkscape:cx="328.49196"
     inkscape:cy="402.86749"
     inkscape:window-width="1920"
     inkscape:window-height="1017"
     inkscape:window-x="-8"
     inkscape:window-y="-8"
     inkscape:window-maximized="1"
     inkscape:current-layer="layer1" /><defs
     id="defs1" /><g
     inkscape:label="Слой 1"
     inkscape:groupmode="layer"
     id="layer1"
     transform="translate(-18.386568,-42.032241)"><path
       style="fill:#1a3752"
       d="m 100.00578,213.78923 c -37.887213,-2.32477 -69.585743,-28.02307 -78.882603,-63.95087 -1.83954,-7.10895 -2.490074,-11.91091 -2.68928,-19.85124 -0.111492,-4.44409 -0.02221,-8.86838 0.227799,-11.28888 2.013731,-19.4959 10.538631,-37.242788 24.713961,-51.448763 13.32747,-13.356295 29.89189,-21.713486 48.69262,-24.566741 5.73244,-0.869971 19.694043,-0.866669 25.524393,0.006 18.758,2.807755 35.03842,10.974375 48.49234,24.324827 13.41293,13.309783 21.80595,29.850083 24.65394,48.586047 0.76666,5.04358 0.86703,18.3311 0.17455,23.10694 -2.85499,19.68998 -11.02096,36.21879 -24.57478,49.74201 -8.81093,8.79104 -18.60856,15.20399 -30.15703,19.73902 -10.54835,4.14229 -24.57138,6.31367 -36.17591,5.60161 z m 15.59235,-5.59663 c 35.22708,-4.57237 64.00863,-32.15728 69.62849,-66.73356 2.80523,-17.25922 0.44398,-33.64694 -7.05537,-48.96634 -11.40445,-23.296578 -32.98533,-39.674352 -58.35709,-44.28732 -4.24659,-0.772094 -15.29409,-1.648384 -16.23405,-1.287688 -0.53012,0.203426 -0.57572,6.620283 -0.57572,81.018108 v 80.79717 h 4.21527 c 2.31839,0 6.0887,-0.24317 8.37847,-0.54037 z"
       id="path2"
       sodipodi:nodetypes="ssscsscssssssscssssscsc" /></g></svg>
