<?xml version="1.0" encoding="UTF-8" standalone="no"?>
<!-- Created with Inkscape (http://www.inkscape.org/) -->

<svg
   width="188.7361mm"
   height="168.15065mm"
   viewBox="0 0 188.7361 168.15065"
   version="1.1"
   id="svg1"
   xml:space="preserve"
   inkscape:version="1.4.2 (f4327f4, 2025-05-13)"
   sodipodi:docname="icon-shesterni.svg"
   xmlns:inkscape="http://www.inkscape.org/namespaces/inkscape"
   xmlns:sodipodi="http://sodipodi.sourceforge.net/DTD/sodipodi-0.dtd"
   xmlns="http://www.w3.org/2000/svg"
   xmlns:svg="http://www.w3.org/2000/svg"><sodipodi:namedview
     id="namedview1"
     pagecolor="#ffffff"
     bordercolor="#000000"
     borderopacity="0.25"
     inkscape:showpageshadow="2"
     inkscape:pageopacity="0.0"
     inkscape:pagecheckerboard="0"
     inkscape:deskcolor="#d1d1d1"
     inkscape:document-units="mm"
     inkscape:zoom="0.72604517"
     inkscape:cx="338.13323"
     inkscape:cy="422.15004"
     inkscape:window-width="1920"
     inkscape:window-height="1017"
     inkscape:window-x="-8"
     inkscape:window-y="-8"
     inkscape:window-maximized="1"
     inkscape:current-layer="layer1" /><defs
     id="defs1" /><g
     inkscape:label="Слой 1"
     inkscape:groupmode="layer"
     id="layer1"
     transform="translate(-15.666815,-36.707447)"><g
       id="g1"
       transform="translate(7.2883431,-10.932515)"><path
         style="fill:#0ea1e2"
         d="m 93.397916,201.21472 c 0,-0.0733 0.277812,-0.35107 0.617361,-0.61736 0.559525,-0.43881 0.572003,-0.42633 0.133193,0.13319 -0.460858,0.58764 -0.750554,0.77452 -0.750554,0.48417 z m 2.822222,-2.82222 c 0,-0.0733 0.277812,-0.35107 0.617361,-0.61736 0.559525,-0.43881 0.572003,-0.42633 0.133193,0.13319 -0.460858,0.58764 -0.750554,0.77452 -0.750554,0.48417 z M 9.0390348,173.56667 c -0.4388099,-0.55953 -0.426332,-0.57201 0.1331931,-0.1332 0.3395486,0.2663 0.6173611,0.54411 0.6173611,0.61736 0,0.29035 -0.289696,0.10348 -0.7505542,-0.48416 z m 99.3157352,-6.79098 c 0,-2.8134 0.0548,-3.96434 0.12175,-2.55763 0.067,1.4067 0.067,3.70857 0,5.11527 -0.067,1.4067 -0.12175,0.25577 -0.12175,-2.55764 z m -75.918631,-0.88194 c 0.0072,-0.58208 0.08625,-0.7775 0.175698,-0.43426 0.08944,0.34324 0.08356,0.81949 -0.01307,1.05834 -0.09663,0.23884 -0.169816,-0.042 -0.162626,-0.62408 z m 75.806291,-4.96829 c 0.0169,-0.41096 0.10052,-0.49456 0.21314,-0.21313 0.10191,0.25466 0.0894,0.55893 -0.0279,0.67615 -0.11723,0.11723 -0.20061,-0.0911 -0.18529,-0.46302 z m -2.3375,-5.87963 -1.39452,-1.4993 1.49931,1.39451 c 1.39434,1.29688 1.66142,1.6041 1.39451,1.6041 -0.0576,0 -0.73232,-0.67469 -1.4993,-1.49931 z m 78.50964,-0.39777 c 0,-0.0733 0.27782,-0.35107 0.61737,-0.61736 0.55952,-0.43881 0.572,-0.42634 0.13319,0.13319 -0.46086,0.58764 -0.75056,0.77452 -0.75056,0.48417 z m -80.37762,-3.04181 c 0,-0.48507 0.0801,-0.68351 0.17794,-0.44097 0.0979,0.24253 0.0979,0.63941 0,0.88194 -0.0979,0.24254 -0.17794,0.0441 -0.17794,-0.44097 z M 18.284106,136.93658 c 0.01693,-0.41097 0.10052,-0.49456 0.213136,-0.21314 0.101908,0.25466 0.08938,0.55893 -0.02785,0.67616 -0.117226,0.11722 -0.200604,-0.0911 -0.185286,-0.46302 z m 76.51287,-4.99769 -1.928227,-2.02847 2.028472,1.92823 c 1.11566,1.06052 2.028472,1.97333 2.028472,2.02847 0,0.26185 -0.337334,-0.0437 -2.128717,-1.92823 z m -3.895205,-3.88055 -0.855244,-0.97014 0.970139,0.85524 c 0.906741,0.79936 1.131918,1.08504 0.855244,1.08504 -0.06319,0 -0.499755,-0.43657 -0.970139,-0.97014 z m 82.664889,-0.69796 c 0.7276,-0.0761 1.91823,-0.0761 2.64583,0 0.72761,0.0761 0.13229,0.13838 -1.32291,0.13838 -1.45521,0 -2.05053,-0.0623 -1.32292,-0.13838 z m -55.02062,-5.91663 c 0.003,-0.97014 0.0711,-1.32514 0.15224,-0.7889 0.0811,0.53625 0.0789,1.33 -0.005,1.76389 -0.0837,0.4339 -0.15008,-0.005 -0.14743,-0.97499 z m 65.47076,0.97014 c -0.43881,-0.55952 -0.42633,-0.572 0.13319,-0.13319 0.58764,0.46086 0.77452,0.75055 0.48417,0.75055 -0.0733,0 -0.35107,-0.27781 -0.61736,-0.61736 z M 57.061807,109.23492 C 54.76433,108.33344 54.460878,106.17845 55.651081,99.216506 58.395934,83.16084 68.540207,69.542275 82.990972,62.51303 c 4.441683,-2.160555 6.870856,-3.016715 11.458969,-4.0387 4.127066,-0.919288 11.658479,-1.545179 15.486459,-1.286987 l 2.95654,0.199414 -2.51557,-2.594317 c -2.05508,-2.119414 -2.51557,-2.801108 -2.51557,-3.723984 0,-2.354178 2.42259,-4.131514 4.30084,-3.155316 1.48939,0.774096 12.21602,11.770654 12.47041,12.784225 0.4612,1.837561 -0.44184,2.952495 -6.22005,7.67963 -3.0618,2.504841 -5.96229,4.734405 -6.44554,4.954588 -1.95798,0.892117 -4.10566,-0.593892 -4.10566,-2.840768 0,-1.270178 0.20879,-1.576323 2.46603,-3.615972 1.35631,-1.225569 2.46756,-2.347369 2.46944,-2.49289 0.005,-0.389046 -11.05229,-0.308916 -13.931299,0.100957 -4.1472,0.59042 -8.612317,2.033584 -13.052777,4.218769 -4.81853,2.371237 -7.28563,4.133686 -11.239683,8.029411 -7.397925,7.288797 -11.327355,15.74455 -12.593581,27.10017 -0.442678,3.96996 -0.662678,4.52412 -2.08884,5.26162 -1.17365,0.60692 -1.5911,0.62788 -2.829283,0.14204 z m 68.968053,-6.312 c 0.35118,-0.38805 0.71789,-0.70555 0.81491,-0.70555 0.097,0 -0.11095,0.3175 -0.46213,0.70555 -0.35119,0.38806 -0.7179,0.70556 -0.81491,0.70556 -0.097,0 0.11094,-0.3175 0.46213,-0.70556 z m 60.17645,-10.789118 c 0.0169,-0.410966 0.10053,-0.494559 0.21314,-0.213136 0.10191,0.254661 0.0894,0.558932 -0.0279,0.676157 -0.11722,0.117225 -0.2006,-0.09113 -0.18529,-0.463021 z"
         id="path2"
         sodipodi:nodetypes="ssssssssssssscssssssscscccscsssssssscssssssscsssscssssssscccccssssssssscsssssssssssssssssssscsccc" /><path
         style="fill:#18334f"
         d="m 51.526124,215.45564 c -1.285489,-0.5178 -1.871049,-1.85292 -2.543277,-5.79885 -0.352749,-2.07062 -0.794293,-3.91769 -0.981208,-4.1046 -0.186915,-0.18692 -1.59828,-0.78714 -3.136366,-1.33383 -1.538086,-0.54669 -3.62468,-1.41619 -4.636875,-1.93221 -1.012196,-0.51603 -2.123446,-0.93823 -2.469445,-0.93822 -0.345999,1e-5 -2.125082,1.03188 -3.953519,2.29305 -4.059804,2.80027 -4.853557,2.90004 -7.315418,0.91945 -2.642232,-2.12569 -7.451309,-7.1622 -7.844771,-8.21577 -0.514801,-1.37847 -0.0068,-2.72071 2.231992,-5.89759 1.080821,-1.53369 1.965129,-3.10029 1.965129,-3.48133 0,-0.38104 -0.700615,-2.18249 -1.556922,-4.00323 -0.856307,-1.82073 -1.757366,-3.99448 -2.002353,-4.83054 -0.244987,-0.83607 -0.72183,-1.66804 -1.059652,-1.84884 -0.337821,-0.1808 -2.254575,-0.64391 -4.259452,-1.02913 -3.164388,-0.60803 -3.773203,-0.84187 -4.6153702,-1.77271 L 8.378478,172.40901 v -6.18557 c 0,-8.5026 -0.040888,-8.44135 6.349999,-9.51247 1.843264,-0.30894 3.52496,-0.75044 3.737101,-0.98113 0.212142,-0.23068 0.746346,-1.4513 1.18712,-2.71248 0.440774,-1.26118 1.338766,-3.42096 1.995538,-4.79951 0.656771,-1.37856 1.193795,-2.72793 1.193386,-2.99862 -4.09e-4,-0.27068 -0.952574,-1.92089 -2.115923,-3.66714 -1.755532,-2.63515 -2.115305,-3.43031 -2.115922,-4.67652 -7.11e-4,-1.43516 0.174134,-1.68203 3.95727,-5.58724 5.917225,-6.10817 6.27783,-6.19659 11.374478,-2.78902 1.886329,1.26118 3.551623,2.29305 3.700652,2.29305 0.149029,0 1.60285,-0.61205 3.230713,-1.36012 1.627864,-0.74807 3.780972,-1.6299 4.784685,-1.95962 1.003713,-0.32971 2.005908,-0.81754 2.2271,-1.08406 0.221192,-0.26652 0.708148,-2.20251 1.082124,-4.30219 0.605163,-3.39769 0.799946,-3.92665 1.770815,-4.80884 l 1.09086,-0.99123 6.666441,0.10928 c 8.27813,0.13571 8.047409,-0.004 9.181012,5.5774 0.413741,2.03726 0.892061,3.96866 1.062932,4.292 0.170872,0.32334 1.145624,0.86222 2.166117,1.19751 1.020493,0.33529 3.187329,1.22168 4.815193,1.96975 1.627863,0.74807 3.161059,1.36012 3.407102,1.36012 0.246043,0 1.990711,-1.03187 3.877041,-2.29305 4.287223,-2.8664 5.052812,-2.9424 7.524653,-0.74706 0.957392,0.8503 3.105816,2.98644 4.774276,4.74698 3.887458,4.102 3.904291,4.30749 0.740508,9.03952 -1.261181,1.88632 -2.293056,3.55146 -2.293056,3.7003 0,0.14884 0.537199,1.44391 1.193774,2.87794 0.656576,1.43402 1.554568,3.63919 1.995538,4.90037 0.44097,1.26118 0.975334,2.47652 1.187476,2.70075 0.212141,0.22424 2.124979,0.7368 4.250749,1.13903 4.25017,0.8042 5.35915,1.48009 5.78355,3.52488 0.12606,0.60732 0.14981,3.71928 0.0528,6.91546 -0.21965,7.23667 -0.0751,7.0255 -5.4714,7.99349 -2.0845,0.37392 -4.058811,0.82371 -4.387361,0.99955 -0.32855,0.17583 -0.812192,1.00412 -1.074759,1.84063 -0.262567,0.83651 -1.164313,3.04581 -2.003881,4.90955 -0.839567,1.86374 -1.526486,3.62519 -1.526486,3.91433 0,0.28914 0.957285,1.85132 2.127299,3.4715 2.263202,3.13397 2.662257,4.06555 2.322103,5.42083 -0.305336,1.21655 -8.634116,9.62331 -9.829262,9.92128 -1.46621,0.36555 -2.288781,0.024 -5.525845,-2.29467 -1.632514,-1.16933 -3.343603,-2.12606 -3.802421,-2.12606 -0.458818,0 -1.7425,0.4526 -2.852627,1.00578 -1.110126,0.55317 -3.157751,1.43574 -4.550277,1.96127 -1.392526,0.52552 -2.700587,1.15879 -2.906802,1.40726 -0.206214,0.24848 -0.697333,2.02497 -1.091374,3.94776 -0.96095,4.68912 -0.958067,4.68207 -2.232706,5.45929 -0.989777,0.60352 -1.788705,0.67753 -7.112251,0.65885 -3.298472,-0.0116 -6.345155,-0.16119 -6.770406,-0.33248 z m 15.025829,-25.23688 c 4.918557,-1.64966 9.718477,-5.14484 12.548587,-9.13758 3.432351,-4.84239 4.793731,-9.09802 4.80204,-15.01104 0.01031,-7.33824 -2.308632,-12.88737 -7.600251,-18.18705 -2.704223,-2.70834 -3.698716,-3.44181 -6.540523,-4.82386 -7.575568,-3.68421 -15.312036,-3.6939 -22.930553,-0.0287 -2.868425,1.37997 -3.813655,2.07593 -6.559149,4.82945 -3.718955,3.72982 -5.325574,6.37241 -6.67447,10.97825 -1.761723,6.01544 -1.186009,12.66706 1.587756,18.34444 2.644332,5.41245 6.101352,8.8224 11.822252,11.66129 4.291307,2.12948 6.72798,2.62686 12.170832,2.48433 3.702591,-0.097 4.884982,-0.27488 7.373479,-1.1095 z m 71.372437,-17.99643 c -1.15722,-0.81055 -1.66842,-2.06278 -2.36751,-5.79941 -0.34485,-1.84327 -0.85237,-3.61174 -1.12783,-3.92995 -0.27545,-0.31821 -1.72233,-1.01147 -3.21528,-1.54058 -1.49296,-0.52911 -3.62275,-1.41969 -4.73288,-1.97908 -1.11013,-0.55938 -2.30075,-1.01705 -2.64583,-1.01705 -0.34509,1e-5 -2.12342,1.03189 -3.95186,2.29306 -3.40807,2.35074 -4.55229,2.70545 -6.13556,1.90203 -0.42381,-0.21506 -2.71525,-2.31611 -5.09209,-4.66901 -4.1748,-4.13275 -4.32152,-4.32879 -4.32152,-5.77387 0,-1.25899 0.3631,-2.03141 2.29305,-4.87795 1.26118,-1.86015 2.29306,-3.53448 2.29306,-3.72073 0,-0.18625 -0.61429,-1.56543 -1.36509,-3.06484 -0.7508,-1.49941 -1.72816,-3.75807 -2.17193,-5.01925 -0.44376,-1.26118 -0.98041,-2.48339 -1.19255,-2.71603 -0.21214,-0.23263 -2.21134,-0.7424 -4.442655,-1.13283 -3.643902,-0.63758 -4.155715,-0.81957 -5.027083,-1.78745 l -0.970139,-1.0776 v -6.36195 c 0,-8.70161 -0.07268,-8.59065 6.349997,-9.69559 3.84197,-0.66097 4.26152,-0.97864 5.09953,-3.86131 0.30584,-1.05206 1.18857,-3.22074 1.96161,-4.81929 0.77304,-1.59856 1.40299,-3.07361 1.3999,-3.2779 -0.003,-0.20429 -1.03498,-1.937945 -2.29306,-3.852564 -2.2917,-3.48763 -2.62594,-4.541488 -1.89625,-5.978872 0.56096,-1.105016 8.07031,-8.661149 9.2045,-9.261854 1.61486,-0.855277 2.54515,-0.585568 6.14959,1.782887 1.91462,1.258083 3.69828,2.289958 3.9637,2.293056 0.26541,0.0031 1.85291,-0.607255 3.52778,-1.356339 1.67486,-0.749083 3.86642,-1.630908 4.87013,-1.959611 1.00372,-0.328703 1.99428,-0.801684 2.20125,-1.05107 0.20697,-0.249386 0.69653,-2.026624 1.08791,-3.949416 1.34647,-6.61506 1.29751,-6.584319 10.23638,-6.428541 7.92964,0.13819 7.67903,-0.02737 8.97904,5.931589 0.71469,3.276014 1.05004,4.184451 1.74289,4.721414 l 0.85791,0.664894 -2.09394,6.037883 c -1.43568,4.13979 -2.35963,6.273732 -2.93911,6.788125 -0.79647,0.707017 -1.11639,0.739891 -5.55295,0.570599 -5.51643,-0.210498 -8.93253,0.45371 -13.25919,2.578046 -13.10151,6.432684 -18.45532,22.422104 -11.88117,35.483684 1.8206,3.61718 4.03409,6.36652 7.06445,8.77464 8.9398,7.10413 20.4873,7.88749 30.40061,2.06233 3.27316,-1.92335 7.79484,-6.68994 9.48892,-10.00288 0.79373,-1.55222 1.63413,-3.41898 1.86756,-4.14836 0.72782,-2.27421 0.98157,-2.37803 5.8122,-2.37803 h 4.33591 l 2.52638,3.0473 c 1.94716,2.34865 2.47616,3.21812 2.30732,3.79236 -0.12048,0.40979 -0.99735,2.39266 -1.9486,4.40638 -0.95124,2.01372 -1.72954,3.93868 -1.72954,4.27767 0,0.339 0.97415,2.05314 2.16478,3.8092 1.79529,2.6479 2.16477,3.44411 2.16477,4.66504 0,1.41579 -0.174,1.64659 -4.54045,6.02275 -4.61555,4.62583 -5.70192,5.31454 -7.48862,4.74746 -0.38792,-0.12312 -2.10492,-1.17007 -3.81556,-2.32656 -1.71063,-1.15649 -3.39595,-2.10271 -3.74514,-2.10271 -0.34919,0 -1.54318,0.45768 -2.65331,1.01706 -1.11012,0.55939 -3.24539,1.45191 -4.74502,1.98339 -1.49964,0.53148 -2.91093,1.18841 -3.1362,1.45985 -0.22527,0.27144 -0.76992,2.2721 -1.21033,4.44593 -0.70511,3.48039 -0.93159,4.06932 -1.89645,4.93142 l -1.09571,0.97902 h -6.44232 c -5.26693,0 -6.58575,-0.10046 -7.2284,-0.55059 z m 51.87017,-43.461 c -1.01857,-1.30828 -3.24271,-3.84713 -4.94252,-5.64188 l -3.09057,-3.2632 h -4.4396 c -5.29242,0 -5.39383,-0.0639 -6.18773,-3.89968 -1.09821,-5.30609 -3.49241,-9.58172 -7.68851,-13.73037 -1.9092,-1.88761 -2.66871,-2.890153 -2.67262,-3.527782 -0.003,-0.489925 0.90981,-3.706065 2.02847,-7.146978 l 2.03393,-6.256204 1.17482,-0.0056 c 0.85702,-0.0041 2.04566,-0.602049 4.39401,-2.210462 2.7155,-1.859886 3.45545,-2.20486 4.72929,-2.20486 1.46798,0 1.64313,0.132747 6.27752,4.757598 4.58056,4.57113 4.76741,4.814581 4.76741,6.211475 0,1.184187 -0.39263,2.050861 -2.11666,4.672171 -1.16417,1.770062 -2.11667,3.437385 -2.11667,3.705162 0,0.26778 0.61483,1.81875 1.36629,3.44662 0.75147,1.62786 1.6543,3.87484 2.00631,4.9933 0.352,1.11845 0.88965,2.25947 1.19477,2.5356 0.30513,0.27613 2.14073,0.76977 4.07912,1.09698 6.2876,1.06137 6.52295,1.40426 6.52295,9.50331 0,7.35963 -0.56014,8.621 -4.05694,9.13576 -1.39945,0.20601 -1.42641,0.18807 -3.26307,-2.17096 z"
         id="path1"
         sodipodi:nodetypes="sssssssssssssssscsssssssssssssssscscsssssssssssssssssssssssssssssssssssssssssscssssssssssssssssssscsssscsssssssssssscsssssssssscssssssssssssssscsssscssssscssssssssssssss" /></g></g></svg>
