<?xml version="1.0" encoding="UTF-8" standalone="no"?>
<!-- Created with Inkscape (http://www.inkscape.org/) -->

<svg
   width="214.56067mm"
   height="206.43471mm"
   viewBox="0 0 214.56067 206.43471"
   version="1.1"
   id="svg1"
   xml:space="preserve"
   inkscape:version="1.4.2 (f4327f4, 2025-05-13)"
   sodipodi:docname="icon-technique-treasure.svg"
   xmlns:inkscape="http://www.inkscape.org/namespaces/inkscape"
   xmlns:sodipodi="http://sodipodi.sourceforge.net/DTD/sodipodi-0.dtd"
   xmlns="http://www.w3.org/2000/svg"
   xmlns:svg="http://www.w3.org/2000/svg"><sodipodi:namedview
     id="namedview1"
     pagecolor="#ffffff"
     bordercolor="#000000"
     borderopacity="0.25"
     inkscape:showpageshadow="2"
     inkscape:pageopacity="0.0"
     inkscape:pagecheckerboard="0"
     inkscape:deskcolor="#d1d1d1"
     inkscape:document-units="mm"
     inkscape:zoom="0.72604517"
     inkscape:cx="405.62214"
     inkscape:cy="386.3396"
     inkscape:window-width="1920"
     inkscape:window-height="1017"
     inkscape:window-x="-8"
     inkscape:window-y="-8"
     inkscape:window-maximized="1"
     inkscape:current-layer="layer1" /><defs
     id="defs1" /><g
     inkscape:label="Слой 1"
     inkscape:groupmode="layer"
     id="layer1"
     transform="translate(2.2920107,-46.234643)"><g
       id="g1"><path
         style="fill:#018dd4"
         d="m 76.464584,191.84845 c 0,-0.38766 0.94078,-5.43356 2.090623,-11.21311 1.149843,-5.77954 2.515044,-12.74649 3.033781,-15.48211 l 0.943157,-4.97384 -2.058312,-1.90532 c -1.132072,-1.04793 -3.092586,-2.86249 -4.356697,-4.03236 -1.264112,-1.16987 -3.092135,-2.82702 -4.062274,-3.68256 -0.970139,-0.85553 -3.510139,-3.16873 -5.644444,-5.14042 -2.134306,-1.9717 -4.75368,-4.34998 -5.820833,-5.28508 -1.811134,-1.587 -2.556237,-2.63493 -1.87795,-2.64119 0.159747,-0.001 1.639825,-0.16294 3.289061,-0.35881 1.649236,-0.19588 4.427361,-0.50438 6.17361,-0.68557 4.100025,-0.4254 11.618169,-1.31064 14.993055,-1.76538 1.455208,-0.19608 3.80672,-0.46096 5.225583,-0.58863 l 2.57975,-0.23213 1.166745,-2.32854 c 0.641711,-1.28069 1.685917,-3.51916 2.320458,-4.97437 0.634542,-1.45521 1.845806,-4.12894 2.691698,-5.94163 0.845893,-1.81269 1.537987,-3.35804 1.537987,-3.43412 0,-0.0761 0.777741,-1.76796 1.728318,-3.75975 0.95057,-1.99179 2.38244,-5.03914 3.18193,-6.77187 0.80275,-1.7398 1.58096,-3.00347 1.73802,-2.82222 0.15642,0.18051 0.73393,1.36008 1.28336,2.62126 0.54943,1.26118 1.82612,4.0393 2.8371,6.17361 1.01097,2.13431 2.95184,6.34118 4.31303,9.34861 1.36118,3.00743 3.04901,6.70996 3.75073,8.22785 0.70171,1.51788 1.27584,2.90392 1.27584,3.08008 0,0.50735 1.00728,0.66692 11.1125,1.76039 1.74625,0.18895 4.445,0.50904 5.99722,0.7113 1.55223,0.20225 4.25098,0.513 5.99723,0.69055 7.99634,0.81303 9.7972,1.03028 9.96962,1.20269 0.24376,0.24376 -1.19911,1.62635 -9.60225,9.20111 -8.35795,7.53402 -10.72464,9.69322 -12.95027,11.81492 l -1.66527,1.5875 0.46902,2.29305 c 0.25796,1.26118 0.71735,3.48368 1.02087,4.93889 0.30352,1.45521 1.35918,6.85271 2.34591,11.99444 0.98673,5.14174 1.96512,10.11125 2.17421,11.04335 0.20909,0.9321 0.30211,1.77279 0.2067,1.8682 -0.14862,0.14862 -7.8977,-4.01165 -8.90188,-4.77919 -0.19402,-0.1483 -1.30527,-0.79458 -2.46944,-1.43617 -1.16417,-0.64159 -4.10104,-2.26771 -6.52639,-3.6136 -2.42535,-1.34589 -5.88298,-3.24178 -7.68362,-4.2131 l -3.2739,-1.76604 -4.48721,2.4622 c -2.467966,1.3542 -5.042836,2.77927 -5.721933,3.16682 -0.679098,0.38755 -2.980972,1.70362 -5.115278,2.9246 -4.107511,2.34981 -11.103906,6.28643 -12.435415,6.99697 -0.69963,0.37334 -0.79375,0.33999 -0.79375,-0.28128 z M 211.60631,160.57269 c 0.0169,-0.41097 0.10052,-0.49456 0.21314,-0.21314 0.10191,0.25466 0.0894,0.55893 -0.0279,0.67616 -0.11723,0.11722 -0.20061,-0.0911 -0.18529,-0.46302 z m -1.05833,-23.63611 c 0.0169,-0.41097 0.10052,-0.49456 0.21314,-0.21314 0.1019,0.25466 0.0894,0.55893 -0.0279,0.67616 -0.11722,0.11722 -0.2006,-0.0911 -0.18528,-0.46302 z m -0.35278,-9.17222 c 0.0169,-0.41097 0.10052,-0.49456 0.21314,-0.21314 0.10191,0.25466 0.0894,0.55893 -0.0279,0.67616 -0.11723,0.11722 -0.20061,-0.0911 -0.18529,-0.46302 z m -9.95063,-16.28658 c -0.4388,-0.55952 -0.42633,-0.572 0.1332,-0.13319 0.33955,0.26629 0.61736,0.5441 0.61736,0.61736 0,0.29035 -0.2897,0.10347 -0.75056,-0.48417 z"
         id="path2" /><path
         style="fill:#253f51"
         d="M 65.881251,242.28543 C 48.709794,236.49949 31.271976,230.59688 27.130544,229.16853 l -7.529877,-2.59701 -3.443189,-5.64444 C 14.263724,217.82263 9.3378717,209.74409 5.2111392,202.97476 l -7.5031499,-12.30787 1.48418902,-10.97546 C 0.00848231,173.65493 1.2760815,164.27097 2.0090655,158.8382 l 1.332698,-9.87778 5.913858,-12.52361 c 3.2526215,-6.88799 6.9091435,-14.66674 8.1256035,-17.28611 1.21646,-2.61938 4.580456,-9.76313 7.475546,-15.875 2.89509,-6.111875 7.86156,-16.602426 11.0366,-23.312335 l 5.772801,-12.199836 3.729068,-1.717546 c 2.050987,-0.944651 12.063442,-5.743712 22.2499,-10.664581 10.186457,-4.920869 18.928389,-9.030526 19.426514,-9.132572 0.504314,-0.103314 2.927569,0.368395 5.468055,1.064407 9.588061,2.626821 28.399581,7.724782 41.956811,11.37038 9.29255,2.498807 14.42642,4.044297 15.03449,4.525951 1.33659,1.058724 49.26394,46.705662 55.4022,52.766132 l 5.18093,5.11528 0.38871,10.23055 c 0.21379,5.62681 0.69887,17.21555 1.07795,25.75278 0.37908,8.53722 0.68861,17.10972 0.68785,19.04999 l -0.001,3.52778 -6.39811,8.81945 c -3.51896,4.85069 -7.74576,10.72444 -9.3929,13.05277 -1.64713,2.32834 -3.89634,5.42396 -4.99825,6.87917 -1.1019,1.45521 -6.01803,8.20208 -10.92474,14.99305 -4.9067,6.79097 -9.0257,12.46229 -9.15332,12.60292 -0.12762,0.14064 -2.7681,0.80451 -5.86773,1.47527 -3.09963,0.67076 -11.03319,2.42879 -17.63013,3.90672 -6.59695,1.47793 -18.74132,4.19548 -26.9875,6.03898 -15.80552,3.53347 -22.409155,5.02192 -23.283331,5.24804 -0.291042,0.0753 -14.578541,-4.59708 -31.749998,-10.38302 z m 16.051388,-52.75598 c 2.134305,-1.19719 5.626805,-3.1757 7.76111,-4.39669 2.134306,-1.22098 4.43618,-2.53705 5.115278,-2.9246 0.679097,-0.38755 3.253967,-1.81262 5.721933,-3.16682 l 4.48721,-2.4622 3.2739,1.76604 c 1.80064,0.97132 5.25827,2.86721 7.68362,4.2131 2.42535,1.34589 5.36222,2.97201 6.52639,3.6136 1.16417,0.64159 2.27542,1.28787 2.46944,1.43617 1.00418,0.76754 8.75326,4.92781 8.90188,4.77919 0.0954,-0.0954 0.002,-0.9361 -0.2067,-1.8682 -0.20909,-0.9321 -1.18748,-5.90161 -2.17421,-11.04335 -0.98673,-5.14173 -2.04239,-10.53923 -2.34591,-11.99444 -0.30352,-1.45521 -0.76291,-3.67771 -1.02087,-4.93889 l -0.46902,-2.29305 1.66527,-1.5875 c 2.22563,-2.1217 4.59232,-4.2809 12.95027,-11.81492 8.40314,-7.57476 9.84601,-8.95735 9.60225,-9.20111 -0.17242,-0.17241 -1.97328,-0.38966 -9.96962,-1.20269 -1.74625,-0.17755 -4.445,-0.4883 -5.99723,-0.69055 -1.55222,-0.20226 -4.25097,-0.52235 -5.99722,-0.7113 -10.10522,-1.09347 -11.1125,-1.25304 -11.1125,-1.76039 0,-0.17616 -0.57413,-1.5622 -1.27584,-3.08008 -0.70172,-1.51789 -2.38955,-5.22042 -3.75073,-8.22785 -1.36119,-3.00743 -3.30206,-7.2143 -4.31303,-9.34861 -1.01098,-2.13431 -2.28767,-4.91243 -2.8371,-6.17361 -0.54943,-1.26118 -1.12694,-2.44075 -1.28336,-2.62126 -0.15706,-0.18125 -0.93527,1.08242 -1.73802,2.82222 -0.79949,1.73273 -2.23136,4.78008 -3.18193,6.77187 -0.950577,1.99179 -1.728318,3.68368 -1.728318,3.75975 0,0.0761 -0.692094,1.62143 -1.537987,3.43412 -0.845892,1.81269 -2.057156,4.48642 -2.691698,5.94163 -0.634541,1.45521 -1.678747,3.69368 -2.320458,4.97437 l -1.166745,2.32854 -2.57975,0.23213 c -1.418863,0.12767 -3.770375,0.39255 -5.225583,0.58863 -3.374886,0.45474 -10.89303,1.33998 -14.993055,1.76538 -1.746249,0.18119 -4.524374,0.48969 -6.17361,0.68557 -1.649236,0.19587 -3.129314,0.35734 -3.289061,0.35881 -0.678287,0.006 0.06682,1.05419 1.87795,2.64119 1.067153,0.9351 3.686527,3.31338 5.820833,5.28508 2.134305,1.97169 4.674305,4.28489 5.644444,5.14042 0.970139,0.85554 2.798162,2.51269 4.062274,3.68256 1.264111,1.16987 3.224625,2.98443 4.356697,4.03236 l 2.058312,1.90532 -0.943157,4.97384 c -0.518737,2.73562 -1.883938,9.70257 -3.033781,15.48211 -1.149843,5.77955 -2.090623,10.82545 -2.090623,11.21311 0,0.81385 -0.479914,1.01738 5.468055,-2.319 z"
         id="path1" /></g></g></svg>
