<?xml version="1.0" encoding="UTF-8" standalone="no"?>
<!-- Created with Inkscape (http://www.inkscape.org/) -->

<svg
   version="1.1"
   id="svg1"
   width="946.58887"
   height="502.78848"
   viewBox="0 0 946.5889 502.7885"
   sodipodi:docname="icon-technique-slice.svg"
   inkscape:version="1.4.2 (f4327f4, 2025-05-13)"
   xmlns:inkscape="http://www.inkscape.org/namespaces/inkscape"
   xmlns:sodipodi="http://sodipodi.sourceforge.net/DTD/sodipodi-0.dtd"
   xmlns="http://www.w3.org/2000/svg"
   xmlns:svg="http://www.w3.org/2000/svg">
  <defs
     id="defs1" />
  <sodipodi:namedview
     id="namedview1"
     pagecolor="#ffffff"
     bordercolor="#000000"
     borderopacity="0.25"
     inkscape:showpageshadow="2"
     inkscape:pageopacity="0.0"
     inkscape:pagecheckerboard="0"
     inkscape:deskcolor="#d1d1d1"
     inkscape:zoom="0.59692386"
     inkscape:cx="512.62819"
     inkscape:cy="248.77545"
     inkscape:window-width="1920"
     inkscape:window-height="1017"
     inkscape:window-x="-8"
     inkscape:window-y="-8"
     inkscape:window-maximized="1"
     inkscape:current-layer="g1" />
  <g
     inkscape:groupmode="layer"
     inkscape:label="Image"
     id="g1"
     style="display:inline"
     transform="translate(-205.98279,-434.08587)">
    <g
       id="g13"
       transform="translate(-3.3505292,16.752559)"
       style="display:inline">
      <path
         style="fill:#15a1dc"
         d="m 505.3333,904.66661 v -15.45517 l 9,0.39425 9,0.39426 v 14.66666 14.66667 l -9,0.39425 -9,0.39425 z m 337.33332,-5.33333 v -15.33333 h 9.33333 9.33333 v 15.33333 15.33333 h -9.33333 -9.33333 z m -169.33333,-5.33333 v -15.33334 h 9.33334 9.33333 v 15.33334 15.33333 h -9.33333 -9.33334 z M 504.68251,865.35897 c -0.44449,-0.71921 -0.39413,-7.31921 0.11192,-14.66667 l 0.92008,-13.35902 h 9.14273 9.14273 v 14.66667 14.66667 h -9.25464 c -5.09006,0 -9.61832,-0.58845 -10.06282,-1.30765 z m 337.98411,-19.35902 v -15.33333 h 9.33333 9.33333 v 15.33333 15.33333 h -9.33333 -9.33333 z m -169.04366,-5 0.377,-15 h 8.66667 8.66666 l 0.377,15 0.37701,15 h -9.42067 -9.42067 z M 505.3333,798.72754 v -14.72759 h 9.37844 9.37845 l -0.37845,14.33334 -0.37844,14.33333 -9,0.39425 -9,0.39425 z m 338.22221,8.38352 c -0.48889,-0.48889 -0.88889,-7.38889 -0.88889,-15.33333 v -14.44444 h 9.33333 9.33333 v 15.33333 15.33333 h -8.44444 c -4.64445,0 -8.84445,-0.4 -9.33333,-0.88889 z M 673.33329,787.99995 v -14.66666 h 9.33334 9.33333 v 14.66666 14.66667 h -9.33333 -9.33334 z M 505.3333,745.33329 v -14.66667 h 9.33334 9.33333 v 14.66667 14.66666 h -9.33333 -9.33334 z m 338.22221,8.44444 c -0.48889,-0.48889 -0.88889,-7.38889 -0.88889,-15.33333 v -14.44444 h 9.33333 9.33333 v 15.33333 15.33333 h -8.44444 c -4.64445,0 -8.84445,-0.4 -9.33333,-0.88889 z m -169.71746,-5.05224 c -0.33389,-0.87011 -0.43405,-7.5393 -0.22258,-14.82044 l 0.38449,-13.23843 h 8.66667 8.66666 l 0.37844,14.33334 c 0.20815,7.88333 -0.0919,14.39948 -0.66666,14.48033 -6.96377,0.97953 -16.70547,0.5522 -17.20702,-0.7548 z m -452.50473,-1.3922 c 0,-0.36667 0.3,-0.66667 0.66667,-0.66667 0.36666,0 0.66666,0.3 0.66666,0.66667 0,0.36667 -0.3,0.66667 -0.66666,0.66667 -0.36667,0 -0.66667,-0.3 -0.66667,-0.66667 z m 317.33331,0 c 0,-0.36667 0.3,-0.66667 0.66667,-0.66667 0.36667,0 0.66667,0.3 0.66667,0.66667 0,0.36667 -0.3,0.66667 -0.66667,0.66667 -0.36667,0 -0.66667,-0.3 -0.66667,-0.66667 z m 603.99997,0 c 0,-0.36667 0.3,-0.66667 0.6667,-0.66667 0.3666,0 0.6666,0.3 0.6666,0.66667 0,0.36667 -0.3,0.66667 -0.6666,0.66667 -0.3667,0 -0.6667,-0.3 -0.6667,-0.66667 z M 209.33332,733.99996 c 0,-0.36667 0.3,-0.66667 0.66667,-0.66667 0.36666,0 0.66666,0.3 0.66666,0.66667 0,0.36666 -0.3,0.66666 -0.66666,0.66666 -0.36667,0 -0.66667,-0.3 -0.66667,-0.66666 z m 945.76008,-7.33334 c 0,-4.76666 0.242,-6.71666 0.5377,-4.33333 0.2958,2.38333 0.2958,6.28333 0,8.66667 -0.2957,2.38333 -0.5377,0.43333 -0.5377,-4.33334 z m -945.76008,1.33334 c 0,-0.97778 0.4,-1.37778 0.88889,-0.88889 0.48889,0.48889 0.48889,1.28889 0,1.77778 -0.48889,0.48888 -0.88889,0.0889 -0.88889,-0.88889 z m 0.58737,-40 c 0,-20.9 0.18431,-29.45 0.40959,-19 0.22527,10.45 0.22527,27.55 0,38 -0.22528,10.45 -0.40959,1.9 -0.40959,-19 z m 944.74591,25.33333 c 0,-0.97778 0.4,-1.37778 0.8889,-0.88889 0.4889,0.48889 0.4889,1.28889 0,1.77778 -0.4889,0.48889 -0.8889,0.0889 -0.8889,-0.88889 z M 505.3333,692.66663 v -15.45518 l 9,0.39426 9,0.39425 v 14.66667 14.66666 l -9,0.39425 -9,0.39426 z m 649.8957,-15.33334 c 0,-15.03333 0.1944,-21.18333 0.4321,-13.66666 0.2377,7.51666 0.2377,19.81666 0,27.33333 -0.2377,7.51667 -0.4321,1.36667 -0.4321,-13.66667 z m -312.56238,8.66667 v -15.33333 h 9.33333 9.33333 v 15.33333 15.33333 h -9.33333 -9.33333 z m -169.33333,-3.22222 c 0,-8.33712 0.55948,-14.74543 1.30958,-15 0.72027,-0.24445 4.92027,-0.24115 9.33333,0.007 l 8.02376,0.45177 v 14.54823 14.54824 h -9.33333 -9.33334 z M 505.3333,639.3333 v -15.45518 l 9,0.39426 9,0.39425 v 14.66667 14.66666 l -9,0.39425 -9,0.39426 z m -295.89472,7.88888 c 0.064,-1.55325 0.37992,-1.8692 0.80556,-0.80555 0.38516,0.9625 0.33779,2.1125 -0.10526,2.55555 -0.44306,0.44306 -0.75819,-0.34444 -0.7003,-1.75 z m 945.33332,0 c 0.064,-1.55325 0.3799,-1.8692 0.8055,-0.80555 0.3852,0.9625 0.3378,2.1125 -0.1052,2.55555 -0.4431,0.44306 -0.7582,-0.34444 -0.7003,-1.75 z m -311.21639,-0.11111 c -0.48889,-0.48889 -0.88889,-7.38889 -0.88889,-15.33333 V 617.3333 h 9.33333 9.33333 v 15.33333 15.33333 h -8.44444 c -4.64445,0 -8.84445,-0.4 -9.33333,-0.88889 z M 673.33329,629.3333 v -14.66667 h 9.33334 9.33333 v 14.66667 14.66666 h -9.33333 -9.33334 z m -461.3333,10 c 0,-0.36667 0.3,-0.66667 0.66666,-0.66667 0.36667,0 0.66667,0.3 0.66667,0.66667 0,0.36666 -0.3,0.66666 -0.66667,0.66666 -0.36666,0 -0.66666,-0.3 -0.66666,-0.66666 z m 939.99991,0 c 0,-0.36667 0.3,-0.66667 0.6667,-0.66667 0.3667,0 0.6667,0.3 0.6667,0.66667 0,0.36666 -0.3,0.66666 -0.6667,0.66666 -0.3667,0 -0.6667,-0.3 -0.6667,-0.66666 z m -935.99991,-4 c 0,-0.36667 0.3,-0.66667 0.66666,-0.66667 0.36667,0 0.66667,0.3 0.66667,0.66667 0,0.36666 -0.3,0.66666 -0.66667,0.66666 -0.36666,0 -0.66666,-0.3 -0.66666,-0.66666 z m 931.99991,0 c 0,-0.36667 0.3,-0.66667 0.6667,-0.66667 0.3667,0 0.6667,0.3 0.6667,0.66667 0,0.36666 -0.3,0.66666 -0.6667,0.66666 -0.3667,0 -0.6667,-0.3 -0.6667,-0.66666 z m -929.33325,-1.33334 c 0,-0.36666 0.3,-0.66666 0.66667,-0.66666 0.36667,0 0.66667,0.3 0.66667,0.66666 0,0.36667 -0.3,0.66667 -0.66667,0.66667 -0.36667,0 -0.66667,-0.3 -0.66667,-0.66667 z m 5,-1.54971 c 0.91667,-0.36988 2.41667,-0.36988 3.33334,0 0.91666,0.36989 0.16666,0.67252 -1.66667,0.67252 -1.83333,0 -2.58333,-0.30263 -1.66667,-0.67252 z m 13.33334,-0.0579 c 1.65,-0.31781 4.35,-0.31781 6,0 1.65,0.3178 0.3,0.57782 -3,0.57782 -3.3,0 -4.65,-0.26002 -3,-0.57782 z m 154.74999,0.0302 c 0.9625,-0.38516 2.1125,-0.3378 2.55555,0.10526 0.44306,0.44306 -0.34444,0.75819 -1.75,0.70029 -1.55326,-0.064 -1.8692,-0.37992 -0.80555,-0.80555 z m 94.91666,0.24415 c 0,-0.36667 0.3,-0.66667 0.66666,-0.66667 0.36667,0 0.66667,0.3 0.66667,0.66667 0,0.36667 -0.3,0.66667 -0.66667,0.66667 -0.36666,0 -0.66666,-0.3 -0.66666,-0.66667 z m 51.99999,0 c 0,-0.36667 0.3,-0.66667 0.66667,-0.66667 0.36667,0 0.66667,0.3 0.66667,0.66667 0,0.36667 -0.3,0.66667 -0.66667,0.66667 -0.36667,0 -0.66667,-0.3 -0.66667,-0.66667 z m 3.11112,-0.22222 c 0.48888,-0.48889 1.28888,-0.48889 1.77777,0 0.48889,0.48889 0.0889,0.88889 -0.88889,0.88889 -0.97777,0 -1.37777,-0.4 -0.88888,-0.88889 z m 111.22221,0.006 c 0.91667,-0.36988 2.41667,-0.36988 3.33333,0 0.91667,0.36989 0.16667,0.67252 -1.66666,0.67252 -1.83334,0 -2.58334,-0.30263 -1.66667,-0.67252 z m 55,0.21638 c 0,-0.36667 0.3,-0.66667 0.66666,-0.66667 0.36667,0 0.66667,0.3 0.66667,0.66667 0,0.36667 -0.3,0.66667 -0.66667,0.66667 -0.36666,0 -0.66666,-0.3 -0.66666,-0.66667 z m 62.33333,-0.27431 c 1.65,-0.31781 4.35,-0.31781 6,0 1.65,0.3178 0.3,0.57782 -3,0.57782 -3.3,0 -4.65,-0.26002 -3,-0.57782 z m 54.99999,0.27431 c 0,-0.36667 0.3,-0.66667 0.66667,-0.66667 0.36667,0 0.66667,0.3 0.66667,0.66667 0,0.36667 -0.3,0.66667 -0.66667,0.66667 -0.36667,0 -0.66667,-0.3 -0.66667,-0.66667 z m 52,0 c 0,-0.36667 0.3,-0.66667 0.66667,-0.66667 0.36666,0 0.66666,0.3 0.66666,0.66667 0,0.36667 -0.3,0.66667 -0.66666,0.66667 -0.36667,0 -0.66667,-0.3 -0.66667,-0.66667 z m 5.77778,-0.22222 c 0.48889,-0.48889 1.28889,-0.48889 1.77778,0 0.48889,0.48889 0.0889,0.88889 -0.88889,0.88889 -0.97778,0 -1.37778,-0.4 -0.88889,-0.88889 z m 10.66666,0 c 0.48889,-0.48889 1.28889,-0.48889 1.77778,0 0.48889,0.48889 0.0889,0.88889 -0.88889,0.88889 -0.97777,0 -1.37777,-0.4 -0.88889,-0.88889 z m 31.22222,-0.0983 c 4.58334,-0.26036 12.08334,-0.26036 16.66667,0 4.58333,0.26036 0.83333,0.47338 -8.33333,0.47338 -9.16667,0 -12.91667,-0.21302 -8.33334,-0.47338 z m 41.37803,0.003 c 3.87458,-0.27019 9.87458,-0.26735 13.33333,0.006 3.45875,0.27366 0.28864,0.49472 -7.04469,0.49125 -7.33333,-0.003 -10.16322,-0.22737 -6.28864,-0.49756 z m 106.06643,0.0956 c 0.4889,-0.48889 1.2889,-0.48889 1.7778,0 0.4888,0.48889 0.089,0.88889 -0.8889,0.88889 -0.9778,0 -1.3778,-0.4 -0.8889,-0.88889 z M 361.33331,612.66663 c 0,-0.36667 0.3,-0.66667 0.66667,-0.66667 0.36667,0 0.66667,0.3 0.66667,0.66667 0,0.36667 -0.3,0.66667 -0.66667,0.66667 -0.36667,0 -0.66667,-0.3 -0.66667,-0.66667 z m 25.77778,-0.22222 c 0.48889,-0.48889 1.28889,-0.48889 1.77778,0 0.48888,0.48889 0.0889,0.88889 -0.88889,0.88889 -0.97778,0 -1.37778,-0.4 -0.88889,-0.88889 z m -32.44444,-1.11111 c 0,-0.36667 0.3,-0.66667 0.66666,-0.66667 0.36667,0 0.66667,0.3 0.66667,0.66667 0,0.36666 -0.3,0.66666 -0.66667,0.66666 -0.36666,0 -0.66666,-0.3 -0.66666,-0.66666 z m 47.1111,-0.22223 c 0.48889,-0.48888 1.28889,-0.48888 1.77778,0 0.48889,0.48889 0.0889,0.88889 -0.88889,0.88889 -0.97778,0 -1.37778,-0.4 -0.88889,-0.88889 z m -52.44444,-1.11111 c 0,-0.36666 0.3,-0.66666 0.66667,-0.66666 0.36667,0 0.66667,0.3 0.66667,0.66666 0,0.36667 -0.3,0.66667 -0.66667,0.66667 -0.36667,0 -0.66667,-0.3 -0.66667,-0.66667 z m 53.33333,-1.33333 c 0,-0.36667 0.3,-0.66667 0.66667,-0.66667 0.36667,0 0.66667,0.3 0.66667,0.66667 0,0.36667 -0.3,0.66667 -0.66667,0.66667 -0.36667,0 -0.66667,-0.3 -0.66667,-0.66667 z m -59.99999,-1.33333 c 0,-0.36667 0.3,-0.66667 0.66666,-0.66667 0.36667,0 0.66667,0.3 0.66667,0.66667 0,0.36666 -0.3,0.66666 -0.66667,0.66666 -0.36666,0 -0.66666,-0.3 -0.66666,-0.66666 z m -2.66667,-1.33334 c 0,-0.36666 0.3,-0.66666 0.66667,-0.66666 0.36666,0 0.66666,0.3 0.66666,0.66666 0,0.36667 -0.3,0.66667 -0.66666,0.66667 -0.36667,0 -0.66667,-0.3 -0.66667,-0.66667 z m -4,-2.66666 c 0,-0.36667 0.3,-0.66667 0.66667,-0.66667 0.36666,0 0.66666,0.3 0.66666,0.66667 0,0.36666 -0.3,0.66666 -0.66666,0.66666 -0.36667,0 -0.66667,-0.3 -0.66667,-0.66666 z m 61.87267,-0.87268 c -0.58943,-0.95373 -0.36575,-1.17742 0.58798,-0.58798 0.84664,0.52325 1.53935,1.21596 1.53935,1.53935 0,1.11218 -1.17741,0.58563 -2.12733,-0.95137 z m -65.87267,-1.79399 c 0,-0.36667 0.3,-0.66667 0.66667,-0.66667 0.36666,0 0.66666,0.3 0.66666,0.66667 0,0.36667 -0.3,0.66667 -0.66666,0.66667 -0.36667,0 -0.66667,-0.3 -0.66667,-0.66667 z M 505.3333,586.72755 v -14.72758 h 9.37844 9.37845 l -0.37845,14.33333 -0.37844,14.33333 -9,0.39425 -9,0.39426 z m -113.33332,8.60575 c 0,-0.36667 0.3,-0.66667 0.66666,-0.66667 0.36667,0 0.66667,0.3 0.66667,0.66667 0,0.36666 -0.3,0.66666 -0.66667,0.66666 -0.36666,0 -0.66666,-0.3 -0.66666,-0.66666 z m 450.66664,-16 v -15.33333 h 9.33333 9.33333 v 15.33333 15.33333 h -9.33333 -9.33333 z M 673.33329,576.66663 V 561.3333 h 9.33334 9.33333 v 15.33333 15.33333 h -9.33333 -9.33334 z M 385.33331,587.3333 c 0,-0.36667 0.3,-0.66667 0.66667,-0.66667 0.36666,0 0.66666,0.3 0.66666,0.66667 0,0.36666 -0.3,0.66666 -0.66666,0.66666 -0.36667,0 -0.66667,-0.3 -0.66667,-0.66666 z m -69.33333,-2.66667 c 0,-0.36666 0.3,-0.66666 0.66667,-0.66666 0.36666,0 0.66666,0.3 0.66666,0.66666 0,0.36667 -0.3,0.66667 -0.66666,0.66667 -0.36667,0 -0.66667,-0.3 -0.66667,-0.66667 z m 64,-4 c 0,-0.36666 0.3,-0.66666 0.66666,-0.66666 0.36667,0 0.66667,0.3 0.66667,0.66666 0,0.36667 -0.3,0.66667 -0.66667,0.66667 -0.36666,0 -0.66666,-0.3 -0.66666,-0.66667 z m -69.33333,-2.66666 c 0,-0.36667 0.3,-0.66667 0.66666,-0.66667 0.36667,0 0.66667,0.3 0.66667,0.66667 0,0.36666 -0.3,0.66666 -0.66667,0.66666 -0.36666,0 -0.66666,-0.3 -0.66666,-0.66666 z m 63.20601,-4.87268 c -0.58944,-0.95373 -0.36576,-1.17742 0.58797,-0.58798 1.53701,0.94992 2.06356,2.12732 0.95137,2.12732 -0.32339,0 -1.01609,-0.6927 -1.53934,-1.53934 z m -4.53935,-5.79399 c 0,-0.36667 0.3,-0.66667 0.66667,-0.66667 0.36666,0 0.66666,0.3 0.66666,0.66667 0,0.36667 -0.3,0.66667 -0.66666,0.66667 -0.36667,0 -0.66667,-0.3 -0.66667,-0.66667 z m -67.99999,-1.33333 c 0,-0.36667 0.3,-0.66667 0.66666,-0.66667 0.36667,0 0.66667,0.3 0.66667,0.66667 0,0.36666 -0.3,0.66666 -0.66667,0.66666 -0.36666,0 -0.66666,-0.3 -0.66666,-0.66666 z m 62.66666,-5.33334 c 0,-0.36666 0.3,-0.66666 0.66666,-0.66666 0.36667,0 0.66667,0.3 0.66667,0.66666 0,0.36667 -0.3,0.66667 -0.66667,0.66667 -0.36666,0 -0.66666,-0.3 -0.66666,-0.66667 z m -68,-1.33333 c 0,-0.36667 0.3,-0.66667 0.66667,-0.66667 0.36667,0 0.66667,0.3 0.66667,0.66667 0,0.36667 -0.3,0.66667 -0.66667,0.66667 -0.36667,0 -0.66667,-0.3 -0.66667,-0.66667 z m -2.66666,-4 c 0,-0.36667 0.3,-0.66667 0.66666,-0.66667 0.36667,0 0.66667,0.3 0.66667,0.66667 0,0.36667 -0.3,0.66667 -0.66667,0.66667 -0.36666,0 -0.66666,-0.3 -0.66666,-0.66667 z m 65.33333,-1.33333 c 0,-0.36667 0.3,-0.66667 0.66666,-0.66667 0.36667,0 0.66667,0.3 0.66667,0.66667 0,0.36666 -0.3,0.66666 -0.66667,0.66666 -0.36666,0 -0.66666,-0.3 -0.66666,-0.66666 z m -70.66667,-5.33334 c 0,-0.36666 0.3,-0.66666 0.66667,-0.66666 0.36667,0 0.66667,0.3 0.66667,0.66666 0,0.36667 -0.3,0.66667 -0.66667,0.66667 -0.36667,0 -0.66667,-0.3 -0.66667,-0.66667 z m 65.33333,-1.33333 c 0,-0.36667 0.3,-0.66667 0.66667,-0.66667 0.36667,0 0.66667,0.3 0.66667,0.66667 0,0.36667 -0.3,0.66667 -0.66667,0.66667 -0.36667,0 -0.66667,-0.3 -0.66667,-0.66667 z m 151.99999,-14 v -14.66666 h 9.33334 9.33333 v 14.66666 14.66667 h -9.33333 -9.33334 z m -213.33332,10 c 0,-0.36667 0.3,-0.66667 0.66667,-0.66667 0.36667,0 0.66667,0.3 0.66667,0.66667 0,0.36667 -0.3,0.66667 -0.66667,0.66667 -0.36667,0 -0.66667,-0.3 -0.66667,-0.66667 z m 57.33333,-1.33333 c 0,-0.36667 0.3,-0.66667 0.66667,-0.66667 0.36667,0 0.66667,0.3 0.66667,0.66667 0,0.36666 -0.3,0.66666 -0.66667,0.66666 -0.36667,0 -0.66667,-0.3 -0.66667,-0.66666 z m 493.33331,-16 v -15.33333 h 9.33333 9.33333 v 15.33333 15.33333 h -9.33333 -9.33333 z m -543.99997,12 c 0,-0.36667 0.3,-0.66667 0.66667,-0.66667 0.36666,0 0.66666,0.3 0.66666,0.66667 0,0.36666 -0.3,0.66666 -0.66666,0.66666 -0.36667,0 -0.66667,-0.3 -0.66667,-0.66666 z M 673.33329,523.3333 v -15.33333 h 9.33334 9.33333 v 15.33333 15.33333 h -9.33333 -9.33334 z m -329.33331,12 c 0,-0.36667 0.3,-0.66667 0.66667,-0.66667 0.36666,0 0.66666,0.3 0.66666,0.66667 0,0.36667 -0.3,0.66667 -0.66666,0.66667 -0.36667,0 -0.66667,-0.3 -0.66667,-0.66667 z m -39.33333,-2 c 0.45322,-0.73333 1.12404,-1.33333 1.49071,-1.33333 0.36667,0 0.29585,0.6 -0.15738,1.33333 -0.45322,0.73333 -1.12404,1.33333 -1.49071,1.33333 -0.36667,0 -0.29585,-0.6 0.15738,-1.33333 z m 6,-4.66666 c 0,-0.36667 0.3,-0.66667 0.66666,-0.66667 0.36667,0 0.66667,0.3 0.66667,0.66667 0,0.36666 -0.3,0.66666 -0.66667,0.66666 -0.36666,0 -0.66666,-0.3 -0.66666,-0.66666 z m 28,0 c 0,-0.36667 0.3,-0.66667 0.66666,-0.66667 0.36667,0 0.66667,0.3 0.66667,0.66667 0,0.36666 -0.3,0.66666 -0.66667,0.66666 -0.36666,0 -0.66666,-0.3 -0.66666,-0.66666 z m -22,-4.66667 c 0.45322,-0.73333 1.12404,-1.33333 1.49071,-1.33333 0.36667,0 0.29585,0.6 -0.15738,1.33333 -0.45322,0.73333 -1.12404,1.33333 -1.49071,1.33333 -0.36667,0 -0.29585,-0.6 0.15738,-1.33333 z m -22,-3.33333 c 0,-0.36667 0.3,-0.66667 0.66667,-0.66667 0.36666,0 0.66666,0.3 0.66666,0.66667 0,0.36666 -0.3,0.66666 -0.66666,0.66666 -0.36667,0 -0.66667,-0.3 -0.66667,-0.66666 z m 37.33333,0 c 0,-0.36667 0.3,-0.66667 0.66667,-0.66667 0.36666,0 0.66666,0.3 0.66666,0.66667 0,0.36666 -0.3,0.66666 -0.66666,0.66666 -0.36667,0 -0.66667,-0.3 -0.66667,-0.66666 z m -9.33333,-1.33334 c 0,-0.36666 0.3,-0.66666 0.66666,-0.66666 0.36667,0 0.66667,0.3 0.66667,0.66666 0,0.36667 -0.3,0.66667 -0.66667,0.66667 -0.36666,0 -0.66666,-0.3 -0.66666,-0.66667 z m -20,-2.66666 c 0,-0.36667 0.3,-0.66667 0.66667,-0.66667 0.36666,0 0.66666,0.3 0.66666,0.66667 0,0.36666 -0.3,0.66666 -0.66666,0.66666 -0.36667,0 -0.66667,-0.3 -0.66667,-0.66666 z m -16,-4 c 0,-0.36667 0.3,-0.66667 0.66667,-0.66667 0.36666,0 0.66666,0.3 0.66666,0.66667 0,0.36666 -0.3,0.66666 -0.66666,0.66666 -0.36667,0 -0.66667,-0.3 -0.66667,-0.66666 z m 21.33333,0 c 0,-0.36667 0.3,-0.66667 0.66667,-0.66667 0.36666,0 0.66666,0.3 0.66666,0.66667 0,0.36666 -0.3,0.66666 -0.66666,0.66666 -0.36667,0 -0.66667,-0.3 -0.66667,-0.66666 z m -25.33333,-2.66667 c 0,-0.36667 0.3,-0.66667 0.66667,-0.66667 0.36666,0 0.66666,0.3 0.66666,0.66667 0,0.36667 -0.3,0.66667 -0.66666,0.66667 -0.36667,0 -0.66667,-0.3 -0.66667,-0.66667 z m -2.66667,-1.33333 c 0,-0.36667 0.3,-0.66667 0.66667,-0.66667 0.36667,0 0.66667,0.3 0.66667,0.66667 0,0.36666 -0.3,0.66666 -0.66667,0.66666 -0.36667,0 -0.66667,-0.3 -0.66667,-0.66666 z m 33.33333,0 c 0,-0.36667 0.3,-0.66667 0.66667,-0.66667 0.36667,0 0.66667,0.3 0.66667,0.66667 0,0.36666 -0.3,0.66666 -0.66667,0.66666 -0.36667,0 -0.66667,-0.3 -0.66667,-0.66666 z m -39.99999,-4 c 0,-0.36667 0.3,-0.66667 0.66666,-0.66667 0.36667,0 0.66667,0.3 0.66667,0.66667 0,0.36666 -0.3,0.66666 -0.66667,0.66666 -0.36666,0 -0.66666,-0.3 -0.66666,-0.66666 z m 12,-2.66667 c 0,-0.36667 0.3,-0.66667 0.66666,-0.66667 0.36667,0 0.66667,0.3 0.66667,0.66667 0,0.36667 -0.3,0.66667 -0.66667,0.66667 -0.36666,0 -0.66666,-0.3 -0.66666,-0.66667 z m 4,0 c 0,-0.36667 0.3,-0.66667 0.66666,-0.66667 0.36667,0 0.66667,0.3 0.66667,0.66667 0,0.36667 -0.3,0.66667 -0.66667,0.66667 -0.36666,0 -0.66666,-0.3 -0.66666,-0.66667 z m -22.83674,-3 c -1.6585,-2.11474 -1.61134,-2.1619 0.5034,-0.50341 1.28334,1.00646 2.33334,2.05646 2.33334,2.33334 0,1.09738 -1.09492,0.39107 -2.83674,-1.82993 z m 16.17007,1.66667 c 0,-0.36667 0.3,-0.66667 0.66667,-0.66667 0.36666,0 0.66666,0.3 0.66666,0.66667 0,0.36666 -0.3,0.66666 -0.66666,0.66666 -0.36667,0 -0.66667,-0.3 -0.66667,-0.66666 z m 32,-1.33334 c 0,-0.36666 0.3,-0.66666 0.66666,-0.66666 0.36667,0 0.66667,0.3 0.66667,0.66666 0,0.36667 -0.3,0.66667 -0.66667,0.66667 -0.36666,0 -0.66666,-0.3 -0.66666,-0.66667 z m -53.50341,-5.66666 c -1.65849,-2.11474 -1.61133,-2.1619 0.50341,-0.50341 1.28333,1.00646 2.33333,2.05646 2.33333,2.33333 0,1.09738 -1.09491,0.39107 -2.83674,-1.82992 z m 34.94201,0.22222 c 0.064,-1.55326 0.37992,-1.8692 0.80555,-0.80556 0.38516,0.9625 0.33779,2.1125 -0.10526,2.55556 -0.44306,0.44305 -0.75819,-0.34445 -0.70029,-1.75 z m 14.5614,0.11111 c 0,-0.36667 0.3,-0.66667 0.66666,-0.66667 0.36667,0 0.66667,0.3 0.66667,0.66667 0,0.36667 -0.3,0.66667 -0.66667,0.66667 -0.36666,0 -0.66666,-0.3 -0.66666,-0.66667 z m 194.66665,-14 v -14.66666 h 9.33334 9.33333 v 14.66666 14.66667 h -9.33333 -9.33334 z m -247.99998,8.66667 c 0,-0.36667 0.3,-0.66667 0.66666,-0.66667 0.36667,0 0.66667,0.3 0.66667,0.66667 0,0.36666 -0.3,0.66666 -0.66667,0.66666 -0.36666,0 -0.66666,-0.3 -0.66666,-0.66666 z m 48,-1.33334 c 0,-0.36666 0.3,-0.66666 0.66666,-0.66666 0.36667,0 0.66667,0.3 0.66667,0.66666 0,0.36667 -0.3,0.66667 -0.66667,0.66667 -0.36666,0 -0.66666,-0.3 -0.66666,-0.66667 z m -17.58334,-1.57748 c 0.9625,-0.38516 2.1125,-0.33779 2.55556,0.10526 0.44305,0.44306 -0.34445,0.75819 -1.75,0.70029 -1.55326,-0.064 -1.8692,-0.37992 -0.80556,-0.80555 z m 554.91664,-13.75585 v -14.66666 h 9.33333 9.33333 v 14.66666 14.66667 h -9.33333 -9.33333 z m -587.99997,12.66667 c 0,-0.36667 0.3,-0.66667 0.66667,-0.66667 0.36666,0 0.66666,0.3 0.66666,0.66667 0,0.36666 -0.3,0.66666 -0.66666,0.66666 -0.36667,0 -0.66667,-0.3 -0.66667,-0.66666 z m 418.66664,-14.66667 v -15.33333 h 9.33334 9.33333 v 15.33333 15.33333 h -9.33333 -9.33334 z m -419.99997,12 c 0,-0.36667 0.3,-0.66667 0.66666,-0.66667 0.36667,0 0.66667,0.3 0.66667,0.66667 0,0.36667 -0.3,0.66667 -0.66667,0.66667 -0.36666,0 -0.66666,-0.3 -0.66666,-0.66667 z m 45.87267,-2.20601 c -0.58944,-0.95373 -0.36575,-1.17742 0.58798,-0.58798 1.537,0.94992 2.06355,2.12732 0.95137,2.12732 -0.32339,0 -1.01609,-0.6927 -1.53935,-1.53934 z m -47.20601,-0.46066 c 0,-0.36666 0.3,-0.66666 0.66667,-0.66666 0.36667,0 0.66667,0.3 0.66667,0.66666 0,0.36667 -0.3,0.66667 -0.66667,0.66667 -0.36667,0 -0.66667,-0.3 -0.66667,-0.66667 z m 41.33334,-6.66666 c 0,-0.36667 0.3,-0.66667 0.66666,-0.66667 0.36667,0 0.66667,0.3 0.66667,0.66667 0,0.36667 -0.3,0.66667 -0.66667,0.66667 -0.36666,0 -0.66666,-0.3 -0.66666,-0.66667 z m -48,-6.66667 c 0,-0.36666 0.3,-0.66666 0.66667,-0.66666 0.36666,0 0.66666,0.3 0.66666,0.66666 0,0.36667 -0.3,0.66667 -0.66666,0.66667 -0.36667,0 -0.66667,-0.3 -0.66667,-0.66667 z m 42.66666,0 c 0,-0.36666 0.3,-0.66666 0.66667,-0.66666 0.36667,0 0.66667,0.3 0.66667,0.66666 0,0.36667 -0.3,0.66667 -0.66667,0.66667 -0.36667,0 -0.66667,-0.3 -0.66667,-0.66667 z m -49.33333,-6.66666 c 0,-0.36667 0.3,-0.66667 0.66667,-0.66667 0.36667,0 0.66667,0.3 0.66667,0.66667 0,0.36666 -0.3,0.66666 -0.66667,0.66666 -0.36667,0 -0.66667,-0.3 -0.66667,-0.66666 z m 44,0 c 0,-0.36667 0.3,-0.66667 0.66667,-0.66667 0.36666,0 0.66666,0.3 0.66666,0.66667 0,0.36666 -0.3,0.66666 -0.66666,0.66666 -0.36667,0 -0.66667,-0.3 -0.66667,-0.66666 z m -50.66666,-2.66667 c 0,-0.36667 0.3,-0.66667 0.66666,-0.66667 0.36667,0 0.66667,0.3 0.66667,0.66667 0,0.36667 -0.3,0.66667 -0.66667,0.66667 -0.36666,0 -0.66666,-0.3 -0.66666,-0.66667 z m -6.66667,-1.33333 c 0,-0.36667 0.3,-0.66667 0.66667,-0.66667 0.36666,0 0.66666,0.3 0.66666,0.66667 0,0.36666 -0.3,0.66666 -0.66666,0.66666 -0.36667,0 -0.66667,-0.3 -0.66667,-0.66666 z m -4,-2.66667 c 0,-0.36667 0.3,-0.66667 0.66667,-0.66667 0.36666,0 0.66666,0.3 0.66666,0.66667 0,0.36667 -0.3,0.66667 -0.66666,0.66667 -0.36667,0 -0.66667,-0.3 -0.66667,-0.66667 z m 55.20601,-0.87268 c -0.58944,-0.95373 -0.36576,-1.17741 0.58798,-0.58798 1.537,0.94992 2.06355,2.12733 0.95136,2.12733 -0.32338,0 -1.01609,-0.69271 -1.53934,-1.53935 z m -37.87268,-4.46065 c 0,-0.36667 0.3,-0.66667 0.66667,-0.66667 0.36667,0 0.66667,0.3 0.66667,0.66667 0,0.36666 -0.3,0.66666 -0.66667,0.66666 -0.36667,0 -0.66667,-0.3 -0.66667,-0.66666 z m 32,-2.66667 c 0,-0.36667 0.3,-0.66667 0.66667,-0.66667 0.36666,0 0.66666,0.3 0.66666,0.66667 0,0.36667 -0.3,0.66667 -0.66666,0.66667 -0.36667,0 -0.66667,-0.3 -0.66667,-0.66667 z m -18.66667,-6.66667 c 0,-0.36666 0.3,-0.66666 0.66667,-0.66666 0.36667,0 0.66667,0.3 0.66667,0.66666 0,0.36667 -0.3,0.66667 -0.66667,0.66667 -0.36667,0 -0.66667,-0.3 -0.66667,-0.66667 z m 13.33334,0 c 0,-0.36666 0.3,-0.66666 0.66666,-0.66666 0.36667,0 0.66667,0.3 0.66667,0.66666 0,0.36667 -0.3,0.66667 -0.66667,0.66667 -0.36666,0 -0.66666,-0.3 -0.66666,-0.66667 z m -22.66667,-1.33333 c 0,-0.36667 0.3,-0.66667 0.66667,-0.66667 0.36667,0 0.66667,0.3 0.66667,0.66667 0,0.36667 -0.3,0.66667 -0.66667,0.66667 -0.36667,0 -0.66667,-0.3 -0.66667,-0.66667 z m -20.66666,-6 c 0.45322,-0.73333 1.12404,-1.33333 1.49071,-1.33333 0.36667,0 0.29584,0.6 -0.15738,1.33333 -0.45322,0.73333 -1.12405,1.33333 -1.49071,1.33333 -0.36667,0 -0.29585,-0.6 0.15738,-1.33333 z m 37.99999,0.66667 c 0,-0.36667 0.3,-0.66667 0.66667,-0.66667 0.36667,0 0.66667,0.3 0.66667,0.66667 0,0.36666 -0.3,0.66666 -0.66667,0.66666 -0.36667,0 -0.66667,-0.3 -0.66667,-0.66666 z m -33.99999,-4.66667 c 0.45322,-0.73333 1.12404,-1.33333 1.49071,-1.33333 0.36667,0 0.29584,0.6 -0.15738,1.33333 -0.45323,0.73333 -1.12405,1.33333 -1.49071,1.33333 -0.36667,0 -0.29585,-0.6 0.15738,-1.33333 z m 28.66666,-2 c 0,-0.36667 0.3,-0.66667 0.66667,-0.66667 0.36666,0 0.66666,0.3 0.66666,0.66667 0,0.36667 -0.3,0.66667 -0.66666,0.66667 -0.36667,0 -0.66667,-0.3 -0.66667,-0.66667 z m -22.66666,-2.66667 c 0,-0.36666 0.3,-0.66666 0.66666,-0.66666 0.36667,0 0.66667,0.3 0.66667,0.66666 0,0.36667 -0.3,0.66667 -0.66667,0.66667 -0.36666,0 -0.66666,-0.3 -0.66666,-0.66667 z m 17.33333,-2.66666 c 0,-0.36667 0.3,-0.66667 0.66667,-0.66667 0.36666,0 0.66666,0.3 0.66666,0.66667 0,0.36666 -0.3,0.66666 -0.66666,0.66666 -0.36667,0 -0.66667,-0.3 -0.66667,-0.66666 z m -10.66667,-1.33333 c 0,-0.36667 0.3,-0.66667 0.66667,-0.66667 0.36667,0 0.66667,0.3 0.66667,0.66667 0,0.36666 -0.3,0.66666 -0.66667,0.66666 -0.36667,0 -0.66667,-0.3 -0.66667,-0.66666 z"
         id="path14" />
      <path
         style="fill:#1d3a56"
         d="m 219.10062,746.05445 c -8.7724,-3.81581 -8.73043,-3.54106 -8.56764,-56.09152 0.16193,-52.26915 0.11144,-51.94079 8.532,-55.4948 3.48821,-1.47224 28.39404,-1.8015 136.26833,-1.8015 H 487.3333 l 0.3475,57.66666 0.3475,57.66667 -132.34749,-0.0522 c -109.54835,-0.0432 -133.07665,-0.36936 -136.58019,-1.89332 z m 320.17594,0.27843 c -0.35185,-0.91689 -0.48301,-26.86689 -0.29149,-57.66666 l 0.34823,-55.99959 53.33333,-0.41081 c 29.33333,-0.22595 55.88333,-0.0392 59,0.41503 l 5.66666,0.82584 v 57.25163 57.25164 h -58.70851 c -45.74447,0 -58.84977,-0.36813 -59.34822,-1.66708 z m 169.04257,-55.99959 0.34749,-57.66666 h 58.66667 58.66666 l 0.3475,57.66666 0.34749,57.66667 h -59.36165 -59.36166 z m 169.33332,0.0578 0.3475,-57.60882 131.69105,-0.44216 c 119.358,-0.40075 132.1185,-0.23932 136.2552,1.7237 8.8826,4.21504 8.7678,3.49777 8.942,55.88325 0.1418,42.62824 -0.068,47.62007 -2.1359,50.7758 -4.9308,7.52538 -0.038,7.27706 -143.3904,7.27706 H 877.30495 Z m -522.9858,-79.37945 c -15.39561,-4.19723 -26.17039,-12.02115 -39.90383,-28.97548 -8.17419,-10.09127 -24.33412,-31.08828 -25.80742,-33.53223 -0.54303,-0.90079 7.12928,-7.75409 19.28387,-17.22534 l 20.18571,-15.72934 3.19307,3.89201 c 1.7562,2.1406 12.00333,14.992 22.77141,28.55867 10.76808,13.56666 26.38798,33.01348 34.7109,43.21514 11.79556,14.4582 14.70261,18.7891 13.18279,19.63963 -1.07238,0.60014 -10.2748,1.41258 -20.44981,1.80542 -15.17093,0.58573 -20.0596,0.28909 -27.16669,-1.64848 z m -61.82988,-93.33055 c -2.10643,-2.43146 -7.80643,-6.75197 -12.66667,-9.60113 -12.86822,-7.54359 -20.46085,-15.86508 -28.17117,-30.87549 -7.47288,-14.54816 -12.30843,-19.46276 -20.42706,-20.76098 -7.99046,-1.27773 -12.90522,-6.58091 -12.90522,-13.92515 0,-6.92303 3.22508,-11.95421 12.13576,-18.93205 7.77879,-6.09146 13.73613,-7.35478 18.77433,-3.98129 2.85466,1.91144 40.26611,47.31559 65.03974,78.93506 l 4.60182,5.87347 -4.56229,3.45987 c -2.50927,1.90292 -7.58339,5.88281 -11.27583,8.8442 l -6.71353,5.38433 z m 1.22382,-18.28722 c 1.8,-1.8 3.27273,-4.22727 3.27273,-5.39394 0,-2.62616 -5.87295,-8.66667 -8.42625,-8.66667 -3.41536,0 -8.90709,5.40316 -8.90709,8.76344 0,3.94718 4.34801,8.5699 8.06061,8.5699 1.5,0 4.2,-1.47273 6,-3.27273 z m -41.83226,-49.60059 c 2.99143,-2.7072 3.17214,-8.86905 0.34308,-11.69811 -3.10996,-3.10996 -9.3643,-2.65097 -11.82915,0.86811 -2.9291,4.18187 -2.57658,8.53455 0.88773,10.96105 3.8271,2.6806 7.54227,2.63466 10.59834,-0.13105 z"
         id="path13" />
    </g>
  </g>
</svg>
