<?xml version="1.0" encoding="UTF-8" standalone="no"?>
<!-- Created with Inkscape (http://www.inkscape.org/) -->

<svg
   width="222.78398mm"
   height="175.12115mm"
   viewBox="0 0 222.78398 175.12115"
   version="1.1"
   id="svg1"
   xml:space="preserve"
   inkscape:version="1.4.2 (f4327f4, 2025-05-13)"
   sodipodi:docname="icon-feedback.svg"
   xmlns:inkscape="http://www.inkscape.org/namespaces/inkscape"
   xmlns:sodipodi="http://sodipodi.sourceforge.net/DTD/sodipodi-0.dtd"
   xmlns="http://www.w3.org/2000/svg"
   xmlns:svg="http://www.w3.org/2000/svg"><sodipodi:namedview
     id="namedview1"
     pagecolor="#ffffff"
     bordercolor="#000000"
     borderopacity="0.25"
     inkscape:showpageshadow="2"
     inkscape:pageopacity="0.0"
     inkscape:pagecheckerboard="0"
     inkscape:deskcolor="#d1d1d1"
     inkscape:document-units="mm"
     inkscape:zoom="0.72604517"
     inkscape:cx="418.01807"
     inkscape:cy="383.58495"
     inkscape:window-width="1920"
     inkscape:window-height="1017"
     inkscape:window-x="-8"
     inkscape:window-y="-8"
     inkscape:window-maximized="1"
     inkscape:current-layer="layer1" /><defs
     id="defs1" /><g
     inkscape:label="Слой 1"
     inkscape:groupmode="layer"
     id="layer1"
     transform="translate(5.3264752,-47.006312)"><path
       style="fill:#ffffff;fill-opacity:1"
       d="m 13.199161,222.00255 c -4.7242197,-0.28203 -8.5336197,-1.90293 -11.9328397,-5.07743 -3.34171,-3.12078 -5.04007,-5.90773 -6.08068,-9.97816 -0.49378,-1.93145 -0.50731,-3.86148 -0.50731,-72.36355 0,-79.763444 -0.21368,-72.314303 2.2084,-76.988459 0.97278,-1.877274 1.73097,-2.876843 3.61242996,-4.7625 2.73209004,-2.738173 4.84362004,-4.07435 8.06979004,-5.106577 l 2.2489597,-0.719562 h 95.382299 95.3823 l 2.11666,0.720834 c 3.03945,1.035088 5.24269,2.419106 7.69757,4.835416 3.11074,3.061868 4.68092,5.756169 5.57365,9.563946 0.46667,1.990522 0.48712,5.031445 0.48712,72.456902 0,68.50207 -0.0135,70.4321 -0.50731,72.36355 -1.0319,4.03634 -2.68759,6.77153 -6.00812,9.9254 -2.33596,2.21871 -5.22669,3.80693 -8.43353,4.63354 l -2.24896,0.5797 -92.20729,0.0375 c -50.714029,0.0206 -93.397929,-0.0336 -94.853139,-0.1205 z M 199.15596,206.05689 c 1.10931,-0.4635 2.23119,-1.79973 2.42476,-2.88804 0.0833,-0.46865 0.11786,-22.37026 0.0767,-48.67023 l -0.0749,-47.81814 -3.00543,2.97125 c -3.43277,3.39374 -4.05553,3.90995 -14.32478,11.87377 -8.03252,6.22923 -8.27414,6.41838 -19.05,14.91327 -7.86854,6.20298 -17.41707,13.93388 -24.34167,19.70809 -6.42575,5.35822 -10.63304,8.68274 -12.96458,10.24434 -4.04208,2.70727 -9.96706,5.50337 -14.55209,6.86737 -2.35244,0.69983 -2.81878,0.74776 -7.27604,0.74776 -4.45727,0 -4.92361,-0.0479 -7.276054,-0.74776 -4.40017,-1.309 -10.60458,-4.23387 -14.49429,-6.83286 -2.29642,-1.5344 -6.91534,-5.17532 -12.360915,-9.74365 -9.95567,-8.35187 -24.8742,-20.26624 -43.24802,-34.53912 -7.88755,-6.12709 -12.2613,-9.72291 -14.68437,-12.07255 l -3.45094,-3.34635 -0.0749,47.79636 c -0.0412,26.28799 -0.007,48.1798 0.0767,48.64845 0.18863,1.06058 1.30082,2.41266 2.36634,2.87678 1.21953,0.53119 184.963539,0.5423 186.234499,0.0113 z m -88.45065,-48.39805 c 2.7804,-1.04654 4.9427,-2.22995 8.45949,-4.62982 3.47215,-2.36941 4.8543,-3.44665 11.1125,-8.66107 3.53172,-2.94268 20.82199,-16.69859 39.55521,-31.4696 14.15267,-11.1593 15.33574,-12.13241 17.8902,-14.715247 3.90644,-3.94987 8.44737,-10.29991 10.95948,-15.325748 2.31804,-4.637597 3.14347,-8.479658 2.99361,-13.934279 -0.10571,-3.847821 -0.45311,-4.807927 -2.08703,-5.767818 -0.91666,-0.538515 -0.91903,-0.53853 -93.26259,-0.606526 l -92.345919,-0.068 -1.16881,0.597164 c -2.32733,1.189072 -2.70861,2.67416 -2.13783,8.326949 1.07634,10.659599 5.82805,19.656848 14.69637,27.827258 1.93889,1.786287 5.27796,4.472357 19.97604,16.069477 17.72994,13.98928 33.395845,26.47221 37.306245,29.72641 9.88248,8.22407 15.58796,11.90939 20.279484,13.09901 2.20733,0.55971 5.58281,0.35642 7.77355,-0.46817 z"
       id="path1" /></g></svg>
